<svg fill="none" height="32" viewBox="0 0 32 32" width="32" xmlns="http://www.w3.org/2000/svg"><circle cx="16" cy="16" fill="#454242" r="14.5" stroke="#b34eff" stroke-width="3"/><path d="m12.0657 7.83673-1.0717 5.86667c-.1072.8533 1.9291 1.28 1.9291 2.1333l-.3215 6.9334c0 1.0666 1.0718 1.0666 1.0718 1.0666s1.0718 0 1.0718-1.0666l-.3216-6.9334c0-.8533 1.822-1.28 1.9292-2.1333l-1.0718-5.86667h-.5358l.3215 4.26667-.8574.5333-.2144-4.79997h-.5359l-.3215 4.79997-.7502-.5333.2143-4.26667zm9.11 0c-.7501 0-2.1435.74667-2.6794 1.70666-.4287.85331-.5358 2.56001-.5358 3.62671v2.6666c0 .8534 1.1789 1.0667 1.6076 1.0667l-.5359 5.8667c-.1071 1.0666 1.0718 1.0666 1.0718 1.0666s1.0717 0 1.0717-1.0666z" fill="#fff"/></svg>