<svg width="32" height="32" viewBox="0 0 32 32" fill="none" xmlns="http://www.w3.org/2000/svg">
<g clip-path="url(#clip0_3_108)">
<path d="M16.575 32C25.0939 32 32.0001 25.094 32.0001 16.575C32.0001 8.05594 25.0939 1.1499 16.575 1.1499C8.05595 1.1499 1.14991 8.05594 1.14991 16.575C1.14991 25.094 8.05595 32 16.575 32Z" fill="#D6C9C9"/>
<path d="M15.425 30.8501C23.944 30.8501 30.8502 23.9441 30.8502 15.4251C30.8502 6.90604 23.944 0 15.425 0C6.90604 0 0 6.90604 0 15.4251C0 23.9441 6.90604 30.8501 15.425 30.8501Z" fill="white" stroke="#454242" stroke-opacity="0.13" stroke-width="0.5"/>
<path d="M21.5546 19.3785C20.8967 20.0048 20.0726 20.4285 19.1805 20.5991L11.3742 12.8062C11.5684 11.9209 11.9996 11.1049 12.6216 10.4456C15.4244 7.64232 19.0869 6.95824 22.0642 9.93593C25.0415 12.9136 24.3578 16.5758 21.5546 19.3785ZM12.88 21.3765C13.3208 21.0649 13.8113 20.8303 14.3306 20.6828C15.1027 20.5925 15.8852 20.6632 16.6287 20.8904L11.0984 15.3715C11.3386 16.1429 11.4053 16.9579 11.2935 17.7581C11.1577 18.2531 10.9391 18.7215 10.6469 19.1435C9.31603 20.7116 8 21.2876 8 21.8599C8.03355 22.4165 8.26982 22.9417 8.66416 23.336C9.0585 23.7303 9.58361 23.9666 10.1403 24.0002C10.7125 24.0002 11.2798 22.7422 12.88 21.3765Z" fill="black" fill-opacity="0.7"/>
</g>
<defs>
<clipPath id="clip0_3_108">
<rect width="32" height="32" fill="white"/>
</clipPath>
</defs>
</svg>
