<svg width="32" height="32" viewBox="0 0 32 32" fill="none" xmlns="http://www.w3.org/2000/svg">
<g clip-path="url(#clip0_3_555)">
<path d="M16.575 32C25.0939 32 32.0001 25.094 32.0001 16.575C32.0001 8.05594 25.0939 1.1499 16.575 1.1499C8.05595 1.1499 1.14991 8.05594 1.14991 16.575C1.14991 25.094 8.05595 32 16.575 32Z" fill="#D6C9C9"/>
<path d="M15.425 30.8501C23.944 30.8501 30.8502 23.9441 30.8502 15.4251C30.8502 6.90604 23.944 0 15.425 0C6.90604 0 0 6.90604 0 15.4251C0 23.9441 6.90604 30.8501 15.425 30.8501Z" fill="white" stroke="#454242" stroke-opacity="0.13" stroke-width="0.5"/>
<path d="M13.75 14.25C13.75 14.7142 13.5525 15.1592 13.2009 15.4874C12.8493 15.8156 12.3722 16 11.875 16C11.3777 16 10.9008 15.8156 10.5491 15.4874C10.1975 15.1592 10 14.7142 10 14.25C10 13.7858 10.1975 13.3408 10.5491 13.0126C10.9008 12.6844 11.3777 12.5 11.875 12.5C12.3722 12.5 12.8493 12.6844 13.2009 13.0126C13.5525 13.3408 13.75 13.7858 13.75 14.25ZM25 16V14.6C25 14.2323 24.9224 13.8682 24.7716 13.5285C24.6209 13.1888 24.3999 12.8802 24.1214 12.6201C23.8427 12.3601 23.512 12.1539 23.148 12.0131C22.7841 11.8725 22.394 11.8 22 11.8H18.25C17.856 11.8 17.4659 11.8725 17.102 12.0131C16.738 12.1539 16.4073 12.3601 16.1286 12.6201C15.8501 12.8802 15.6291 13.1888 15.4784 13.5285C15.3276 13.8682 15.25 14.2323 15.25 14.6V16H25ZM8.5 17.4V9.7C8.5 9.51435 8.421 9.3363 8.28037 9.20502C8.13967 9.07375 7.94891 9 7.75 9C7.55109 9 7.36033 9.07375 7.21968 9.20502C7.07901 9.3363 7 9.51435 7 9.7V22.3C7 22.4857 7.07901 22.6637 7.21968 22.795C7.36033 22.9262 7.55109 23 7.75 23C7.94891 23 8.13967 22.9262 8.28037 22.795C8.421 22.6637 8.5 22.4857 8.5 22.3V20.9H23.5V22.3C23.5 22.4857 23.579 22.6637 23.7196 22.795C23.8604 22.9262 24.0511 23 24.25 23C24.4489 23 24.6396 22.9262 24.7804 22.795C24.921 22.6637 25 22.4857 25 22.3V17.4H8.5Z" fill="black" fill-opacity="0.7"/>
</g>
<defs>
<clipPath id="clip0_3_555">
<rect width="32" height="32" fill="white"/>
</clipPath>
</defs>
</svg>
