<svg width="32" height="32" viewBox="0 0 32 32" fill="none" xmlns="http://www.w3.org/2000/svg">
<g clip-path="url(#clip0_3_45)">
<path d="M16.5749 32C25.0939 32 32.0001 25.094 32.0001 16.575C32.0001 8.05594 25.0939 1.1499 16.5749 1.1499C8.05594 1.1499 1.1499 8.05594 1.1499 16.575C1.1499 25.094 8.05594 32 16.5749 32Z" fill="#D6C9C9"/>
<path d="M15.425 30.8501C23.944 30.8501 30.8502 23.9441 30.8502 15.4251C30.8502 6.90604 23.944 0 15.425 0C6.90604 0 0 6.90604 0 15.4251C0 23.9441 6.90604 30.8501 15.425 30.8501Z" fill="white" stroke="#454242" stroke-opacity="0.13" stroke-width="0.5"/>
<path fill-rule="evenodd" clip-rule="evenodd" d="M24.8091 15.6212C23.8446 19.0673 21.5615 19.4338 20.3017 18.5296C20.1048 18.9694 19.8687 19.3851 19.6522 19.776H11.7753C9.92508 16.4765 8 10.7576 8 10.7576C8 10 8.61013 10 8.61013 10H21.9157C21.9157 10 22.5258 10.0244 22.9785 10.1956C24.5729 10.8066 25.3996 13.2262 24.8091 15.6212ZM22.3685 11.5641C22.1323 12.7372 21.6403 15.0346 20.8332 17.1609C21.0497 17.503 22.9 17.9918 23.6478 15.1567C24.2383 12.0042 22.5062 11.5641 22.3685 11.5641ZM22.526 20.5092C22.526 21.7556 21.7189 22 20.7151 22H9.83062C8.82684 22 8.01981 21.7312 8.01981 20.5092H22.526Z" fill="black" fill-opacity="0.7"/>
</g>
<defs>
<clipPath id="clip0_3_45">
<rect width="32" height="32" fill="white"/>
</clipPath>
</defs>
</svg>
