<svg width="32" height="32" viewBox="0 0 32 32" fill="none" xmlns="http://www.w3.org/2000/svg">
<circle cx="16" cy="16" r="15" fill="white" stroke="#999999" stroke-width="2"/>
<path d="M10.8584 7.44186C10.2045 7.44186 9.67444 7.97732 9.67444 8.63788V18.206C9.67444 18.8665 10.2045 19.402 10.8584 19.402H21.5138C22.1676 19.402 22.6977 18.8665 22.6977 18.206V8.63788C22.6977 7.97732 22.1676 7.44186 21.5138 7.44186H10.8584ZM14.1142 8.03987H14.1257H18.2695C18.433 8.03987 18.5655 8.1737 18.5655 8.33887C18.5655 8.50404 18.433 8.63788 18.2695 8.63788H14.1142C13.9507 8.63788 13.8182 8.50404 13.8182 8.33887C13.8182 8.1737 13.9507 8.03987 14.1142 8.03987ZM11.4503 9.83389H15.5941V14.6179H11.4503C11.1235 14.6179 10.8584 14.3502 10.8584 14.0199V10.4319C10.8584 10.1017 11.1235 9.83389 11.4503 9.83389ZM16.778 9.83389H20.9218C21.2487 9.83389 21.5138 10.1017 21.5138 10.4319V14.0199C21.5138 14.3502 21.2487 14.6179 20.9218 14.6179H16.778V9.83389ZM13.2262 15.814C13.8801 15.814 14.4102 16.3494 14.4102 17.01C14.4102 17.6705 13.8801 18.206 13.2262 18.206C12.5723 18.206 12.0423 17.6705 12.0423 17.01C12.0423 16.3494 12.5723 15.814 13.2262 15.814ZM19.1459 15.814C19.7998 15.814 20.3298 16.3494 20.3298 17.01C20.3298 17.6705 19.7998 18.206 19.1459 18.206C18.492 18.206 17.962 17.6705 17.962 17.01C17.962 16.3494 18.492 15.814 19.1459 15.814ZM19.6731 20.591C19.5965 20.5976 19.5188 20.6202 19.4465 20.6587C19.1821 20.7994 19.0633 21.117 19.169 21.3992L19.3702 21.794H13.0019L13.1546 21.4717C13.2702 21.1627 13.1158 20.8176 12.81 20.7008C12.5306 20.5941 12.2162 20.7142 12.077 20.9811L10.8931 23.3731C10.868 23.442 10.8567 23.5147 10.8584 23.588C10.8584 23.9183 11.1235 24.1861 11.4503 24.1861C11.6637 24.1849 11.8589 24.0658 11.9591 23.8754V23.8146H12.0423L12.41 22.99H19.9622L20.3298 23.8146V23.8754C20.43 24.0658 20.6252 24.1849 20.8386 24.1861C21.1654 24.1861 21.4305 23.9183 21.4305 23.588C21.4541 23.4938 21.4541 23.395 21.4305 23.3007L20.2466 20.9087C20.1323 20.6896 19.903 20.5712 19.6731 20.591Z" fill="black"/>
</svg>
