<svg width="32" height="32" viewBox="0 0 32 32" fill="none" xmlns="http://www.w3.org/2000/svg">
<g clip-path="url(#clip0_2_6)">
<path d="M16.5749 31.9999C25.0939 31.9999 32 25.0939 32 16.5749C32 8.05592 25.0939 1.1499 16.5749 1.1499C8.05592 1.1499 1.1499 8.05592 1.1499 16.5749C1.1499 25.0939 8.05592 31.9999 16.5749 31.9999Z" fill="#D6C9C9"/>
<path d="M15.425 30.85C23.944 30.85 30.8501 23.944 30.8501 15.425C30.8501 6.90602 23.944 0 15.425 0C6.90602 0 0 6.90602 0 15.425C0 23.944 6.90602 30.85 15.425 30.85Z" fill="white" stroke="#454242" stroke-opacity="0.13" stroke-width="0.5"/>
<path d="M20.2453 24H10.3295C9.07039 24 9.06715 21.9865 10.3295 21.9865H20.2453C21.5087 21.9865 21.5038 24 20.2453 24ZM21.7089 19.8956C21.7089 19.8956 23.0535 20.4873 22.9983 21.1557C22.9681 21.5209 22.6667 21.8289 22.3243 21.9521C21.8394 22.1273 20.8636 21.6348 20.519 21.4242L18.5319 20.36L17.7541 15.0696C17.7387 14.963 17.6362 14.8899 17.531 14.9046C17.4233 14.9199 17.3487 15.0188 17.3643 15.1255L18.1561 20.5132C18.165 20.5742 18.2026 20.6274 18.2574 20.6565L20.0146 21.5969L10.3868 21.5971L12.3067 20.3546C12.3541 20.3243 12.3856 20.2746 12.3937 20.2195L13.132 15.1255C13.1474 15.0189 13.0726 14.92 12.965 14.9047C12.8613 14.8914 12.7579 14.9631 12.7421 15.0697L12.0165 20.0767L9.25551 21.8674C8.79508 22.0571 8.26277 21.8389 8.07055 21.3833C7.88154 20.9347 8.08239 20.4239 8.55246 20.2067L10.5129 18.9508C10.5604 18.9204 10.5924 18.8708 10.6008 18.815L11.3887 13.465C11.3887 12.5056 12.1773 11.7251 13.1464 11.7251H17.4288C18.3977 11.7251 19.1864 12.5054 19.1883 13.4936C20.0449 19.0679 19.9213 18.9166 20.0846 19.0048L21.7089 19.8956ZM15.2872 10.4737C16.5331 10.4737 17.5463 9.47054 17.5463 8.23687C17.5463 7.00322 16.5331 6 15.2872 6C14.0413 6 13.0281 7.00322 13.0281 8.23687C13.0281 9.47054 14.0413 10.4737 15.2872 10.4737Z" fill="black" fill-opacity="0.7"/>
</g>
<defs>
<clipPath id="clip0_2_6">
<rect width="32" height="32" fill="white"/>
</clipPath>
</defs>
</svg>
