<svg width="32" height="32" viewBox="0 0 32 32" fill="none" xmlns="http://www.w3.org/2000/svg">
<g clip-path="url(#clip0_3_35)">
<path d="M16.5749 32C25.0939 32 32.0001 25.094 32.0001 16.575C32.0001 8.05594 25.0939 1.1499 16.5749 1.1499C8.05594 1.1499 1.1499 8.05594 1.1499 16.575C1.1499 25.094 8.05594 32 16.5749 32Z" fill="#D6C9C9"/>
<path d="M15.425 30.8501C23.944 30.8501 30.8502 23.9441 30.8502 15.4251C30.8502 6.90604 23.944 0 15.425 0C6.90604 0 0 6.90604 0 15.4251C0 23.9441 6.90604 30.8501 15.425 30.8501Z" fill="white" stroke="#454242" stroke-opacity="0.13" stroke-width="0.5"/>
<path d="M24.8101 12.8525C23.035 13.8772 21.0063 13.4929 19.7385 13.2368C18.4705 12.8525 16.5686 12.2121 15.5542 10.4189C14.5399 8.62567 10.4825 22.2027 16.9489 23.996C23.4154 25.6611 26.5852 11.8278 24.8101 12.8525ZM16.5686 14.5177C17.9633 14.5177 17.7098 16.0546 17.7098 16.0546C16.6954 16.1828 15.047 15.4143 15.047 15.4143C15.047 15.4143 15.1738 14.5177 16.5686 14.5177ZM17.4562 21.8185C14.9203 21.1781 15.3006 18.104 15.5542 18.6165C15.8078 19.1288 16.9489 19.7692 17.8365 20.0253C18.7241 20.2815 20.1188 20.2815 20.4992 19.8972C21.1331 19.6411 19.992 22.459 17.4562 21.8185ZM22.6546 17.4636C22.6546 17.4636 20.8795 17.4636 19.992 16.8232C19.992 16.8232 20.4992 15.2862 21.7671 16.0546C23.035 16.6951 22.6546 17.4636 22.6546 17.4636Z" fill="black" fill-opacity="0.7"/>
<path d="M12.7649 16.8232C12.5113 16.8232 12.2576 16.9513 12.0041 16.9513C11.1165 17.2075 9.84868 17.7198 9.595 18.104C9.34143 18.6165 9.21464 16.5671 11.7505 15.9266C12.1308 15.7986 12.5113 15.7986 12.8917 15.7986C12.8917 15.6704 12.8917 15.4143 12.8917 15.2862C13.0184 14.6457 13.1452 13.8772 13.3988 12.9806C12.2576 13.1087 12.1308 11.6998 12.1308 11.6998C12.6381 11.4435 13.272 11.4435 13.7792 11.5717C14.1595 10.5469 14.6668 9.77844 15.3007 9.77844C15.5543 9.77844 15.8079 9.90657 15.9346 10.1627C15.9346 10.2908 16.0614 10.2908 16.0614 10.4189C15.5543 7.98525 14.6668 6.32014 14.2863 7.08864C13.272 8.88183 11.3701 9.65041 10.1023 9.90657C8.83428 10.2908 6.8056 10.5469 5.03052 9.52228C3.38218 8.49764 6.55199 22.3309 13.0184 20.5378H13.1452C12.8917 19.5131 12.7649 18.2322 12.7649 16.8232ZM8.7075 14.2615C7.31277 14.6457 7.05919 13.7491 7.05919 13.7491C7.05919 13.7491 8.32714 12.4683 9.34143 12.3403C9.34143 12.4683 9.97547 13.8772 8.7075 14.2615Z" fill="black" fill-opacity="0.7"/>
</g>
<defs>
<clipPath id="clip0_3_35">
<rect width="32" height="32" fill="white"/>
</clipPath>
</defs>
</svg>
