<svg width="32" height="32" viewBox="0 0 32 32" fill="none" xmlns="http://www.w3.org/2000/svg">
<g clip-path="url(#clip0_3_545)">
<path d="M16.575 32C25.0939 32 32.0001 25.094 32.0001 16.575C32.0001 8.05594 25.0939 1.1499 16.575 1.1499C8.05595 1.1499 1.14991 8.05594 1.14991 16.575C1.14991 25.094 8.05595 32 16.575 32Z" fill="#D6C9C9"/>
<path d="M15.425 30.8501C23.944 30.8501 30.8502 23.9441 30.8502 15.4251C30.8502 6.90604 23.944 0 15.425 0C6.90604 0 0 6.90604 0 15.4251C0 23.9441 6.90604 30.8501 15.425 30.8501Z" fill="white" stroke="#454242" stroke-opacity="0.13" stroke-width="0.5"/>
<path d="M12.3125 15.6667C11.6821 15.6667 11.0658 15.4907 10.5416 15.1611C10.0174 14.8314 9.60889 14.3629 9.36763 13.8147C9.12638 13.2665 9.06326 12.6633 9.18625 12.0814C9.30924 11.4995 9.61282 10.9649 10.0586 10.5453C10.5044 10.1258 11.0723 9.84007 11.6906 9.72431C12.309 9.60856 12.9499 9.66797 13.5323 9.89503C14.1147 10.1221 14.6126 10.5066 14.9628 11C15.3131 11.4933 15.5 12.0733 15.5 12.6667C15.4991 13.462 15.1629 14.2246 14.5654 14.787C13.9678 15.3494 13.1576 15.6658 12.3125 15.6667ZM17.625 20.3333C17.6239 19.4496 17.2504 18.6024 16.5864 17.9775C15.9225 17.3526 15.0223 17.0011 14.0833 17H10.5417C9.6027 17.0011 8.70252 17.3526 8.03857 17.9775C7.37462 18.6024 7.00112 19.4496 7 20.3333V23H17.625V20.3333ZM19.3958 13C18.7654 13 18.1491 12.8241 17.625 12.4944C17.1008 12.1648 16.6922 11.6962 16.451 11.1481C16.2097 10.5999 16.1466 9.99667 16.2696 9.41473C16.3926 8.83279 16.6962 8.29824 17.1419 7.87868C17.5877 7.45912 18.1557 7.1734 18.774 7.05765C19.3923 6.94189 20.0332 7.0013 20.6156 7.22836C21.1981 7.45543 21.6959 7.83994 22.0461 8.33329C22.3964 8.82664 22.5833 9.40666 22.5833 10C22.5824 10.7954 22.2463 11.5579 21.6487 12.1203C21.0511 12.6828 20.2409 12.9991 19.3958 13ZM20.4583 14.3333H16.9167C16.7923 14.3387 16.6684 14.3505 16.5455 14.3687C16.288 14.9295 15.9076 15.433 15.4292 15.846C16.4678 16.1226 17.3824 16.7103 18.0342 17.52C18.6861 18.3298 19.0398 19.3174 19.0417 20.3333H24V17.6667C23.9989 16.7829 23.6254 15.9357 22.9614 15.3108C22.2975 14.6859 21.3973 14.3344 20.4583 14.3333Z" fill="black" fill-opacity="0.7"/>
</g>
<defs>
<clipPath id="clip0_3_545">
<rect width="32" height="32" fill="white"/>
</clipPath>
</defs>
</svg>
