<svg width="32" height="32" viewBox="0 0 32 32" fill="none" xmlns="http://www.w3.org/2000/svg">
<g clip-path="url(#clip0_3_77)">
<path d="M16.575 32C25.094 32 32.0001 25.094 32.0001 16.575C32.0001 8.05594 25.094 1.1499 16.575 1.1499C8.05596 1.1499 1.14992 8.05594 1.14992 16.575C1.14992 25.094 8.05596 32 16.575 32Z" fill="#D6C9C9"/>
<path d="M15.425 30.8501C23.944 30.8501 30.8502 23.9441 30.8502 15.4251C30.8502 6.90604 23.944 0 15.425 0C6.90604 0 0 6.90604 0 15.4251C0 23.9441 6.90604 30.8501 15.425 30.8501Z" fill="white" stroke="#454242" stroke-opacity="0.13" stroke-width="0.5"/>
<path d="M15.5 7.26666L6 11.7L8.53333 12.84V14.9933C7.77333 15.2467 7.26667 16.0067 7.26667 16.7667C7.26667 17.5267 7.77333 18.2867 8.53333 18.54V18.6667L7.39333 21.3267C7.01333 22.4667 7.26667 23.7333 9.16667 23.7333C11.0667 23.7333 11.32 22.4667 10.94 21.3267L9.8 18.6667C10.56 18.2867 11.0667 17.6533 11.0667 16.7667C11.0667 15.88 10.56 15.2467 9.8 14.9933V13.4733L15.5 16.1333L25 11.7L15.5 7.26666ZM21.0733 15.5L15.3733 18.0333L12.3333 16.64V16.7667C12.3333 17.6533 11.9533 18.4133 11.32 19.0467L12.08 20.82V20.9467C12.2067 21.4533 12.3333 21.96 12.2067 22.4667C13.0933 22.8467 14.1067 23.1 15.3733 23.1C19.5533 23.1 21.0733 20.5667 21.0733 19.3V15.5Z" fill="black" fill-opacity="0.7"/>
</g>
<defs>
<clipPath id="clip0_3_77">
<rect width="32" height="32" fill="white"/>
</clipPath>
</defs>
</svg>
