<svg width="32" height="32" viewBox="0 0 32 32" fill="none" xmlns="http://www.w3.org/2000/svg">
<g clip-path="url(#clip0_1_2)">
<path d="M16.575 32C25.094 32 32.0001 25.094 32.0001 16.575C32.0001 8.05594 25.094 1.1499 16.575 1.1499C8.05594 1.1499 1.1499 8.05594 1.1499 16.575C1.1499 25.094 8.05594 32 16.575 32Z" fill="#D6C9C9"/>
<path d="M15.4251 30.8501C23.9441 30.8501 30.8502 23.9441 30.8502 15.4251C30.8502 6.90604 23.9441 0 15.4251 0C6.90604 0 0 6.90604 0 15.4251C0 23.9441 6.90604 30.8501 15.4251 30.8501Z" fill="white" stroke="#454242" stroke-opacity="0.13" stroke-width="0.5"/>
<path d="M10.3731 7L9.00521 13.2334C8.86845 14.14 11.4674 14.5934 11.4674 15.5L11.0571 22.8667C11.0571 24 12.4249 24 12.4249 24C12.4249 24 13.7928 24 13.7928 22.8667L13.3825 15.5C13.3825 14.5934 15.7079 14.14 15.8446 13.2334L14.4767 7H13.7928L14.2031 11.5334L13.1088 12.1L12.8353 7H12.1514L11.741 12.1L10.7834 11.5334L11.0571 7H10.3731ZM22 7C21.0425 7 19.2644 7.79334 18.5803 8.81333C18.0332 9.72002 17.8964 11.5334 17.8964 12.6666V15.5C17.8964 16.4066 19.4011 16.6334 19.9483 16.6334L19.2644 22.8667C19.1275 24 20.6323 24 20.6323 24C20.6323 24 22 24 22 22.8667V7Z" fill="black" fill-opacity="0.7"/>
</g>
<defs>
<clipPath id="clip0_1_2">
<rect width="32" height="32" fill="white"/>
</clipPath>
</defs>
</svg>
