<svg width="32" height="32" viewBox="0 0 32 32" fill="none" xmlns="http://www.w3.org/2000/svg">
<g clip-path="url(#clip0_3_95)">
<path d="M16.575 32C25.094 32 32.0001 25.094 32.0001 16.575C32.0001 8.05594 25.094 1.1499 16.575 1.1499C8.05596 1.1499 1.14992 8.05594 1.14992 16.575C1.14992 25.094 8.05596 32 16.575 32Z" fill="#D6C9C9"/>
<path d="M15.425 30.8501C23.944 30.8501 30.8502 23.9441 30.8502 15.4251C30.8502 6.90604 23.944 0 15.425 0C6.90604 0 0 6.90604 0 15.4251C0 23.9441 6.90604 30.8501 15.425 30.8501Z" fill="white" stroke="#454242" stroke-opacity="0.13" stroke-width="0.5"/>
<path d="M23.8369 13.3062C23.7755 13.2269 23.6994 13.1633 23.6136 13.1197C23.5279 13.0761 23.4347 13.0534 23.3403 13.0534H19.4204V10.1658C19.4204 9.59137 19.2139 9.0405 18.8464 8.63436C18.4788 8.22818 17.9803 8 17.4605 8H13.5406C13.0208 8 12.5222 8.22818 12.1547 8.63436C11.7871 9.0405 11.5806 9.59137 11.5806 10.1658V13.0534H7.66069C7.56601 13.0523 7.47222 13.0739 7.38581 13.1167C7.29941 13.1595 7.22246 13.2226 7.1603 13.3016C7.09818 13.3806 7.05228 13.4736 7.02589 13.574C6.99951 13.6745 6.99319 13.7802 7.00738 13.8836L8.23563 22.6551C8.28286 22.9993 8.44114 23.3131 8.68125 23.5386C8.92135 23.7642 9.22713 23.8861 9.5423 23.8822H21.4718C21.787 23.8861 22.0927 23.7642 22.3328 23.5386C22.573 23.3131 22.7312 22.9993 22.7785 22.6551L23.9937 13.8836C24.0067 13.7806 23.9995 13.6756 23.9724 13.576C23.9454 13.4762 23.8991 13.3842 23.8369 13.3062ZM12.8872 10.1658C12.8872 9.97425 12.9561 9.79065 13.0786 9.65531C13.2011 9.5199 13.3673 9.44383 13.5406 9.44383H17.4605C17.6337 9.44383 17.7999 9.5199 17.9224 9.65531C18.045 9.79065 18.1138 9.97425 18.1138 10.1658V13.0534H12.8872V10.1658ZM21.4718 22.4384H9.5292L8.42507 14.4973H22.5759L21.4718 22.4384Z" fill="black" fill-opacity="0.7"/>
<path d="M21.4718 22.4384H9.52921L8.42508 14.4973H22.5759L21.4718 22.4384Z" fill="black" fill-opacity="0.7"/>
</g>
<defs>
<clipPath id="clip0_3_95">
<rect width="32" height="32" fill="white"/>
</clipPath>
</defs>
</svg>
