<svg width="38" height="38" viewBox="0 0 38 38" fill="none" xmlns="http://www.w3.org/2000/svg">
<circle cx="19" cy="19" r="19" transform="rotate(-180 19 19)" fill="white"/>
<path fill-rule="evenodd" clip-rule="evenodd" d="M15.2218 26.7071C15.6123 27.0976 16.2454 27.0976 16.636 26.7071L23.6801 19.663C23.6892 19.6545 23.6982 19.6458 23.7071 19.6369C23.9225 19.4216 24.0191 19.1324 23.9969 18.8509C23.979 18.6215 23.8824 18.3972 23.707 18.2218C23.6988 18.2136 23.6905 18.2056 23.6821 18.1977L16.636 11.1517C16.2455 10.7611 15.6124 10.7611 15.2218 11.1517C14.8313 11.5422 14.8313 12.1754 15.2218 12.5659L21.5853 18.9293L15.2218 25.2929C14.8312 25.6834 14.8312 26.3166 15.2218 26.7071Z" fill="black"/>
</svg>
