<svg id="Layer_1" data-name="Layer 1" xmlns="http://www.w3.org/2000/svg" xmlns:xlink="http://www.w3.org/1999/xlink" viewBox="0 0 288 288"><defs><style>.cls-1{fill:none;}.cls-2{clip-path:url(#clip-path);}</style><clipPath id="clip-path"><path class="cls-1" d="M407.55,94.47h26.64l27.87,85.75,27.87-85.75h26.8l-39.81,109H447.36Zm54.59,193.15C383,287.62,318.52,223.19,318.52,144S383,.38,462.14.38,605.76,64.81,605.76,144,541.33,287.62,462.14,287.62Zm0-269.29A125.67,125.67,0,1,0,587.81,144,125.82,125.82,0,0,0,462.14,18.33Z"/></clipPath></defs><title>Vibemap_LogoExport_V1</title><g class="cls-2"><image width="1920" height="1080" transform="translate(227.04 -5.33) scale(0.28)" xlink:href="../../Gradients/Vibemap_gradient_stills/Wild%20Side/Wild%20Side001.png"/></g><path d="M89.41,94.47h26.64l27.87,85.75,27.87-85.75h26.8l-39.81,109H129.22Z"/><path d="M144,287.62C64.81,287.62.38,223.19.38,144S64.81.38,144,.38,287.62,64.81,287.62,144,223.19,287.62,144,287.62Zm0-269.29A125.67,125.67,0,1,0,269.67,144,125.82,125.82,0,0,0,144,18.33Z"/></svg>