<svg width="10" height="16" viewBox="0 0 10 16" fill="none" xmlns="http://www.w3.org/2000/svg">
<path d="M6.49812 2.99956C7.32611 2.99956 7.99787 2.32778 7.99787 1.49978C7.99787 0.671777 7.32611 0 6.49812 0C5.67014 0 4.99837 0.671777 4.99837 1.49978C4.99837 2.32778 5.67014 2.99956 6.49812 2.99956ZM9.45075 7.65825L8.72275 7.28956L8.41967 6.37094C7.96037 4.9774 6.67934 4.00254 5.22646 3.99941C4.10165 3.99629 3.47988 4.31499 2.31133 4.7868C1.63644 5.05863 1.08341 5.57418 0.758466 6.23034L0.549126 6.65527C0.305417 7.14895 0.502259 7.74886 0.992801 7.9957C1.48022 8.24254 2.07387 8.04257 2.3207 7.54889L2.53004 7.12396C2.6394 6.90524 2.82062 6.73339 3.04558 6.64278L3.88294 6.30533L3.40802 8.20192C3.24555 8.85183 3.42052 9.54235 3.87356 10.0392L5.74512 12.0826C5.97009 12.3294 6.12943 12.6263 6.21067 12.9481L6.78245 15.2384C6.9168 15.7727 7.46046 16.1008 7.99474 15.9664C8.52903 15.8321 8.8571 15.2884 8.72275 14.7541L8.02911 11.9732C7.94788 11.6514 7.78853 11.3515 7.56357 11.1077L6.14193 9.55485L6.67934 7.40829L6.85119 7.92384C7.01678 8.42689 7.37297 8.84245 7.84164 9.07992L8.56965 9.44862C9.05706 9.69545 9.65071 9.49548 9.89755 9.00181C10.1381 8.51125 9.94129 7.90509 9.45075 7.65825ZM2.29883 12.0545C2.19885 12.3076 2.04887 12.5357 1.85516 12.7263L0.292919 14.2917C-0.0976398 14.6822 -0.0976398 15.3165 0.292919 15.7071C0.683478 16.0976 1.31462 16.0976 1.70518 15.7071L3.56112 13.8511C3.75171 13.6605 3.90168 13.4324 4.00479 13.1793L4.4266 12.1232C2.69876 10.2391 3.21743 10.8172 2.9456 10.4453L2.29883 12.0545Z"/>
</svg>
