<svg width="16" height="13" viewBox="0 0 16 13" fill="none" xmlns="http://www.w3.org/2000/svg">
<path d="M15.2683 3.57724C14.7805 2.68836 14.103 1.98917 13.2358 1.47967C12.3686 0.970179 11.3984 0.596195 10.3252 0.357724C9.25203 0.119252 8.05421 0 6.73171 0C5.73441 0 4.79675 0.184293 3.9187 0.552845C3.04065 0.921398 2.3252 1.37668 1.77236 1.9187C1.21951 2.46072 0.785919 3.01356 0.471545 3.57724C0.157171 4.14091 0 4.63958 0 5.07317C0 5.96205 0.216813 6.6775 0.650406 7.21951C1.084 7.76153 1.71275 8.03252 2.53659 8.03252C3.4038 8.03252 4.03795 8.15717 4.43902 8.4065C4.8401 8.65584 5.04065 9.09486 5.04065 9.72358C5.04065 10.5691 5.3225 11.2737 5.88618 11.8374C6.44985 12.4011 7.15447 12.6829 8 12.6829C10.5799 12.6829 12.5583 12.0976 13.935 10.9268C15.3116 9.7561 16 8.36855 16 6.76423C16 5.52846 15.7561 4.46611 15.2683 3.57724ZM3.49593 6.03252C3.28998 6.23847 3.04065 6.34146 2.74797 6.34146C2.45528 6.34146 2.20595 6.23847 2 6.03252C1.79405 5.82657 1.69106 5.57724 1.69106 5.28455C1.69106 4.99187 1.79405 4.74254 2 4.53659C2.20595 4.33063 2.45528 4.22764 2.74797 4.22764C3.04065 4.22764 3.28998 4.33063 3.49593 4.53659C3.70189 4.74254 3.80488 4.99187 3.80488 5.28455C3.80488 5.57724 3.70189 5.82657 3.49593 6.03252ZM5.6748 3.80488C5.38211 3.80488 5.13821 3.70189 4.94309 3.49593C4.74797 3.28998 4.65041 3.04065 4.65041 2.74797C4.65041 2.45528 4.74797 2.20595 4.94309 2C5.13821 1.79405 5.38211 1.69106 5.6748 1.69106C5.96748 1.69106 6.21681 1.79405 6.42276 2C6.62872 2.20595 6.73171 2.45528 6.73171 2.74797C6.73171 3.04065 6.62872 3.28998 6.42276 3.49593C6.21681 3.70189 5.96748 3.80488 5.6748 3.80488ZM8.89431 10.6179C8.64494 10.8672 8.34686 10.9919 8 10.9919C7.65311 10.9919 7.35502 10.8672 7.10569 10.6179C6.85636 10.3686 6.73171 10.0705 6.73171 9.72358C6.73171 9.37668 6.85636 9.07857 7.10569 8.82927C7.35502 8.57994 7.65314 8.45528 8 8.45528C8.34689 8.45528 8.64498 8.57994 8.89431 8.82927C9.14364 9.0786 9.26829 9.37668 9.26829 9.72358C9.26829 10.0705 9.14364 10.3686 8.89431 10.6179ZM9.80488 3.49593C9.59893 3.70189 9.34959 3.80488 9.05691 3.80488C8.76423 3.80488 8.51489 3.70189 8.30894 3.49593C8.10299 3.28998 8 3.04065 8 2.74797C8 2.45528 8.10299 2.20595 8.30894 2C8.51489 1.79405 8.76423 1.69106 9.05691 1.69106C9.34959 1.69106 9.59893 1.79405 9.80488 2C10.0108 2.20595 10.1138 2.45528 10.1138 2.74797C10.1138 3.04065 10.0108 3.28998 9.80488 3.49593ZM13.1545 5.18699C12.9485 5.39294 12.6992 5.49593 12.4065 5.49593C12.1138 5.49593 11.8645 5.39294 11.6585 5.18699C11.4526 4.98104 11.3496 4.73171 11.3496 4.43902C11.3496 4.14634 11.4526 3.89701 11.6585 3.69106C11.8645 3.48511 12.1138 3.38211 12.4065 3.38211C12.6992 3.38211 12.9485 3.48511 13.1545 3.69106C13.3604 3.89701 13.4634 4.14634 13.4634 4.43902C13.4634 4.73171 13.3604 4.98104 13.1545 5.18699Z" />
</svg>
