<svg width="30" height="30" viewBox="0 0 30 30" fill="none" xmlns="http://www.w3.org/2000/svg">
<path d="M12.6595 29.8427L24.2311 9.91826C24.4931 9.46715 24.1215 8.91203 23.6046 8.98235L15.9075 10.0285L17.7466 0.373344C17.8086 0.0478555 17.3889 -0.138648 17.1889 0.125434L5.81149 15.1436C5.48009 15.581 5.831 16.203 6.37675 16.1455L14.8628 15.2523L12.0808 29.6258C12.0137 29.9725 12.4822 30.1481 12.6595 29.8427Z" fill="#FFDC64"/>
<path d="M9.36942 14.0793C9.1569 14.0963 9.01575 13.864 9.12872 13.6832L17.6353 0.0727211C17.5087 -0.0274156 17.3095 -0.033861 17.1889 0.125397L5.81149 15.1436C5.48009 15.581 5.831 16.2029 6.37675 16.1455L14.8628 15.2523L12.0808 29.6258C12.0433 29.8197 12.1741 29.9561 12.3269 29.9887L17.0941 14.9039C17.3175 14.1969 16.7538 13.4885 16.0146 13.5477L9.36942 14.0793Z" fill="#FFC850"/>
</svg>
