<svg width="20" height="20" viewBox="0 0 20 20" fill="none" xmlns="http://www.w3.org/2000/svg">
<path d="M15.3333 6.66667H12.6667V4H2V9.33333C2.00704 10.5014 2.39738 11.6349 3.11105 12.5597C3.82472 13.4844 4.82226 14.1493 5.95043 14.4521C7.0786 14.755 8.275 14.6791 9.35586 14.2361C10.4367 13.7931 11.3422 13.0075 11.9333 12H15.3333C16.0406 12 16.7189 11.719 17.219 11.219C17.719 10.7189 18 10.0406 18 9.33333C18 8.62609 17.719 7.94781 17.219 7.44772C16.7189 6.94762 16.0406 6.66667 15.3333 6.66667V6.66667ZM15.3333 10.6667H12.48C12.5983 10.2319 12.661 9.78388 12.6667 9.33333V8H15.3333C15.687 8 16.0261 8.14048 16.2761 8.39052C16.5262 8.64057 16.6667 8.97971 16.6667 9.33333C16.6667 9.68695 16.5262 10.0261 16.2761 10.2761C16.0261 10.5262 15.687 10.6667 15.3333 10.6667ZM12.6667 16.6667C12.6667 16.8435 12.5964 17.013 12.4714 17.1381C12.3464 17.2631 12.1768 17.3333 12 17.3333H2.66667C2.48986 17.3333 2.32029 17.2631 2.19526 17.1381C2.07024 17.013 2 16.8435 2 16.6667C2 16.4899 2.07024 16.3203 2.19526 16.1953C2.32029 16.0702 2.48986 16 2.66667 16H12C12.1768 16 12.3464 16.0702 12.4714 16.1953C12.5964 16.3203 12.6667 16.4899 12.6667 16.6667Z" fill="black"/>
</svg>
