<?xml version="1.0" encoding="utf-8"?>
<!-- Generator: Adobe Illustrator 24.0.2, SVG Export Plug-In . SVG Version: 6.00 Build 0)  -->
<svg version="1.1" id="Layer_1" xmlns="http://www.w3.org/2000/svg" xmlns:xlink="http://www.w3.org/1999/xlink" x="0px" y="0px"
	 viewBox="0 0 21 21" style="enable-background:new 0 0 21 21;" xml:space="preserve">
<style type="text/css">
	.st0{fill:none;}
	.st1{fill:#190087;}
	.st2{fill:#FFFFFF;}
</style>
<rect class="st0" width="21" height="21"/>
<path class="st1" d="M10.5,1L10.5,1c5.2,0,9.5,4.3,9.5,9.5l0,0c0,5.2-4.3,9.5-9.5,9.5l0,0C5.3,20,1,15.7,1,10.5l0,0
	C1,5.3,5.3,1,10.5,1z"/>
<path class="st2" d="M15,8h-2V6H5v4c0,2.2,1.8,4,4,4c1.4,0,2.7-0.8,3.4-2H15c1.1,0,2-0.9,2-2S16.1,8,15,8z M15,11h-2.1
	c0.1-0.3,0.1-0.7,0.1-1V9h2c0.6,0,1,0.4,1,1S15.6,11,15,11z M13,15.5c0,0.3-0.2,0.5-0.5,0.5h-7C5.2,16,5,15.8,5,15.5S5.2,15,5.5,15
	h7C12.8,15,13,15.2,13,15.5z"/>
</svg>
