<?xml version="1.0" encoding="utf-8"?>
<!-- Generator: Adobe Illustrator 24.0.0, SVG Export Plug-In . SVG Version: 6.00 Build 0)  -->
<svg version="1.1" id="Layer_1" xmlns="http://www.w3.org/2000/svg" xmlns:xlink="http://www.w3.org/1999/xlink" x="0px" y="0px"
	 viewBox="0 0 21 21" style="enable-background:new 0 0 21 21;" xml:space="preserve">
<style type="text/css">
	.st0{fill:#FFFFFF;}
	.st1{fill:#7D7C84;}
</style>
<path class="st0" d="M20,10.5C20,5.3,15.7,1,10.5,1C5.3,1,1,5.3,1,10.5c0,5.2,4.3,9.5,9.5,9.5C15.7,20,20,15.7,20,10.5z"/>
<path class="st1" fill="#7D7C84" d="M18.3,9c-1.4,0.8-3,0.5-4,0.3c-1-0.3-2.5-0.8-3.3-2.2s-4,9.2,1.1,10.6C17.2,19,19.7,8.2,18.3,9z M11.8,10.3
	c1.1,0,0.9,1.2,0.9,1.2c-0.8,0.1-2.1-0.5-2.1-0.5S10.7,10.3,11.8,10.3z M12.5,16c-2-0.5-1.7-2.9-1.5-2.5c0.2,0.4,1.1,0.9,1.8,1.1
	c0.7,0.2,1.8,0.2,2.1-0.1C15.4,14.3,14.5,16.5,12.5,16z M16.6,12.6c0,0-1.4,0-2.1-0.5c0,0,0.4-1.2,1.4-0.6
	C16.9,12,16.6,12.6,16.6,12.6z"/>
<path class="st1" fill="#7D7C84" d="M8.8,12.1c-0.2,0-0.4,0.1-0.6,0.1c-0.7,0.2-1.7,0.6-1.9,0.9C6.1,13.5,6,11.9,8,11.4c0.3-0.1,0.6-0.1,0.9-0.1
	c0-0.1,0-0.3,0-0.4C9,10.4,9.1,9.8,9.3,9.1c-0.9,0.1-1-1-1-1c0.4-0.2,0.9-0.2,1.3-0.1c0.3-0.8,0.7-1.4,1.2-1.4
	c0.2,0,0.4,0.1,0.5,0.3c0,0.1,0.1,0.1,0.1,0.2c-0.4-1.9-1.1-3.2-1.4-2.6c-0.8,1.4-2.3,2-3.3,2.2c-1,0.3-2.6,0.5-4-0.3
	C1.4,5.6,3.9,16.4,9,15c0,0,0.1,0,0.1,0C8.9,14.2,8.8,13.2,8.8,12.1z M5.6,10.1c-1.1,0.3-1.3-0.4-1.3-0.4s1-1,1.8-1.1
	C6.1,8.7,6.6,9.8,5.6,10.1z"/>
</svg>
