<svg width="17" height="14" viewBox="0 0 17 14" fill="none" xmlns="http://www.w3.org/2000/svg">
<path d="M15.9 4.59995C14.5 5.39995 12.9 5.09995 11.9 4.89995C10.9 4.59995 9.39996 4.09995 8.59996 2.69995C7.79996 1.29995 4.59996 11.8999 9.69996 13.2999C14.8 14.5999 17.3 3.79995 15.9 4.59995ZM9.39996 5.89995C10.5 5.89995 10.3 7.09995 10.3 7.09995C9.49996 7.19995 8.19996 6.59995 8.19996 6.59995C8.19996 6.59995 8.29996 5.89995 9.39996 5.89995ZM10.1 11.5999C8.09996 11.0999 8.39996 8.69995 8.59996 9.09995C8.79996 9.49995 9.69996 9.99995 10.4 10.1999C11.1 10.3999 12.2 10.3999 12.5 10.0999C13 9.89995 12.1 12.0999 10.1 11.5999ZM14.2 8.19995C14.2 8.19995 12.8 8.19995 12.1 7.69995C12.1 7.69995 12.5 6.49995 13.5 7.09995C14.5 7.59995 14.2 8.19995 14.2 8.19995Z" />
<path d="M6.40002 7.69996C6.20002 7.69996 6.00002 7.79996 5.80002 7.79996C5.10002 7.99996 4.10002 8.39996 3.90002 8.69996C3.70002 9.09996 3.60002 7.49996 5.60002 6.99996C5.90002 6.89996 6.20002 6.89996 6.50002 6.89996C6.50002 6.79996 6.50002 6.59996 6.50002 6.49996C6.60002 5.99996 6.70002 5.39996 6.90002 4.69996C6.00002 4.79996 5.90002 3.69996 5.90002 3.69996C6.30002 3.49996 6.80002 3.49996 7.20002 3.59996C7.50002 2.79996 7.90002 2.19996 8.40002 2.19996C8.60002 2.19996 8.80002 2.29996 8.90002 2.49996C8.90002 2.59996 9.00002 2.59996 9.00002 2.69996C8.60002 0.799959 7.90002 -0.500041 7.60002 0.0999591C6.80002 1.49996 5.30002 2.09996 4.30002 2.29996C3.30002 2.59996 1.70002 2.79996 0.300021 1.99996C-0.999979 1.19996 1.50002 12 6.60002 10.6H6.70002C6.50002 9.79996 6.40002 8.79996 6.40002 7.69996ZM3.20002 5.69996C2.10002 5.99996 1.90002 5.29996 1.90002 5.29996C1.90002 5.29996 2.90002 4.29996 3.70002 4.19996C3.70002 4.29996 4.20002 5.39996 3.20002 5.69996Z" />
</svg>
