<?xml version="1.0" encoding="utf-8"?>
<!-- Generator: Adobe Illustrator 24.0.2, SVG Export Plug-In . SVG Version: 6.00 Build 0)  -->
<svg version="1.1" id="Layer_1" xmlns="http://www.w3.org/2000/svg" xmlns:xlink="http://www.w3.org/1999/xlink" x="0px" y="0px"
	 viewBox="0 0 26 27" style="enable-background:new 0 0 26 27;" xml:space="preserve">
<style type="text/css">
	.st0{fill:#FFFFFF;stroke:#7D7C84;stroke-width:0.5;}
	.st1{fill:#7D7C84;}
</style>
<circle class="st0" cx="13" cy="13" r="11.8"/>
<path class="st1" d="M14.5,5.6c0.2,0.2,0.3,0.5,0.4,0.8c0,0.3,0,0.6-0.1,0.9S14.5,7.8,14.2,8s-0.6,0.3-0.9,0.3c-0.2,0-0.5,0-0.7-0.1
	C12.4,8.1,12.2,8,12,7.8s-0.3-0.4-0.4-0.6c-0.1-0.2-0.1-0.4-0.1-0.7c0-0.2,0.1-0.5,0.2-0.7c0.1-0.2,0.2-0.4,0.4-0.5S12.5,5,12.7,5
	c0.2,0,0.4,0,0.7,0c0.2,0,0.4,0.1,0.6,0.2C14.2,5.3,14.3,5.4,14.5,5.6L14.5,5.6z M6.6,13.6v-3.3L9,9.8v1.9H8.9
	c-0.7,0-1.3,0.5-1.3,1.1s0.6,1.1,1.3,1.1s1.3-0.5,1.3-1.1V8c0-0.1,0-0.1,0-0.2s-0.1-0.1-0.1-0.2l0,0C10,7.6,10,7.5,9.9,7.5
	c-0.1,0-0.1,0-0.2,0L5.8,8.4c-0.1,0-0.3,0.1-0.3,0.2C5.4,8.7,5.4,8.8,5.4,9v3.5H5.3C4.6,12.5,4,13,4,13.6s0.6,1.1,1.3,1.1
	S6.6,14.2,6.6,13.6z M18.9,15.2l-2.8,0.7L15,13.8L14.8,11l1.9,0.7c0.1,0.1,0.3,0.1,0.4,0c0.1,0,0.3-0.1,0.4-0.2l1.8-1.8
	c0.1-0.1,0.2-0.3,0.2-0.5s0-0.4-0.2-0.5c-0.1-0.1-0.2-0.1-0.2-0.2c-0.1,0-0.2-0.1-0.3-0.1c-0.1,0-0.2,0-0.3,0.1
	c-0.1,0-0.2,0.1-0.3,0.2l-1.5,1.5l-1.6-0.6c-0.2-0.1-0.4-0.1-0.6-0.1h-2.1c-0.3,0-0.6,0.1-0.8,0.3s-0.3,0.5-0.3,0.8v3.7L9.2,16
	c-0.1,0-0.2,0.2-0.3,0.4c-0.1,0.2-0.1,0.4,0,0.6l1.2,3.4c0,0.1,0.1,0.2,0.2,0.3c0.1,0.1,0.2,0.2,0.3,0.2C10.7,21,10.8,21,11,21
	c0.1,0,0.3,0,0.4,0c0.1,0,0.2-0.1,0.3-0.2s0.2-0.2,0.2-0.3c0-0.1,0.1-0.2,0.1-0.4c0-0.1,0-0.3-0.1-0.4l-1-2.7l2.6-1.6l1.4,2.1
	c0.1,0.2,0.3,0.3,0.4,0.4c0.2,0.1,0.4,0.1,0.6,0l3.4-0.9c0.2-0.1,0.4-0.2,0.6-0.4c0.1-0.2,0.2-0.5,0.1-0.7c0-0.1-0.1-0.2-0.1-0.3
	c-0.1-0.1-0.2-0.2-0.3-0.2s-0.2-0.1-0.3-0.1C19.1,15.1,19,15.2,18.9,15.2z"/>
</svg>
