<svg width="19" height="19" viewBox="0 0 19 19" fill="none" xmlns="http://www.w3.org/2000/svg">
<path d="M12.0908 1.23513C12.3094 1.50392 12.4483 1.82905 12.4917 2.17339C12.5351 2.51773 12.4813 2.8674 12.3363 3.18246C12.1914 3.49752 11.9611 3.76526 11.6719 3.95512C11.3827 4.14497 11.0462 4.24927 10.7008 4.25611C10.4488 4.26242 10.1983 4.21671 9.96465 4.12182C9.731 4.02693 9.51922 3.88488 9.34241 3.70445C9.1656 3.52402 9.02753 3.30905 8.93674 3.07286C8.84594 2.83666 8.80436 2.58426 8.81456 2.33126C8.82476 2.07827 8.88653 1.83008 8.99605 1.60203C9.10556 1.37399 9.26049 1.17095 9.45125 1.00548C9.642 0.840016 9.86453 0.71564 10.105 0.64005C10.3456 0.564461 10.599 0.539268 10.8496 0.566029C11.0902 0.589605 11.3238 0.660878 11.5369 0.775727C11.7499 0.890575 11.9382 1.04672 12.0908 1.23513ZM3.36239 10.1121V6.46579L5.96458 5.8842V7.96443H5.90288C5.099 7.96443 4.45117 8.52778 4.45117 9.22241C4.45117 9.91703 5.10626 10.4804 5.90288 10.4804C6.69951 10.4804 7.35459 9.91703 7.35459 9.22241V3.917C7.35625 3.83403 7.33953 3.75173 7.30564 3.67605C7.27174 3.60038 7.22152 3.53322 7.15861 3.47944C7.093 3.42778 7.01691 3.39121 6.93571 3.37231C6.8545 3.35341 6.77015 3.35264 6.68862 3.37005L2.49863 4.29622C2.34677 4.32928 2.21086 4.41383 2.11371 4.53567C2.01656 4.6575 1.9641 4.80921 1.96512 4.96532V8.85413H1.89617C1.09228 8.85413 0.444458 9.41749 0.444458 10.1121C0.444458 10.8067 1.09954 11.3683 1.89617 11.3683C2.69279 11.3683 3.36239 10.8049 3.36239 10.1121ZM16.9576 11.8696L13.8601 12.6718L12.6624 10.3619L12.4809 7.1914L14.5533 7.96443C14.7071 8.02202 14.8743 8.03338 15.0344 7.99712C15.1946 7.96086 15.3407 7.87855 15.4551 7.76023L17.4331 5.73652C17.5863 5.58521 17.6784 5.38224 17.6914 5.16676C17.7045 4.95128 17.6377 4.73858 17.5038 4.5697C17.4282 4.47867 17.3344 4.40456 17.2285 4.35214C17.1226 4.29973 17.007 4.27017 16.8891 4.26536C16.7711 4.26055 16.6535 4.2806 16.5437 4.32423C16.434 4.36785 16.3345 4.43408 16.2517 4.51865L14.6313 6.17773L12.8693 5.51956C12.6577 5.44145 12.4341 5.40134 12.2087 5.40106H9.9223C9.58156 5.40106 9.25478 5.53705 9.01384 5.77912C8.7729 6.0212 8.63754 6.34952 8.63754 6.69186V10.7685L6.28577 12.6828C6.1151 12.8132 5.98997 12.9947 5.92835 13.201C5.86673 13.4074 5.87179 13.6281 5.9428 13.8314L7.24934 17.5634C7.28382 17.7008 7.34644 17.8295 7.43321 17.9412C7.51998 18.053 7.629 18.1453 7.75329 18.2123C7.87758 18.2793 8.01441 18.3195 8.15505 18.3304C8.2957 18.3413 8.43705 18.3226 8.57009 18.2755C8.70313 18.2284 8.82493 18.1539 8.92771 18.0569C9.03049 17.9598 9.11199 17.8423 9.16701 17.7118C9.22202 17.5813 9.24934 17.4407 9.24723 17.299C9.24511 17.1573 9.2136 17.0176 9.15471 16.8888L8.10222 13.8551L10.9548 12.0319L12.5426 14.3893C12.6575 14.5714 12.8269 14.7122 13.0264 14.7915C13.226 14.8707 13.4454 14.8844 13.6532 14.8305L17.4258 13.8532C17.6869 13.7893 17.9134 13.6266 18.0581 13.3991C18.2028 13.1715 18.2545 12.8966 18.2025 12.6317C18.1726 12.4984 18.1163 12.3726 18.037 12.2616C17.9576 12.1506 17.8569 12.0568 17.7408 11.9857C17.6247 11.9146 17.4955 11.8677 17.3609 11.8477C17.2264 11.8278 17.0893 11.8353 16.9576 11.8696Z" fill="#686868"/>
</svg>
