<svg width="21" height="21" viewBox="0 0 21 21" fill="none" xmlns="http://www.w3.org/2000/svg">
<path d="M20 10.5C20 5.25329 15.7467 1 10.5 1C5.25329 1 1 5.25329 1 10.5C1 15.7467 5.25329 20 10.5 20C15.7467 20 20 15.7467 20 10.5Z" fill="#FFFFFF"/>
<path d="M10.5 4C8.50002 4 3.50002 4.25 4.00002 4.75L10 11V15C10 16 7.00002 15.5 7.00002 17H14C14 15.5 11 16 11 15V11L17 4.75C17.5 4.25 12.5 4 10.5 4ZM10.5 5C13 5 15.25 5.25 15.25 5.25L14.5 6H6.50002L5.75002 5.25C5.75002 5.25 8.00002 5 10.5 5Z" fill="white"/>
</svg>
