<svg width="18" height="17" viewBox="0 0 18 17" fill="none" xmlns="http://www.w3.org/2000/svg">
<path d="M3.8499 16.3255L3.84773 16.3285L3.8499 16.3255ZM3.8499 16.3255L3.85584 16.3231M3.8499 16.3255L3.85981 16.3214L3.85584 16.3231M3.8499 16.3255L3.85584 16.3231M3.8499 16.3255L3.85584 16.3231M11.351 5.54533L11.5264 5.89704L11.9155 5.95296L17.1572 6.70637L13.3697 10.3584L13.0833 10.6345L13.1513 11.0265L14.0476 16.1919L9.34605 13.7472L9.00004 13.5673L8.65404 13.7472L3.95247 16.1919L4.84876 11.0265L4.91678 10.6345L4.63039 10.3584L0.842905 6.70637L6.08462 5.95296L6.47365 5.89704L6.64907 5.54533L9.00004 0.831597L11.351 5.54533ZM14.1314 16.2503C14.1315 16.2503 14.1316 16.2503 14.1317 16.2503L14.1308 16.2504C14.131 16.2504 14.1312 16.2504 14.1314 16.2503ZM0.72628 6.59392C0.726301 6.59394 0.726322 6.59396 0.726344 6.59398L0.72628 6.59392ZM8.93884 0.708883C8.93874 0.708687 8.93864 0.70849 8.93855 0.708293L8.93884 0.708883Z" stroke="white" stroke-width="1.5"/>
</svg>
