<svg width="13" height="14" viewBox="0 0 13 14" fill="none" xmlns="http://www.w3.org/2000/svg">
<path d="M11.9167 1.07692H9.75V0H8.66667V1.07692H4.33333V0H3.25V1.07692H1.08333C0.4875 1.07692 0 1.56154 0 2.15385V12.9231C0 13.5154 0.4875 14 1.08333 14H11.9167C12.5125 14 13 13.5154 13 12.9231V2.15385C13 1.56154 12.5125 1.07692 11.9167 1.07692ZM11.9167 12.9231H1.08333V5.38462H11.9167V12.9231ZM11.9167 4.30769H1.08333V2.15385H3.25V3.23077H4.33333V2.15385H8.66667V3.23077H9.75V2.15385H11.9167V4.30769Z" fill="black"/>
</svg>
