<svg width="28" height="28" viewBox="0 0 28 28" fill="none" xmlns="http://www.w3.org/2000/svg">
<g clip-path="url(#clip0)">
<path d="M25 13.5C25 7.14873 19.8513 2 13.5 2C7.14873 2 2 7.14873 2 13.5C2 19.8513 7.14873 25 13.5 25C19.8513 25 25 19.8513 25 13.5Z" fill="#FC12ED" fill-opacity="0.2" stroke="#FC12ED" stroke-opacity="0.2" stroke-width="5" stroke-linejoin="round"/>
<path d="M25 13.5C25 7.14873 19.8513 2 13.5 2C7.14873 2 2 7.14873 2 13.5C2 19.8513 7.14873 25 13.5 25C19.8513 25 25 19.8513 25 13.5Z" fill="#593F6E"/>
<path d="M18.6045 9.12823C17.3202 8.03372 15.4101 8.23059 14.2312 9.44697L13.7695 9.92275L13.3077 9.44697C12.1312 8.23059 10.2187 8.03372 8.9344 9.12823C7.46255 10.3845 7.38521 12.6391 8.70237 14.0008L13.2374 18.6835C13.5304 18.9859 14.0062 18.9859 14.2991 18.6835L18.8342 14.0008C20.1537 12.6391 20.0764 10.3845 18.6045 9.12823V9.12823Z" fill="#F2F2F2"/>
</g>
<defs>
<clipPath id="clip0">
<rect width="28" height="28" fill="white"/>
</clipPath>
</defs>
</svg>
