<svg width="21" height="21" viewBox="0 0 21 21" fill="none" xmlns="http://www.w3.org/2000/svg">
<path d="M20 10.5C20 5.25329 15.7467 1 10.5 1C5.25329 1 1 5.25329 1 10.5C1 15.7467 5.25329 20 10.5 20C15.7467 20 20 15.7467 20 10.5Z" fill="#D337BC"/>
<path d="M17 10.5V12.5C17 12.7761 16.7761 13 16.5 13C16.2239 13 16 12.7761 16 12.5C16 12.5 16.06 12 15 12H14V14.5C14 14.7761 13.7761 15 13.5 15H5.5C5.2239 15 5 14.7761 5 14.5V10.5C5 10.2239 5.2239 10 5.5 10H13.5C13.7761 10 14 10.2239 14 10.5V11H15C16.06 11 16 10.5 16 10.5C16 10.2239 16.2239 10 16.5 10C16.7761 10 17 10.2239 17 10.5ZM7 6C5.8954 6 5 6.8954 5 8C5 9.1046 5.8954 10 7 10C8.1046 10 9 9.1046 9 8C9 6.8954 8.1046 6 7 6ZM7 9C6.4477 9 6 8.5523 6 8C6 7.4477 6.4477 7 7 7C7.5523 7 8 7.4477 8 8C8 8.5523 7.5523 9 7 9ZM11.5 5C10.1193 5 9 6.1193 9 7.5C9 8.8807 10.1193 10 11.5 10C12.8807 10 14 8.8807 14 7.5C14 6.1193 12.8807 5 11.5 5ZM11.5 9C10.6716 9 10 8.3284 10 7.5C10 6.6716 10.6716 6 11.5 6C12.3284 6 13 6.6716 13 7.5C13 8.3284 12.3284 9 11.5 9Z" fill="white"/>
</svg>
