<svg width="16" height="16" viewBox="0 0 16 16" fill="none" xmlns="http://www.w3.org/2000/svg">
<path d="M5.58729 14.7302C5.71428 14.8572 5.71428 14.9841 5.58729 15.2381L4.82539 15.873C4.6984 16 4.57142 16 4.31745 15.873L0.126976 11.3016C-7.7486e-06 11.0476 -7.7486e-06 10.9206 0.126976 10.7937L0.888881 10.1587C1.01587 9.90477 1.14285 9.90477 1.26983 10.1587L5.58729 14.7302Z" />
<path d="M11.0476 6.09518C11.1745 6.22217 11.1745 6.34915 11.0476 6.60312L6.47613 10.7936C6.34915 10.9206 6.09518 10.9206 5.9682 10.7936L4.82534 9.65074C4.69836 9.52375 4.69836 9.26978 4.82534 9.1428L9.39677 4.82534C9.52375 4.69836 9.77772 4.69836 9.90471 4.82534L11.0476 6.09518Z" />
<path d="M7.23808 13.2063C7.36507 13.3333 7.36507 13.4603 7.23808 13.7143L6.47618 14.3492C6.34919 14.4762 6.09522 14.4762 5.96824 14.3492L1.65078 9.77777C1.5238 9.65078 1.5238 9.5238 1.65078 9.26983L2.41268 8.63491C2.53967 8.50793 2.66665 8.50793 2.92062 8.63491L7.23808 13.2063Z" />
<path d="M14.3492 6.22221C14.4762 6.34919 14.4762 6.47618 14.3492 6.73015L13.5873 7.36507C13.4603 7.49205 13.3333 7.49205 13.0793 7.36507L8.76186 2.79364C8.63488 2.53967 8.63488 2.41268 8.76186 2.2857L9.52377 1.65078C9.65075 1.5238 9.90472 1.5238 10.0317 1.65078L14.3492 6.22221Z" />
<path d="M15.8731 4.6984C16 4.82539 16 5.07936 15.8731 5.20634L15.1112 5.84126C14.9842 5.96825 14.8572 5.96825 14.6032 5.84126L10.4127 1.26983C10.1588 1.14285 10.2858 1.01587 10.4127 0.761897L11.1746 0.126976C11.3016 -7.74488e-06 11.4286 -7.74488e-06 11.5556 0.126976L15.8731 4.6984Z" />
</svg>
