<?xml version="1.0" encoding="utf-8"?>
<!-- Generator: Adobe Illustrator 24.0.1, SVG Export Plug-In . SVG Version: 6.00 Build 0)  -->
<svg version="1.1" id="Layer_1" xmlns="http://www.w3.org/2000/svg" xmlns:xlink="http://www.w3.org/1999/xlink" x="0px" y="0px"
	 viewBox="0 0 21 21" style="enable-background:new 0 0 21 21;" xml:space="preserve">
<style type="text/css">
	.st0{fill:#444444;stroke:#7B7484;stroke-width:0.25;stroke-miterlimit:10;}
	.st1{fill:#FFFFFF;}
</style>
<path class="st0" d="M20,10.5C20,5.3,15.7,1,10.5,1C5.3,1,1,5.3,1,10.5c0,5.2,4.3,9.5,9.5,9.5C15.7,20,20,15.7,20,10.5z"/>
<path class="st1" d="M6.5,3l-1,5.5c-0.1,0.8,1.8,1.2,1.8,2L7,17c0,1,1,1,1,1s1,0,1-1l-0.3-6.5c0-0.8,1.7-1.2,1.8-2L9.5,3H9l0.3,4
	L8.5,7.5L8.3,3H7.8L7.5,7.5L6.8,7L7,3H6.5z M15,3c-0.7,0-2,0.7-2.5,1.6C12.1,5.4,12,7,12,8v2.5c0,0.8,1.1,1,1.5,1L13,17
	c-0.1,1,1,1,1,1s1,0,1-1V3z"/>
</svg>
