<svg width="18" height="18" viewBox="0 0 18 18" fill="none" xmlns="http://www.w3.org/2000/svg">
<g clip-path="url(#clip0)">
<path d="M5.03285 1L4.00046 6.5C3.89722 7.3 5.85876 7.7 5.85876 8.5L5.54904 15C5.54904 16 6.58143 16 6.58143 16C6.58143 16 7.61382 16 7.61382 15L7.3041 8.5C7.3041 7.7 9.05916 7.3 9.1624 6.5L8.13001 1H7.61382L7.92353 5L7.09762 5.5L6.89115 1H6.37495L6.06524 5.5L5.34256 5L5.54904 1H5.03285ZM13.8082 1C13.0855 1 11.7434 1.7 11.2272 2.6C10.8142 3.4 10.711 5 10.711 6V8.5C10.711 9.3 11.8466 9.5 12.2596 9.5L11.7434 15C11.6401 16 12.7758 16 12.7758 16C12.7758 16 13.8082 16 13.8082 15V1Z" fill="white"/>
</g>
<defs>
<clipPath id="clip0">
<rect x="4" y="1" width="9.80769" height="15" fill="white"/>
</clipPath>
</defs>
</svg>
