<svg width="15" height="15" viewBox="0 0 15 15" fill="none" xmlns="http://www.w3.org/2000/svg">
<g clip-path="url(#clip0)">
<path d="M3.9475 0L3.00013 5.13333C2.9054 5.88 4.7054 6.25333 4.7054 7L4.42119 13.0667C4.42119 14 5.36855 14 5.36855 14C5.36855 14 6.31592 14 6.31592 13.0667L6.03171 7C6.03171 6.25333 7.64224 5.88 7.73698 5.13333L6.78961 0H6.31592L6.60013 3.73333L5.84224 4.2L5.65277 0H5.17908L4.89487 4.2L4.23171 3.73333L4.42119 0H3.9475ZM12.0001 0C11.337 0 10.1054 0.653333 9.63171 1.49333C9.25277 2.24 9.15803 3.73333 9.15803 4.66667V7C9.15803 7.74667 10.2001 7.93333 10.5791 7.93333L10.1054 13.0667C10.0107 14 11.0528 14 11.0528 14C11.0528 14 12.0001 14 12.0001 13.0667V0Z" fill="white"/>
</g>
<defs>
<clipPath id="clip0">
<rect x="3" width="9" height="14" fill="white"/>
</clipPath>
</defs>
</svg>
