<svg width="10" height="15" viewBox="0 0 10 15" fill="none" xmlns="http://www.w3.org/2000/svg">
<g clip-path="url(#clip0)">
<path d="M1.00003 0L2.91013e-05 5.5C-0.0999709 6.3 1.80003 6.7 1.80003 7.5L1.50003 14C1.50003 15 2.50003 15 2.50003 15C2.50003 15 3.50003 15 3.50003 14L3.20003 7.5C3.20003 6.7 4.90003 6.3 5.00003 5.5L4.00003 0H3.50003L3.80003 4L3.00003 4.5L2.80003 0H2.30003L2.00003 4.5L1.30003 4L1.50003 0H1.00003ZM9.50003 0C8.80003 0 7.50003 0.7 7.00003 1.6C6.60003 2.4 6.50003 4 6.50003 5V7.5C6.50003 8.3 7.60003 8.5 8.00003 8.5L7.50003 14C7.40003 15 8.50003 15 8.50003 15C8.50003 15 9.50003 15 9.50003 14V0Z"/>
</g>
<defs>
<clipPath id="clip0">
<rect width="9.5" height="15" fill="white"/>
</clipPath>
</defs>
</svg>
