<svg width="15" height="15" viewBox="0 0 15 15" fill="none" xmlns="http://www.w3.org/2000/svg">
<g clip-path="url(#clip0)">
<path d="M4.73617 2L3.99933 6.03333C3.92565 6.62 5.32565 6.91333 5.32565 7.5L5.10459 12.2667C5.10459 13 5.84144 13 5.84144 13C5.84144 13 6.57828 13 6.57828 12.2667L6.35723 7.5C6.35723 6.91333 7.60986 6.62 7.68354 6.03333L6.9467 2H6.57828L6.79933 4.93333L6.20986 5.3L6.06249 2H5.69407L5.47302 5.3L4.95723 4.93333L5.10459 2H4.73617ZM10.9993 2C10.4835 2 9.52565 2.51333 9.15723 3.17333C8.86249 3.76 8.7888 4.93333 8.7888 5.66667V7.5C8.7888 8.08667 9.59933 8.23333 9.89407 8.23333L9.52565 12.2667C9.45196 13 10.2625 13 10.2625 13C10.2625 13 10.9993 13 10.9993 12.2667V2Z" fill="white"/>
</g>
<defs>
<clipPath id="clip0">
<rect x="4" y="2" width="7" height="11" fill="white"/>
</clipPath>
</defs>
</svg>
