<svg width="28" height="22" viewBox="0 0 28 22" fill="none" xmlns="http://www.w3.org/2000/svg">
<path d="M27.9947 7.09262C27.9763 7.24183 27.9082 7.38646 27.795 7.49971L14.4582 20.8365C14.3465 20.949 14.2065 21.014 14.0611 21.0354C13.9953 21.0438 13.9295 21.0438 13.8644 21.0347C13.719 21.0132 13.5798 20.9474 13.4688 20.8357L0.203213 7.49665C0.0914933 7.38416 0.0241557 7.24183 0.00579076 7.09262C-0.0148698 6.93269 0.0195644 6.76741 0.112154 6.62508L0.562095 5.9494H27.43L27.8799 6.61437C27.9366 6.69854 27.9733 6.79189 27.9894 6.88678C28.0016 6.95488 28.0031 7.02375 27.9947 7.09262V7.09262Z" fill="#31A7FB"/>
<path d="M27.9944 7.09228C27.9763 7.2418 27.9085 7.38642 27.7953 7.49959L14.458 20.8369C14.1848 21.1101 13.7411 21.1094 13.4686 20.8355L12.4262 19.7874L24.7139 7.49967C24.8271 7.3865 24.8949 7.24187 24.913 7.09235C24.9214 7.02387 24.92 6.95469 24.9081 6.88689C24.8921 6.79186 24.855 6.69896 24.7984 6.6144L20.5313 0.307046C20.5208 0.291665 20.5096 0.276284 20.4978 0.261669C20.4356 0.184766 20.3587 0.121942 20.2728 0.0771774H20.2721C20.175 0.0275921 20.0653 0.000350952 19.9528 0.000350952H23.0342C23.1467 0.000350952 23.2564 0.0275921 23.3535 0.0771774H23.3542C23.4401 0.121865 23.5171 0.184766 23.5792 0.261669C23.591 0.276361 23.6022 0.291741 23.6127 0.307046L27.8798 6.6144C27.9364 6.69896 27.9735 6.79186 27.9895 6.88689C28.0014 6.95461 28.0028 7.02379 27.9944 7.09228V7.09228Z" fill="#1C96F9"/>
<path d="M13.9634 0.000259584L10.3855 5.94943L9.24208 7.09226L8.0782 5.91859L4.57387 0.0791521C4.67166 0.0281129 4.78139 0.000183105 4.89594 0.000183105H13.9634V0.000259584Z" fill="#8DCAFC"/>
<path d="M23.3535 0.0770553L19.8273 5.94939L18.684 7.09223L17.5407 5.94939L13.9635 0.000228882H23.0343C23.1467 0.000228882 23.2564 0.02747 23.3535 0.0770553V0.0770553Z" fill="#8DCAFC"/>
<path d="M23.3535 0.0771011L21.8764 2.29558L20.5314 0.307046C20.5209 0.291665 20.5097 0.276284 20.4978 0.261669C20.4356 0.184766 20.3588 0.121942 20.2729 0.0771776H20.2722C20.1751 0.0275923 20.0654 0.000351113 19.9529 0.000351113H23.0343C23.1467 0.000274592 23.2563 0.0275158 23.3535 0.0771011V0.0771011Z" fill="#64B9FC"/>
<path d="M18.684 7.09254H9.24229L13.9632 0L18.684 7.09254Z" fill="#B5DBFD"/>
<path d="M27.9944 7.09225H18.6839L21.8764 2.29548L23.3534 0.0769958H23.3541C23.4401 0.121684 23.517 0.184584 23.5791 0.261487C23.591 0.276179 23.6021 0.29156 23.6126 0.306864L27.8797 6.61422C27.9363 6.69878 27.9734 6.79168 27.9894 6.88671C28.0014 6.95459 28.0028 7.02376 27.9944 7.09225Z" fill="#64B9FC"/>
<path d="M27.9944 7.09225H24.913C24.9214 7.02376 24.92 6.95459 24.9081 6.88679C24.892 6.79175 24.855 6.69886 24.7984 6.6143L21.8763 2.29548L23.3534 0.0769958H23.354C23.44 0.121684 23.5169 0.184584 23.579 0.261487C23.5909 0.276179 23.6021 0.29156 23.6125 0.306864L27.8796 6.61422C27.9362 6.69878 27.9733 6.79168 27.9894 6.88671C28.0014 6.95459 28.0028 7.02376 27.9944 7.09225V7.09225Z" fill="#31A7FB"/>
<path d="M18.6839 7.09222L14.0611 21.0353C13.9955 21.0437 13.9291 21.0437 13.8641 21.0346L9.24203 7.09222H18.6839Z" fill="#64B9FC"/>
<path d="M15.4913 16.7227L14.0611 21.0346V21.0354C13.9953 21.0438 13.9295 21.0438 13.8645 21.0346L13.1957 19.0176L15.4913 16.7227Z" fill="#31A7FB"/>
<path d="M9.24204 7.0922H0.00563108C-0.0146469 6.93288 0.0196344 6.76729 0.111842 6.62473L4.31534 0.309643C4.38169 0.210396 4.47114 0.132192 4.57391 0.0790863L9.24204 7.0922Z" fill="#64B9FC"/>
</svg>
