<?xml version="1.0" encoding="utf-8"?>
<!-- Generator: Adobe Illustrator 24.0.2, SVG Export Plug-In . SVG Version: 6.00 Build 0)  -->
<svg version="1.1" id="Layer_1" xmlns="http://www.w3.org/2000/svg" xmlns:xlink="http://www.w3.org/1999/xlink" x="0px" y="0px"
	 viewBox="0 0 21 21" style="enable-background:new 0 0 21 21;" xml:space="preserve">
<style type="text/css">
	.st0{fill:#FFFFFF;stroke:#7B7484;stroke-width:1.5;stroke-miterlimit:10;}
	.st1{fill:#FFFFFF;}
	.st2{fill:#7D7C84;}
</style>
<rect class="st0" width="21" height="21"/>
<path class="st1" d="M10.5,1L10.5,1c5.2,0,9.5,4.3,9.5,9.5l0,0c0,5.2-4.3,9.5-9.5,9.5l0,0C5.3,20,1,15.7,1,10.5l0,0
	C1,5.3,5.3,1,10.5,1z"/>
<path class="st2" d="M17.5,10v1h-1v2h-1v1H14v-3H7v3H5.5v-1h-1v-2h-1v-1h1V8h1V7H7v3h7V7h1.5v1h1v2H17.5z"/>
</svg>
