<svg width="18" height="18" viewBox="0 0 18 18" fill="none" xmlns="http://www.w3.org/2000/svg">
<path d="M6.22908 14.8349C6.34861 14.9544 6.34861 15.0739 6.22908 15.3129L5.51195 15.9106C5.39243 16.0301 5.27291 16.0301 5.03387 15.9106L1.08964 11.6078C0.97012 11.3687 0.97012 11.2492 1.08964 11.1297L1.80677 10.5321C1.9263 10.293 2.04582 10.293 2.16534 10.5321L6.22908 14.8349Z" fill="white"/>
<path d="M11.3685 6.70722C11.488 6.82675 11.488 6.94627 11.3685 7.18531L7.06573 11.1295C6.94621 11.2491 6.70716 11.2491 6.58764 11.1295L5.51194 10.0538C5.39242 9.93432 5.39242 9.69527 5.51194 9.57575L9.81473 5.512C9.93426 5.39248 10.1733 5.39248 10.2928 5.512L11.3685 6.70722Z" fill="white"/>
<path d="M7.78287 13.4005C7.90239 13.52 7.90239 13.6395 7.78287 13.8786L7.06574 14.4762C6.94622 14.5957 6.70717 14.5957 6.58765 14.4762L2.52391 10.1734C2.40438 10.0539 2.40438 9.93435 2.52391 9.69531L3.24104 9.0977C3.36056 8.97818 3.48008 8.97818 3.71913 9.0977L7.78287 13.4005Z" fill="white"/>
<path d="M14.4761 6.82676C14.5956 6.94628 14.5956 7.0658 14.4761 7.30485L13.759 7.90245C13.6395 8.02198 13.5199 8.02198 13.2809 7.90245L9.21714 3.59967C9.09762 3.36062 9.09762 3.2411 9.21714 3.12158L9.93428 2.52397C10.0538 2.40445 10.2928 2.40445 10.4124 2.52397L14.4761 6.82676Z" fill="white"/>
<path d="M15.9103 5.39243C16.0298 5.51195 16.0298 5.751 15.9103 5.87052L15.1932 6.46813C15.0737 6.58765 14.9542 6.58765 14.7151 6.46813L10.7709 2.16534C10.5318 2.04582 10.6514 1.9263 10.7709 1.68725L11.488 1.08964C11.6075 0.97012 11.7271 0.97012 11.8466 1.08964L15.9103 5.39243Z" fill="white"/>
</svg>
