<?xml version="1.0" encoding="utf-8"?>
<!-- Generator: Adobe Illustrator 24.0.2, SVG Export Plug-In . SVG Version: 6.00 Build 0)  -->
<svg version="1.1" id="Layer_1" xmlns="http://www.w3.org/2000/svg" xmlns:xlink="http://www.w3.org/1999/xlink" x="0px" y="0px"
	 viewBox="0 0 21 21" style="enable-background:new 0 0 21 21;" xml:space="preserve">
<style type="text/css">
	.st0{fill:none;}
	.st1{fill:#D1A639;}
	.st2{fill:#7D7C84;}
</style>
<title>building-15.svg</title>
<rect class="st0" width="21" height="21"/>
<path class="st1" d="M10.5,1L10.5,1c5.2,0,9.5,4.3,9.5,9.5l0,0c0,5.2-4.3,9.5-9.5,9.5l0,0C5.3,20,1,15.7,1,10.5l0,0
	C1,5.3,5.3,1,10.5,1z"/>
<path class="st2" d="M6,5v11h5v-3h3v3h1V5H6z M10,15H7v-2h3V15z M10,12H7v-2h3V12z M10,9H7V7h3V9z M14,12h-3v-2h3V12z M14,9h-3V7h3
	V9z"/>
</svg>
