<svg width="32" height="32" viewBox="0 0 32 32" fill="none" xmlns="http://www.w3.org/2000/svg">
<g clip-path="url(#clip0_414_2)">
<path d="M14.835 7.52136C12.9789 7.52136 11.5337 9.62084 10.9707 10.2902C10.8589 10.4275 10.7996 10.6001 10.8034 10.7771V17.4711C10.7858 17.8403 11.0709 18.154 11.4401 18.1716C11.6067 18.1795 11.7702 18.1251 11.8988 18.0187C12.6085 17.0658 13.6619 16.4272 14.835 16.2388C16.9801 16.2388 17.8017 18.1709 20.0381 18.1709C21.5515 18.0224 22.9918 17.4473 24.1914 16.5126C24.3849 16.3705 24.4981 16.1441 24.4956 15.9041V8.20597C24.5375 7.83872 24.2737 7.50691 23.9063 7.46507C23.7855 7.45138 23.663 7.47085 23.5524 7.52136C22.5159 8.31429 21.3151 8.86533 20.0381 9.134C17.8017 9.16443 17.0714 7.52136 14.835 7.52136ZM8.52136 9.04272C7.68111 9.04272 7 8.36161 7 7.52136C7 6.68111 7.68111 6 8.52136 6C9.36161 6 10.0427 6.68111 10.0427 7.52136C10.0427 8.36161 9.36161 9.04272 8.52136 9.04272ZM9.28204 10.5641V24.9866C9.28204 25.4066 8.94141 25.7472 8.52136 25.7472C8.10131 25.7472 7.76068 25.4066 7.76068 24.9866V10.5641C7.76068 10.144 8.10131 9.8034 8.52136 9.8034C8.94141 9.8034 9.28204 10.144 9.28204 10.5641Z" fill="black"/>
</g>
<defs>
<clipPath id="clip0_414_2">
<rect width="32" height="32" fill="white"/>
</clipPath>
</defs>
</svg>
