<svg fill="none" xmlns="http://www.w3.org/2000/svg">
  <path d="M6.78541 6.51009C6.78189 6.58193 6.7759 6.64776 6.7759 6.71359C6.76921 8.84658 6.72343 10.9802 6.77238 13.1122C6.80091 14.3583 5.69995 14.9645 4.78494 14.9979C4.38098 15.0126 3.99497 14.9511 3.63503 14.7553C2.98628 14.4021 2.80173 13.68 3.23493 13.0952C3.72695 12.4305 4.42993 12.1786 5.26182 12.21C5.43545 12.2167 5.60802 12.2551 5.80349 12.2818C5.80349 9.56003 5.80349 6.84158 5.80349 4.10643C8.2023 3.73717 10.5817 3.37093 12.9907 3C12.9907 3.09791 12.9907 3.16809 12.9907 3.23826C12.9907 6.16189 12.9735 9.08584 12.9999 12.0095C13.0094 13.0494 12.3258 13.6445 11.39 13.839C10.8476 13.952 10.3211 13.9112 9.82486 13.6412C9.22331 13.3137 9.03841 12.5692 9.40187 12.0065C9.88544 11.2576 11.0382 10.902 11.8532 11.1182C11.9088 11.1329 11.9655 11.145 12.0359 11.1617C12.0359 9.30272 12.0359 7.45745 12.0359 5.59648C10.2855 5.9009 8.54111 6.20432 6.78541 6.51009Z" fill="white"/>
</svg>
