<svg width="12" height="14" viewBox="0 0 12 14" fill="none" xmlns="http://www.w3.org/2000/svg">
<path d="M6.55784 9.19252V10.8831L7.58723 10.0378L7.96648 10.4076L6.55784 11.6755V14H5.25756C5.25756 9.77365 5.63681 10.8831 4.11982 8.6114C0.327335 9.82648 -1.51473 4.80768 1.51926 3.11714C1.57344 2.37753 2.27776 1.84924 3.03625 1.84924C4.174 -0.633747 7.74977 -0.633747 8.83333 1.95489C10.0253 1.16245 11.5423 2.3247 11.0546 3.64544C12.8425 5.49446 11.4339 9.13969 8.50826 8.76989C8.07484 9.35101 7.26216 9.56233 6.55784 9.19252ZM5.25756 9.29818V8.03028C5.04085 8.13594 4.82414 8.29442 4.6616 8.34725L5.25756 9.29818Z" />
</svg>
