<svg width="9" height="14" viewBox="0 0 9 14" fill="none" xmlns="http://www.w3.org/2000/svg">
<path d="M0 14V-3.39001e-07H3.00031V3.00093H6.00062V-3.39001e-07H9V14H0ZM1.99959 12.5009H3.00036V11.5009H1.99959V12.5009ZM4.0001 12.5009H4.9999V11.5009H4.0001V12.5009ZM6.00062 12.5009H7.00041V11.5009H6.00062V12.5009ZM1.99945 10.9989H3.00023V9.99893H1.99945V10.9989ZM3.99997 10.9989H4.99976V9.99893H3.99997V10.9989ZM6.00049 10.9989H7.00028V9.99893H6.00049V10.9989ZM1.99932 9.50093H3.0001V8.49995H1.99932V9.50093ZM3.99984 9.50093H4.99963V8.49995H3.99984V9.50093ZM6.00036 9.50093H7.00015V8.49995H6.00036V9.50093ZM1.99919 7.998H2.99996V7.00185H1.99919V7.998ZM3.9997 7.998H4.9995V7.00185H3.9997V7.998ZM6.00022 7.998H7.00001V7.00185H6.00022V7.998ZM1.99905 6.49987H2.99983V5.49888H1.99905V6.49987ZM3.99957 6.49987H4.99936V5.49888H3.99957V6.49987ZM6.00009 6.49987H6.99988V5.49888H6.00009V6.49987ZM1.99892 5.0008H2.9997V4.0008H1.99892V5.0008ZM3.99944 5.0008H4.99923V4.0008H3.99944V5.0008ZM5.99996 5.0008H6.99975V4.0008H5.99996V5.0008Z" fill="black"/>
</svg>
