<?xml version="1.0" encoding="utf-8"?>
<!-- Generator: Adobe Illustrator 24.0.1, SVG Export Plug-In . SVG Version: 6.00 Build 0)  -->
<svg version="1.1" id="Layer_1" xmlns="http://www.w3.org/2000/svg" xmlns:xlink="http://www.w3.org/1999/xlink" x="0px" y="0px"
	 viewBox="0 0 21 21" style="enable-background:new 0 0 21 21;" xml:space="preserve">
<style type="text/css">
	.st0{fill:none;stroke:#D337BC;stroke-width:0.5;stroke-miterlimit:10;}
	.st1{fill:#D224B6;}
</style>
<path class="st0" d="M19.8,10.5c0-5.2-4.3-9.5-9.5-9.5s-9.5,4.3-9.5,9.5S5.1,20,10.3,20S19.8,15.7,19.8,10.5z"/>
<path class="st1" d="M9.5,3.5L7.6,7.3L3.5,7.9C2.8,8,2.5,8.9,3,9.4l3,2.9l-0.7,4.1c-0.1,0.7,0.7,1.3,1.3,1l3.7-1.9l3.7,1.9
	c0.7,0.3,1.4-0.2,1.3-1l-0.7-4.1l3-2.9C18.1,8.9,17.8,8,17,7.9l-4.1-0.6l-1.8-3.7C10.8,2.9,9.8,2.9,9.5,3.5z"/>
</svg>
