<svg width="20" height="20" viewBox="0 0 20 20" fill="none" xmlns="http://www.w3.org/2000/svg">
<path d="M17.1653 8.06755H14.9607L14.3482 5.34533C14.2257 4.51683 13.4908 3.80669 12.6335 3.56996C12.266 3.45161 11.776 3.33325 11.4086 3.33325H8.59143C8.1015 3.33325 7.73404 3.45161 7.2441 3.56996C6.38671 3.80669 5.77428 4.51683 5.52932 5.34533L5.03937 8.06755H2.83465C2.4672 8.06755 2.22223 8.30426 2.22223 8.65934C2.22223 8.7777 2.22223 8.7777 2.22223 8.89605L4.54944 16.3526C4.79441 17.0627 5.52932 17.5361 6.26422 17.5361H13.6133C14.4707 17.5361 15.0831 17.0627 15.3281 16.2343L17.6553 8.7777C17.7778 8.42262 17.5328 8.18591 17.2879 8.06755H17.1653ZM6.38671 8.06755L6.87665 5.46369C6.99913 4.99025 7.36658 4.75354 7.73404 4.63519C7.97901 4.63519 8.34646 4.51683 8.59143 4.51683H11.2861C11.6536 4.51683 12.021 4.63519 12.266 4.63519C12.7559 4.75354 13.1233 5.10862 13.2459 5.46369L13.6133 8.06755H6.38671Z" fill="black"/>
</svg>
