<svg width="18" height="18" viewBox="0 0 18 18" fill="none" xmlns="http://www.w3.org/2000/svg">
<g clip-path="url(#clip0)">
<path d="M15.4488 7.26087H13.4646L12.9134 4.81087C12.8031 4.06522 12.1417 3.42609 11.3701 3.21304C11.0394 3.10652 10.5984 3 10.2677 3H7.73228C7.29134 3 6.96063 3.10652 6.51968 3.21304C5.74803 3.42609 5.19685 4.06522 4.97638 4.81087L4.53543 7.26087H2.55118C2.22047 7.26087 2 7.47391 2 7.79348C2 7.9 2 7.9 2 8.00652L4.09449 14.7174C4.31496 15.3565 4.97638 15.7826 5.63779 15.7826H12.252C13.0236 15.7826 13.5748 15.3565 13.7953 14.6109L15.8898 7.9C16 7.58043 15.7795 7.36739 15.5591 7.26087C15.5591 7.26087 15.4488 7.26087 15.4488 7.26087ZM5.74803 7.26087L6.18898 4.91739C6.29921 4.4913 6.62992 4.27826 6.96063 4.17174C7.1811 4.17174 7.51181 4.06522 7.73228 4.06522H10.1575C10.4882 4.06522 10.8189 4.17174 11.0394 4.17174C11.4803 4.27826 11.811 4.59783 11.9213 4.91739L12.252 7.26087H5.74803Z" fill="white"/>
</g>
<defs>
<clipPath id="clip0">
<path d="M2 3H16V15.7826H2V3Z" fill="white"/>
</clipPath>
</defs>
</svg>
