<svg width="26" height="27" viewBox="0 0 26 27" fill="none" xmlns="http://www.w3.org/2000/svg">
<circle cx="13" cy="13" r="11.75" fill="#D224B6" stroke="white" stroke-width="0.5"/>
<path d="M19.7143 16.2653C19.7143 16.2653 18.157 15.3837 16.236 15.3837C15.6661 15.3837 15.1296 15.462 14.6549 15.5713C15.359 15.1959 16.1623 14.6697 16.886 13.9562C18.6971 12.1709 19.3222 9.89274 19.3222 9.89274C19.3222 9.89274 17.0107 10.5086 15.1995 12.2939C14.6425 12.8431 14.1978 13.4389 13.8489 14.0007C14.1236 13.071 14.3478 11.9381 14.3478 10.7143C14.3478 7.55837 12.8571 5 12.8571 5C12.8571 5 11.3665 7.55837 11.3665 10.7143C11.3665 11.938 11.5907 13.0709 11.8652 14.0005C11.5162 13.4389 11.0716 12.8431 10.5146 12.294C8.7036 10.5087 6.39238 9.89257 6.39238 9.89257C6.39238 9.89257 7.01714 12.1711 8.82832 13.9562C9.55213 14.6697 10.3556 15.1961 11.0599 15.5713C10.585 15.462 10.0484 15.3837 9.47826 15.3837C7.55727 15.3837 6 16.2653 6 16.2653C6 16.2653 7.55727 17.1469 9.47826 17.1469C10.2874 17.1469 11.0299 16.9902 11.6207 16.8091C11.362 16.9724 11.0928 17.1731 10.8426 17.4198C9.93706 18.3123 9.62451 19.4514 9.62451 19.4514C9.62451 19.4514 10.7805 19.1433 11.6858 18.2508C12.0618 17.8802 12.3342 17.4681 12.5257 17.1115V21H13.1882V17.1122C13.3799 17.4686 13.6523 17.8807 14.0282 18.2513C14.9337 19.1438 16.0893 19.4519 16.0893 19.4519C16.0893 19.4519 15.7767 18.3125 14.8712 17.4201C14.6208 17.1731 14.3516 16.9724 14.0928 16.8091C14.6836 16.9902 15.4266 17.1471 16.2357 17.1471C18.157 17.1469 19.7143 16.2653 19.7143 16.2653ZM12.8571 16.4286H12.8345C12.8374 16.4204 12.8406 16.4119 12.8434 16.4042C12.8518 16.4194 12.8571 16.4286 12.8571 16.4286C12.8571 16.4286 12.8623 16.4194 12.8709 16.4046C12.8737 16.4122 12.8769 16.4206 12.8797 16.4286H12.8571Z" fill="white"/>
</svg>
