<svg width="20" height="20" viewBox="0 0 20 20" fill="none" xmlns="http://www.w3.org/2000/svg">
<g clip-path="url(#clip0)">
<path d="M19.9547 9.95465C19.9547 4.4318 15.4776 -0.0453491 9.95471 -0.0453491C4.43186 -0.0453491 -0.0452881 4.4318 -0.0452881 9.95465C-0.0452881 15.4775 4.43186 19.9547 9.95471 19.9547C15.4776 19.9547 19.9547 15.4775 19.9547 9.95465Z" fill="#444444"/>
<path d="M16 9.34146L10.2439 6.63415V5.5122H11V5H10.2439V4H9.7561V5H9V5.5122H9.7561V6.63415L5.73171 8.53659L4 9.34146V9.7561H5.7561V16H8.7561V12.2439H11.2439V16H14.2439V9.7561H16V9.34146Z" fill="white"/>
</g>
<defs>
<clipPath id="clip0">
<rect width="20" height="20" fill="white"/>
</clipPath>
</defs>
</svg>
