<svg width="21" height="21" viewBox="0 0 21 21" fill="none" xmlns="http://www.w3.org/2000/svg">
<path d="M20 10.5C20 5.25329 15.7467 1 10.5 1C5.25329 1 1 5.25329 1 10.5C1 15.7467 5.25329 20 10.5 20C15.7467 20 20 15.7467 20 10.5Z" fill="#444444"/>
<path d="M6.66 10.0016H5.03C5.11012 9.02235 5.45969 8.0844 6.04 7.29159C6.39039 8.15591 6.59972 9.07089 6.66 10.0016V10.0016ZM7.735 10.0016H10.075V5.03159C8.86485 5.13768 7.72468 5.64443 6.835 6.47159C7.36491 7.57737 7.67078 8.77707 7.735 10.0016V10.0016ZM10.925 5.03159V10.0016H13.265C13.3292 8.77707 13.6351 7.57737 14.165 6.47159C13.2753 5.64443 12.1351 5.13768 10.925 5.03159V5.03159ZM14.96 7.29159C14.6096 8.15591 14.4003 9.07089 14.34 10.0016H15.97C15.8899 9.02235 15.5403 8.0844 14.96 7.29159V7.29159ZM17 11.7516C16.9986 11.9501 16.9191 12.14 16.7787 12.2803C16.6384 12.4207 16.4485 12.5001 16.25 12.5016H14.72L13.96 14.0216V16.4016C13.9578 16.4768 13.934 16.5498 13.8915 16.6119C13.8489 16.6739 13.7894 16.7224 13.72 16.7516C13.6743 16.7639 13.6273 16.7706 13.58 16.7716C13.5312 16.7738 13.4825 16.7651 13.4375 16.746C13.3925 16.727 13.3524 16.6982 13.32 16.6616L12.3 15.6516L10.71 16.7116C10.647 16.7508 10.5742 16.7716 10.5 16.7716C10.4258 16.7716 10.353 16.7508 10.29 16.7116L8.7 15.6516L7.68 16.6616C7.62956 16.7142 7.56471 16.7509 7.49357 16.7669C7.42242 16.7829 7.34814 16.7776 7.28 16.7516C7.21062 16.7224 7.1511 16.6739 7.10854 16.6119C7.06598 16.5498 7.04219 16.4768 7.04 16.4016V14.0216L6.28 12.5016H4.75C4.55109 12.5016 4.36032 12.4226 4.21967 12.2819C4.07902 12.1413 4 11.9505 4 11.7516C4 11.5527 4.07902 11.3619 4.21967 11.2213C4.36032 11.0806 4.55109 11.0016 4.75 11.0016H16.25C16.3484 11.0015 16.4458 11.0207 16.5368 11.0583C16.6277 11.0958 16.7104 11.1509 16.7801 11.2204C16.8497 11.2899 16.905 11.3724 16.9427 11.4633C16.9805 11.5542 16.9999 11.6516 17 11.75V11.7516ZM9.86 12.5016H7.12L7.75 13.7716C7.77719 13.8205 7.79099 13.8757 7.79 13.9316V15.4916L8.35 14.9416L9.86 12.5016ZM11.84 15.0516L10.5 12.8916L9.16 15.0516L10.5 15.9516L11.84 15.0516ZM13.89 12.5016H11.14L12.65 14.9416L13.21 15.4916V13.9316C13.209 13.8757 13.2228 13.8205 13.25 13.7716L13.89 12.5016Z" fill="white"/>
</svg>
