<svg width="21" height="21" viewBox="0 0 21 21" fill="none" xmlns="http://www.w3.org/2000/svg">
<path d="M6.27385 9.11694H4.26769C4.3663 7.9117 4.79654 6.7573 5.51077 5.78154C5.94202 6.84532 6.19966 7.97145 6.27385 9.11694ZM7.59692 9.11694H10.4769V3C8.98751 3.13057 7.58422 3.75426 6.48923 4.77231C7.14143 6.13327 7.51788 7.60982 7.59692 9.11694ZM11.5231 3V9.11694H14.4031C14.4821 7.60982 14.8586 6.13327 15.5108 4.77231C14.4158 3.75426 13.0124 3.13057 11.5231 3ZM16.4892 5.78154C16.058 6.84532 15.8004 7.97145 15.7262 9.11694H17.7323C17.6337 7.9117 17.2034 6.7573 16.4892 5.78154ZM19 11.2708C18.9983 11.5151 18.9004 11.7488 18.7276 11.9215C18.555 12.0943 18.3212 12.192 18.0769 12.1939H16.1938L15.2585 14.0646V16.9939C15.2558 17.0864 15.2265 17.1763 15.1742 17.2527C15.1217 17.329 15.0485 17.3887 14.9631 17.4246C14.9068 17.4398 14.849 17.448 14.7908 17.4492C14.7307 17.452 14.6708 17.4412 14.6154 17.4177C14.56 17.3944 14.5106 17.3589 14.4708 17.3139L13.2154 16.0708L11.2585 17.3754C11.1809 17.4236 11.0913 17.4492 11 17.4492C10.9087 17.4492 10.8191 17.4236 10.7415 17.3754L8.78462 16.0708L7.52923 17.3139C7.46715 17.3786 7.38734 17.4238 7.29978 17.4435C7.21221 17.4631 7.12079 17.4566 7.03692 17.4246C6.95153 17.3887 6.87828 17.329 6.8259 17.2527C6.77351 17.1763 6.74423 17.0864 6.74154 16.9939V14.0646L5.80615 12.1939H3.92308C3.67826 12.1939 3.44347 12.0966 3.27036 11.9235C3.09726 11.7504 3 11.5156 3 11.2708C3 11.026 3.09726 10.7912 3.27036 10.6181C3.44347 10.4449 3.67826 10.3477 3.92308 10.3477H18.0769C18.198 10.3476 18.3179 10.3712 18.4299 10.4175C18.5418 10.4636 18.6436 10.5315 18.7294 10.617C18.815 10.7025 18.8831 10.8041 18.9295 10.916C18.976 11.0278 18.9999 11.1477 19 11.2688V11.2708ZM10.2123 12.1939H6.84L7.61538 13.7569C7.64885 13.8171 7.66583 13.8851 7.66462 13.9539V15.8739L8.35385 15.1969L10.2123 12.1939ZM12.6492 15.3323L11 12.6739L9.35077 15.3323L11 16.44L12.6492 15.3323ZM15.1723 12.1939H11.7877L13.6462 15.1969L14.3354 15.8739V13.9539C14.3342 13.8851 14.3511 13.8171 14.3846 13.7569L15.1723 12.1939Z" fill="black"/>
</svg>