<svg width="75" height="53" viewBox="0 0 75 53" fill="none" xmlns="http://www.w3.org/2000/svg">
<path d="M32.3005 52V48.9678L34.8005 44.9541H33.7995L31.9001 48.084H31.822L29.9225 44.9541H28.9216L31.4216 48.9678V52H32.3005ZM37.3863 52.0928C38.8853 52.0928 39.813 51.0576 39.813 49.3682C39.813 47.6738 38.8853 46.6436 37.3863 46.6436C35.8873 46.6436 34.9595 47.6738 34.9595 49.3682C34.9595 51.0576 35.8873 52.0928 37.3863 52.0928ZM37.3863 51.3359C36.3902 51.3359 35.8287 50.6133 35.8287 49.3682C35.8287 48.1182 36.3902 47.4004 37.3863 47.4004C38.3824 47.4004 38.9439 48.1182 38.9439 49.3682C38.9439 50.6133 38.3824 51.3359 37.3863 51.3359ZM45.5092 46.7363H44.6694V49.8516C44.6694 50.7744 44.1616 51.3262 43.2338 51.3262C42.394 51.3262 42.0424 50.8867 42.0424 49.9395V46.7363H41.2026V50.1445C41.2026 51.3896 41.8178 52.0928 42.9995 52.0928C43.8051 52.0928 44.3666 51.7607 44.6303 51.1748H44.7084V52H45.5092V46.7363Z" fill="#8A8A8F"/>
<path d="M37.5411 13.4506C40.7271 13.4506 43.3099 10.8678 43.3099 7.68175C43.3099 4.49571 40.7271 1.9129 37.5411 1.9129C34.355 1.9129 31.7722 4.49571 31.7722 7.68175C31.7722 10.8678 34.355 13.4506 37.5411 13.4506Z" stroke="black" stroke-width="2.5" stroke-miterlimit="10"/>
<path d="M49.0787 31.9129V23.207C49.0787 20.3686 46.7771 18.0637 43.9355 18.0637H31.1432C28.3049 18.0637 26 20.3653 26 23.207V31.9096" stroke="black" stroke-width="2.5" stroke-miterlimit="10"/>
</svg>
