<svg width="24" height="24" viewBox="0 0 24 24" fill="none" xmlns="http://www.w3.org/2000/svg">
<circle cx="12" cy="12" r="11.5" fill="#006E59" stroke="white"/>
<path d="M13.266 6.81209C14.0645 6.81209 14.7122 6.1823 14.7122 5.40604C14.7122 4.62979 14.0645 4 13.266 4C12.4676 4 11.8199 4.62979 11.8199 5.40604C11.8199 6.1823 12.4676 6.81209 13.266 6.81209ZM16.1132 11.1796L15.4112 10.834L15.119 9.97276C14.6761 8.66631 13.4408 7.75238 12.0398 7.74945C10.9552 7.74652 10.3556 8.04531 9.22878 8.48762C8.578 8.74247 8.04472 9.2258 7.73138 9.84094L7.52951 10.2393C7.29451 10.7021 7.48432 11.2646 7.95734 11.496C8.42735 11.7274 8.9998 11.5399 9.23782 11.0771L9.43968 10.6787C9.54513 10.4737 9.71988 10.3126 9.93681 10.2276L10.7443 9.91124L10.2863 11.6893C10.1296 12.2986 10.2984 12.946 10.7352 13.4117L12.5399 15.3274C12.7569 15.5589 12.9105 15.8371 12.9889 16.1388L13.5402 18.286C13.6698 18.7869 14.194 19.0945 14.7092 18.9685C15.2244 18.8426 15.5408 18.3329 15.4112 17.832L14.7424 15.2249C14.664 14.9232 14.5104 14.642 14.2934 14.4135L12.9226 12.9577L13.4408 10.9453L13.6065 11.4286C13.7662 11.9002 14.1097 12.2898 14.5616 12.5124L15.2636 12.8581C15.7336 13.0895 16.306 12.902 16.5441 12.4392C16.7761 11.9793 16.5862 11.411 16.1132 11.1796V11.1796ZM9.21673 15.3011C9.12032 15.5383 8.9757 15.7522 8.7889 15.9309L7.28246 17.3984C6.90585 17.7646 6.90585 18.3592 7.28246 18.7254C7.65907 19.0915 8.26767 19.0915 8.64428 18.7254L10.4339 16.9854C10.6177 16.8067 10.7623 16.5929 10.8618 16.3556L11.2685 15.3655C9.60238 13.5992 10.1025 14.1411 9.8404 13.7925L9.21673 15.3011V15.3011Z" fill="white"/>
</svg>
