<svg xmlns="http://www.w3.org/2000/svg" viewBox="0 0 25 25" height="25" width="25"><title>art-gallery-11.svg</title><rect fill="none" x="0" y="0" width="25" height="25"></rect><rect x="3" y="3" rx="9.5" ry="9.5" width="19" height="19" stroke="rgba(252,18,237,0.2)" style="stroke-linejoin:round;stroke-miterlimit:4;" fill="rgba(252,18,237,0.2)" stroke-width="6"></rect><rect x="3" y="3" width="19" height="19" rx="9.5" ry="9.5" fill="#623f6e"></rect><path fill="#ffffff" transform="translate(7 7)" d="M8.21,3L5.85,0.65C5.6555,0.4539,5.339,0.4526,5.1429,0.6471C5.1419,0.6481,5.141,0.649,5.14,0.65L2.79,3H1.5
	C1.2239,3,1,3.2239,1,3.5v6C1,9.7761,1.2239,10,1.5,10h8C9.7761,10,10,9.7761,10,9.5v-6C10,3.2239,9.7761,3,9.5,3H8.21z M5.5,1.71
	L6.79,3H4.21L5.5,1.71z M9,9H2V4h7V9z M4.5,5.5C4.5,5.7761,4.2761,6,4,6S3.5,5.7761,3.5,5.5S3.7239,5,4,5S4.5,5.2239,4.5,5.5z M8,8
	H4l0.75-1.5l0.5,1L6.5,5L8,8z"></path></svg>