<svg xmlns="http://www.w3.org/2000/svg" viewBox="0 0 32 32" height="32" width="32"><title>arts.svg</title><rect fill="none" x="0" y="0" width="32" height="32"></rect><rect x="3" y="3" rx="13" ry="13" width="26" height="26" stroke="rgba(252,18,237,0.2)" style="stroke-linejoin:round;stroke-miterlimit:4;" fill="rgba(252,18,237,0.2)" stroke-width="6"></rect><rect x="3" y="3" width="26" height="26" rx="13" ry="13" fill="#623f6e"></rect><path fill="#ffffff" transform="translate(7 7)" d="M15.3598 6.38462C14.9329 5.5436 14.3401 4.88206 13.5813 4.4C12.8225 3.91794 11.9736 3.56409 11.0346 3.33846C10.0955 3.11283 9.04744 3 7.89024 3C7.01761 3 6.19715 3.17437 5.42886 3.52308C4.66057 3.87178 4.03455 4.30255 3.55081 4.81538C3.06707 5.32822 2.68768 5.85129 2.4126 6.38462C2.13752 6.91794 2 7.38975 2 7.8C2 8.64102 2.18971 9.31794 2.56911 9.83077C2.9485 10.3436 3.49865 10.6 4.21951 10.6C4.97833 10.6 5.53321 10.7179 5.88415 10.9538C6.23509 11.1898 6.41057 11.6051 6.41057 12.2C6.41057 13 6.65719 13.6667 7.15041 14.2C7.64362 14.7333 8.26016 15 9 15C11.2574 15 12.9885 14.4462 14.1931 13.3385C15.3977 12.2308 16 10.9179 16 9.4C16 8.23077 15.7866 7.22563 15.3598 6.38462ZM5.05894 8.70769C4.87874 8.90255 4.66057 9 4.40447 9C4.14837 9 3.93021 8.90255 3.75 8.70769C3.56979 8.51283 3.47967 8.27692 3.47967 8C3.47967 7.72308 3.56979 7.48717 3.75 7.29231C3.93021 7.09745 4.14837 7 4.40447 7C4.66057 7 4.87874 7.09745 5.05894 7.29231C5.23915 7.48717 5.32927 7.72308 5.32927 8C5.32927 8.27692 5.23915 8.51283 5.05894 8.70769ZM6.96545 6.6C6.70935 6.6 6.49594 6.50255 6.3252 6.30769C6.15447 6.11283 6.06911 5.87692 6.06911 5.6C6.06911 5.32308 6.15447 5.08717 6.3252 4.89231C6.49594 4.69745 6.70935 4.6 6.96545 4.6C7.22154 4.6 7.43971 4.69745 7.61992 4.89231C7.80013 5.08717 7.89024 5.32308 7.89024 5.6C7.89024 5.87692 7.80013 6.11283 7.61992 6.30769C7.43971 6.50255 7.22154 6.6 6.96545 6.6ZM9.78252 13.0462C9.56433 13.2821 9.3035 13.4 9 13.4C8.69647 13.4 8.43565 13.2821 8.21748 13.0462C7.99931 12.8102 7.89024 12.5282 7.89024 12.2C7.89024 11.8718 7.99931 11.5897 8.21748 11.3538C8.43565 11.1179 8.6965 11 9 11C9.30353 11 9.56435 11.1179 9.78252 11.3538C10.0007 11.5898 10.1098 11.8718 10.1098 12.2C10.1098 12.5282 10.0007 12.8102 9.78252 13.0462ZM10.5793 6.30769C10.3991 6.50255 10.1809 6.6 9.9248 6.6C9.6687 6.6 9.45053 6.50255 9.27033 6.30769C9.09012 6.11283 9 5.87692 9 5.6C9 5.32308 9.09012 5.08717 9.27033 4.89231C9.45053 4.69745 9.6687 4.6 9.9248 4.6C10.1809 4.6 10.3991 4.69745 10.5793 4.89231C10.7595 5.08717 10.8496 5.32308 10.8496 5.6C10.8496 5.87692 10.7595 6.11283 10.5793 6.30769ZM13.5102 7.90769C13.33 8.10255 13.1118 8.2 12.8557 8.2C12.5996 8.2 12.3814 8.10255 12.2012 7.90769C12.021 7.71283 11.9309 7.47692 11.9309 7.2C11.9309 6.92308 12.021 6.68717 12.2012 6.49231C12.3814 6.29745 12.5996 6.2 12.8557 6.2C13.1118 6.2 13.33 6.29745 13.5102 6.49231C13.6904 6.68717 13.7805 6.92308 13.7805 7.2C13.7805 7.47692 13.6904 7.71283 13.5102 7.90769Z"></path></svg>