<svg xmlns="http://www.w3.org/2000/svg" viewBox="0 0 24 24" height="24" width="24"><title>bakery-11.svg</title><rect fill="none" x="0" y="0" width="24" height="24"></rect><rect x="2" y="2" rx="9.5" ry="9.5" width="19" height="19" stroke="rgba(252,18,237,0.2)" style="stroke-linejoin:round;stroke-miterlimit:4;" fill="rgba(252,18,237,0.2)" stroke-width="5"></rect><rect x="2" y="2" width="19" height="19" rx="9.5" ry="9.5" fill="#593f6e"></rect><path fill="#fff" transform="translate(6 6)" d="M4.5,2c-1,0-1,1-1,1L5,7.5
	C5,7.5,5,8,5.5,8S6,7.5,6,7.5L7.5,3c0,0,0-1-1-1H4.5z M9,3.5l-2,4h1.5l1,1H10c1,0,1-0.9,1-0.9V6.3L9,3.5z M0,6.3v1.2
	c0,0,0.0296,1.0097,1,1c0.9704-0.0097,0.5,0,0.5,0l1-1H4l-2-4L0,6.3z"></path></svg>