<svg xmlns="http://www.w3.org/2000/svg" viewBox="0 0 24 24" height="24" width="24"><title>bar-11.svg</title><rect fill="none" x="0" y="0" width="24" height="24"></rect><rect x="2" y="2" rx="9.5" ry="9.5" width="19" height="19" stroke="rgba(252,18,237,0.2)" style="stroke-linejoin:round;stroke-miterlimit:4;" fill="rgba(252,18,237,0.2)" stroke-width="5"></rect><rect x="2" y="2" width="19" height="19" rx="9.5" ry="9.5" fill="#593f6e"></rect><path fill="#ffffff" transform="translate(6 6)" d="M5.4883,1C4.9759,1,0.5,1,1,1.5L5,6v2.5C5,9,2.5,9,2.5,10h6
	C8.5,9,6,9,6,8.5V6l4-4.5C10.5,1,6.0006,1,5.4883,1z M2.5,2h6l-1,1h-4L2.5,2z"></path></svg>