<svg xmlns="http://www.w3.org/2000/svg" viewBox="0 0 28 28" height="28" width="28"><title>bar-15.svg</title><rect fill="none" x="0" y="0" width="28" height="28"></rect><rect x="2" y="2" rx="11.5" ry="11.5" width="23" height="23" stroke="rgba(252,18,237,0.2)" style="stroke-linejoin:round;stroke-miterlimit:4;" fill="rgba(252,18,237,0.2)" stroke-width="5"></rect><rect x="2" y="2" width="23" height="23" rx="11.5" ry="11.5" fill="#593f6e"></rect><path fill="#ffffff" transform="translate(6 6)" d="M7.5,1c-2,0-7,0.25-6.5,0.75L7,8v4
	c0,1-3,0.5-3,2h7c0-1.5-3-1-3-2V8l6-6.25C14.5,1.25,9.5,1,7.5,1z M7.5,2c2.5,0,4.75,0.25,4.75,0.25L11.5,3h-8L2.75,2.25
	C2.75,2.25,5,2,7.5,2z"></path></svg>