<?xml version="1.0" encoding="utf-8"?>
<!-- Generator: Adobe Illustrator 24.0.2, SVG Export Plug-In . SVG Version: 6.00 Build 0)  -->
<svg version="1.1" id="Layer_1" xmlns="http://www.w3.org/2000/svg" xmlns:xlink="http://www.w3.org/1999/xlink" x="0px" y="0px"
	 viewBox="0 0 28 28" style="enable-background:new 0 0 28 28;" xml:space="preserve">
<style type="text/css">
	.st0{fill:none;}
	.st1{fill:#593F6E;}
	.st2{fill:#FFFFFF;}
</style>
<title>cafe-15.svg</title>
<rect class="st0" width="28" height="28"/>
<path d="M13.5,2L13.5,2C19.9,2,25,7.1,25,13.5l0,0C25,19.9,19.9,25,13.5,25l0,0C7.1,25,2,19.9,2,13.5l0,0C2,7.1,7.1,2,13.5,2z"/>
<path class="st1" d="M13.5,2L13.5,2C19.9,2,25,7.1,25,13.5l0,0C25,19.9,19.9,25,13.5,25l0,0C7.1,25,2,19.9,2,13.5l0,0
	C2,7.1,7.1,2,13.5,2z"/>
<path class="st2" d="M19,11h-2V9H9v4c0,2.2,1.8,4,4,4c1.4,0,2.7-0.8,3.4-2H19c1.1,0,2-0.9,2-2S20.1,11,19,11z M19,14h-2.1
	c0.1-0.3,0.1-0.7,0.1-1v-1h2c0.6,0,1,0.4,1,1S19.6,14,19,14z M17,18.5c0,0.3-0.2,0.5-0.5,0.5h-7C9.2,19,9,18.8,9,18.5S9.2,18,9.5,18
	h7C16.8,18,17,18.2,17,18.5z"/>
</svg>
