<svg xmlns="http://www.w3.org/2000/svg" viewBox="0 0 24 24" height="24" width="24"><title>cafe-11.svg</title><rect fill="none" x="0" y="0" width="24" height="24"></rect><rect x="2" y="2" rx="9.5" ry="9.5" width="19" height="19" stroke="rgba(252,18,237,0.2)" style="stroke-linejoin:round;stroke-miterlimit:4;" fill="rgba(252,18,237,0.2)" stroke-width="5"></rect><rect x="2" y="2" width="19" height="19" rx="9.5" ry="9.5" fill="#593f6e"></rect><path fill="#ffffff" transform="translate(6 6)" d="M7,9.5C7,9.7761,6.7761,10,6.5,10h-4C2.2239,10,2,9.7761,2,9.5S2.2239,9,2.5,9h4C6.7761,9,7,9.2239,7,9.5z M8,3H7V2H2v4
	c0.0016,1.3807,1.1222,2.4987,2.5029,2.4971C5.4948,8.4959,6.3921,7.9085,6.79,7H8c1.1046,0,2-0.8954,2-2S9.1046,3,8,3z M8,6H7V4h1
	c0.5523,0,1,0.4477,1,1S8.5523,6,8,6z"></path></svg>