<svg xmlns="http://www.w3.org/2000/svg" viewBox="0 0 28 28" height="28" width="28"><title>campsite-15.svg</title><rect fill="none" x="0" y="0" width="28" height="28"></rect><rect x="2" y="2" rx="11.5" ry="11.5" width="23" height="23" stroke="rgba(79,196,88,0.2)" style="stroke-linejoin:round;stroke-miterlimit:4;" fill="rgba(79,196,88,0.2)" stroke-width="5"></rect><rect x="2" y="2" width="23" height="23" rx="11.5" ry="11.5" fill="#3f6e57"></rect><path fill="#fff" transform="translate(6 6)" d="M7,1.5
	l-5.5,9H1c-1,0-1,1-1,1v1c0,0,0,1,1,1h13c1,0,1-1,1-1v-1c0,0,0-1-1-1h-0.5L8,1.5C7.8,1.1,7.2,1.1,7,1.5z M7.5,5l3.2,5.5H4.2L7.5,5z"></path></svg>