<svg xmlns="http://www.w3.org/2000/svg" viewBox="0 0 24 24" height="24" width="24"><title>confectionery-11.svg</title><rect fill="none" x="0" y="0" width="24" height="24"></rect><rect x="2" y="2" rx="9.5" ry="9.5" width="19" height="19" stroke="rgba(252,18,237,0.2)" style="stroke-linejoin:round;stroke-miterlimit:4;" fill="rgba(252,18,237,0.2)" stroke-width="5"></rect><rect x="2" y="2" width="19" height="19" rx="9.5" ry="9.5" fill="#593f6e"></rect><path fill="#fff" transform="translate(6 6)" d="M9.2407,2.513a.7461.7461,0,0,0-.7461-.7461.7461.7461,0,1,0-1.4922,0V3.5132A2.4888,2.4888,0,0,0,3.5113,7H1.7485a.7461.7461,0,0,0,0,1.4922.7461.7461,0,0,0,.7461.7461.7461.7461,0,0,0,1.4922,0V7.4778A2.4887,2.4887,0,0,0,7.493,4.0052H9.2407a.7461.7461,0,0,0,0-1.4922ZM5.5,7.2842a1.7824,1.7824,0,0,1-.72-3.4135.8158.8158,0,0,1,.2438.1772A1.6481,1.6481,0,0,1,5.3252,5.124v.7373a1.9718,1.9718,0,0,0,.3877,1.3213,1.1554,1.1554,0,0,0,.0958.07A1.7759,1.7759,0,0,1,5.5,7.2842Zm.72-.1549a.8158.8158,0,0,1-.2438-.1772A1.6481,1.6481,0,0,1,5.6748,5.876V5.1387a1.9718,1.9718,0,0,0-.3877-1.3213,1.1554,1.1554,0,0,0-.0958-.07A1.78,1.78,0,0,1,6.22,7.1293Z"></path></svg>