<svg xmlns="http://www.w3.org/2000/svg" viewBox="0 0 25 25" height="25" width="25"><title>drinking.svg</title><rect fill="none" x="0" y="0" width="25" height="25"></rect><rect x="2" y="2" rx="10" ry="10" width="20" height="20" stroke="rgba(252,18,237,0.2)" style="stroke-linejoin:round;stroke-miterlimit:4;" fill="rgba(252,18,237,0.2)" stroke-width="5"></rect><rect x="2" y="2" width="20" height="20" rx="10" ry="10" fill="#593f6e"></rect><path fill="#ffffff" transform="translate(6 6)" d="M5.7391 1.56519C4.46168 1.56519 1.26814 1.75783 1.5875 2.0789L5.41974 6.06017V8.62873C5.41974 9.27087 3.50362 8.9498 3.50362 9.91301H7.97457C7.97457 8.9498 6.05845 9.27087 6.05845 8.62873V6.06017L9.8907 2.01468C10.2101 1.75783 7.01651 1.56519 5.7391 1.56519ZM5.7391 2.20733C7.33587 2.20733 8.74102 2.39997 8.74102 2.39997L8.29393 2.84947H3.18427L2.73717 2.39997C2.73717 2.39997 4.14233 2.20733 5.7391 2.20733Z"></path></svg>