<?xml version="1.0" encoding="utf-8"?>
<!-- Generator: Adobe Illustrator 24.0.2, SVG Export Plug-In . SVG Version: 6.00 Build 0)  -->
<svg version="1.1" id="Layer_1" xmlns="http://www.w3.org/2000/svg" xmlns:xlink="http://www.w3.org/1999/xlink" x="0px" y="0px"
	 viewBox="0 0 29 29" style="enable-background:new 0 0 29 29;" xml:space="preserve">
<style type="text/css">
	.st0{fill:none;}
	.st1{fill:#623F6E;}
	.st2{fill:#FFFFFF;}
</style>
<title>museum-15.svg</title>
<rect class="st0" width="29" height="29"/>
<path d="M14.5,3L14.5,3C20.9,3,26,8.1,26,14.5l0,0C26,20.9,20.9,26,14.5,26l0,0C8.1,26,3,20.9,3,14.5l0,0C3,8.1,8.1,3,14.5,3z"/>
<path class="st1" d="M14.5,3L14.5,3C20.9,3,26,8.1,26,14.5l0,0C26,20.9,20.9,26,14.5,26l0,0C8.1,26,3,20.9,3,14.5l0,0
	C3,8.1,8.1,3,14.5,3z"/>
<path id="rect6507" class="st2" d="M7.4,9C7.1,9,6.9,9.2,6.9,9.5V17v2c0,0.3,0.2,0.5,0.5,0.5c0.3,0,0.5-0.2,0.5-0.5v-1.5h13V19
	c0,0.3,0.2,0.5,0.5,0.5c0.3,0,0.5-0.2,0.5-0.5v-2c0-0.3-0.2-0.5-0.5-0.5H7.9v-7C7.9,9.2,7.7,9,7.4,9z M10.4,9.5
	c-0.8,0-1.5,0.7-1.5,1.5l0,0c0,0.8,0.7,1.5,1.5,1.5l0,0c0.8,0,1.5-0.7,1.5-1.5l0,0C11.9,10.2,11.2,9.5,10.4,9.5L10.4,9.5z
	 M13.9,10.5c-1.5,0-1.5,1.5-1.5,1.5v1.5h-3c-0.3,0-0.5,0.2-0.5,0.5v1c0,0.3,0.2,0.5,0.5,0.5h3.5h9V13c0-2.5-2.5-2.5-2.5-2.5H13.9z"
	/>
</svg>
