<svg xmlns="http://www.w3.org/2000/svg" viewBox="0 0 24 24" height="24" width="24"><title>ice-cream-11.svg</title><rect fill="none" x="0" y="0" width="24" height="24"></rect><rect x="2" y="2" rx="9.5" ry="9.5" width="19" height="19" stroke="rgba(252,18,237,0.2)" style="stroke-linejoin:round;stroke-miterlimit:4;" fill="rgba(252,18,237,0.2)" stroke-width="5"></rect><rect x="2" y="2" width="19" height="19" rx="9.5" ry="9.5" fill="#593f6e"></rect><path fill="#ffffff" transform="translate(6 6)" d="M4,6c0.541,0.0007,1.0676-0.1748,1.5-0.5C5.9324,5.8252,6.459,6.0007,7,6l-1,4.69c-0.1082,0.2541-0.4019,0.3723-0.656,0.264
	c-0.1188-0.0506-0.2134-0.1452-0.264-0.264L4,6z M7,2H6.91c0.2826-0.7787-0.1195-1.6391-0.8982-1.9218S4.3726,0.1978,4.09,0.9765
	C3.97,1.3071,3.97,1.6694,4.09,2H4C3.1716,2,2.5,2.6716,2.5,3.5S3.1716,5,4,5s1.5-0.6716,1.5-1.5l0,0l0,0l0,0
	C5.5,4.3284,6.1716,5,7,5s1.5-0.6716,1.5-1.5S7.8284,2,7,2z"></path></svg>