<svg xmlns="http://www.w3.org/2000/svg" viewBox="0 0 24 24" height="24" width="24"><title>laundry-11.svg</title><rect fill="none" x="0" y="0" width="24" height="24"></rect><rect x="2" y="2" rx="9.5" ry="9.5" width="19" height="19" stroke="rgba(252,18,237,0.2)" style="stroke-linejoin:round;stroke-miterlimit:4;" fill="rgba(252,18,237,0.2)" stroke-width="5"></rect><rect x="2" y="2" width="19" height="19" rx="9.5" ry="9.5" fill="#593f6e"></rect><path fill="#fff" transform="translate(6 6)" d="M5,0L4,2H2c0,0-1,0-1,1v7c0,0,0,1,1,1h7c1,0,1-1,1-1V1c0-1-1-1-1-1H5z M6,1h3v1H6V1z M5.5,4
	C6.8807,4,8,5.1193,8,6.5S6.8807,9,5.5,9S3,7.8807,3,6.5S4.1193,4,5.5,4z"></path></svg>