<svg xmlns="http://www.w3.org/2000/svg" viewBox="0 0 78 78" height="78" width="78"><title>minimo-grey_pattern-water.svg</title><rect fill="none" x="0" y="0" width="78" height="78"></rect><path fill="#555" transform="translate(7 7)" d="M11.3362,5.6407c.8963,0,1.0427,1.5172,0,1.5A.7514.7514,0,0,1,11.3362,5.6407Z"></path><path fill="#555" transform="translate(7 7)" d="M8.9365,5.9414c.8972,0,1.0437,1.5172,0,1.5A.7514.7514,0,0,1,8.9365,5.9414Z"></path><path fill="#555" transform="translate(7 7)" d="M6.6373,7.24c.8963,0,1.0437,1.5191,0,1.5A.7514.7514,0,0,1,6.6373,7.24Z"></path><path fill="#555" transform="translate(7 7)" d="M4.6378,9.4405c.8963,0,1.0437,1.5172,0,1.5A.7514.7514,0,0,1,4.6378,9.4405Z"></path><path fill="#555" transform="translate(7 7)" d="M2.6706,12.66c0-.8962,1.5172-1.0427,1.5,0A.7513.7513,0,0,1,2.6706,12.66Z"></path><path fill="#555" transform="translate(7 7)" d="M1.07,15.06c0-.8963,1.5182-1.0427,1.5,0A.7514.7514,0,0,1,1.07,15.06Z"></path><path fill="#555" transform="translate(7 7)" d="M7.5824,4.2973c0-.8982,1.5171-1.0446,1.5,0A.7514.7514,0,0,1,7.5824,4.2973Z"></path><path fill="#555" transform="translate(7 7)" d="M8.6485,2.1632c0-.8963,1.5172-1.0427,1.5,0A.7513.7513,0,0,1,8.6485,2.1632Z"></path><path fill="#555" transform="translate(7 7)" d="M27.0537.7651c0-.8982,1.5181-1.0447,1.5,0A.7514.7514,0,0,1,27.0537.7651Z"></path><path fill="#555" transform="translate(7 7)" d="M25.0445,2.8309c0-.8962,1.5171-1.0426,1.4986,0A.7508.7508,0,0,1,25.0445,2.8309Z"></path><path fill="#555" transform="translate(7 7)" d="M3.77.7651c0-.8982,1.5172-1.0447,1.5,0A.7514.7514,0,0,1,3.77.7651Z"></path><path fill="#555" transform="translate(7 7)" d="M.9611,2.1632c0-.8963,1.5172-1.0427,1.5,0A.7513.7513,0,0,1,.9611,2.1632Z"></path><path fill="#555" transform="translate(7 7)" d="M-1.1293.6486c0-.8962,1.5172-1.0427,1.5,0A.7513.7513,0,0,1-1.1293.6486Z"></path><path fill="#555" transform="translate(7 7)" d="M6.7828,10.4285c0-.8962,1.5172-1.0427,1.4986,0A.7508.7508,0,0,1,6.7828,10.4285Z"></path><path fill="#555" transform="translate(7 7)" d="M47.56,19.3128c0-.8064,1.3659-.9392,1.35,0A.6765.6765,0,0,1,47.56,19.3128Z"></path><path fill="#555" transform="translate(7 7)" d="M45.5722,20.6582c0-.8963,1.5171-1.0427,1.5,0A.7513.7513,0,0,1,45.5722,20.6582Z"></path><path fill="#555" transform="translate(7 7)" d="M43.7055,22.8256c0-.8963,1.5181-1.0427,1.5,0A.7514.7514,0,0,1,43.7055,22.8256Z"></path><path fill="#555" transform="translate(7 7)" d="M42.25,24.9578c0-.8962,1.5172-1.0427,1.5,0A.7514.7514,0,0,1,42.25,24.9578Z"></path><path fill="#555" transform="translate(7 7)" d="M7.8587,12.428c0-.8963,1.5181-1.0427,1.5,0A.7514.7514,0,0,1,7.8587,12.428Z"></path><path fill="#555" transform="translate(7 7)" d="M5.9822,16.96c0-.8963,1.5182-1.0427,1.5,0A.7514.7514,0,0,1,5.9822,16.96Z"></path><path fill="#555" transform="translate(7 7)" d="M7.7591,19.26c0-.8982,1.5172-1.0446,1.5,0A.7514.7514,0,0,1,7.7591,19.26Z"></path><path fill="#555" transform="translate(7 7)" d="M5.05,19.6253c0-.8963,1.5172-1.0427,1.5,0A.7513.7513,0,0,1,5.05,19.6253Z"></path><path fill="#555" transform="translate(7 7)" d="M2.65,20.0255c0-.8962,1.5172-1.0426,1.5,0A.7514.7514,0,0,1,2.65,20.0255Z"></path><path fill="#555" transform="translate(7 7)" d="M4.5266,22.1578c0-.8963,1.5171-1.0427,1.4995,0A.7513.7513,0,0,1,4.5266,22.1578Z"></path><path fill="#555" transform="translate(7 7)" d="M6.9156,24.825c0-.8962,1.5171-1.0427,1.5,0A.7514.7514,0,0,1,6.9156,24.825Z"></path><path fill="#555" transform="translate(7 7)" d="M28.52,2.6962c0-.8962,1.5172-1.0427,1.5,0A.7513.7513,0,0,1,28.52,2.6962Z"></path><path fill="#555" transform="translate(7 7)" d="M5.5155,3.2644c0-.8982,1.5182-1.0446,1.5,0A.7514.7514,0,0,1,5.5155,3.2644Z"></path><path fill="#555" transform="translate(7 7)" d="M6.4694.9643c0-.8963,1.5172-1.0427,1.5,0A.7514.7514,0,0,1,6.4694.9643Z"></path><path fill="#555" transform="translate(7 7)" d="M1.417,5.3635c0-.8963,1.5172-1.0427,1.5,0A.7514.7514,0,0,1,1.417,5.3635Z"></path><path fill="#555" transform="translate(7 7)" d="M2.7839,3.0965c0-.8962,1.5171-1.0427,1.5,0A.7514.7514,0,0,1,2.7839,3.0965Z"></path><path fill="#555" transform="translate(7 7)" d="M9.3143,8.8293c0-.8962,1.5182-1.0427,1.5,0A.7514.7514,0,0,1,9.3143,8.8293Z"></path><path fill="#555" transform="translate(7 7)" d="M5.1826,12.5607c0-.8962,1.5172-1.0426,1.5,0A.7514.7514,0,0,1,5.1826,12.5607Z"></path><path fill="#555" transform="translate(7 7)" d="M7.0493,14.693c0-.8963,1.5172-1.0427,1.4986,0A.7508.7508,0,0,1,7.0493,14.693Z"></path><path fill="#555" transform="translate(7 7)" d="M4.1165,14.9605c0-.8962,1.5172-1.0427,1.5,0A.7514.7514,0,0,1,4.1165,14.9605Z"></path><path fill="#555" transform="translate(7 7)" d="M3.1832,17.493c0-.8962,1.5171-1.0427,1.5,0A.7514.7514,0,0,1,3.1832,17.493Z"></path><path fill="#555" transform="translate(7 7)" d="M7.4486,22.025c0-.8962,1.5172-1.0427,1.5,0A.7514.7514,0,0,1,7.4486,22.025Z"></path><path fill="#555" transform="translate(7 7)" d="M2.2606,23.2259c0-.8982,1.5171-1.0447,1.5,0A.7514.7514,0,0,1,2.2606,23.2259Z"></path><path fill="#555" transform="translate(7 7)" d="M4.5266,25.2253c0-.8982,1.5171-1.0446,1.4995,0A.7514.7514,0,0,1,4.5266,25.2253Z"></path><path fill="#555" transform="translate(7 7)" d="M2.3933,26.1567c0-.8962,1.5182-1.0427,1.5,0A.7513.7513,0,0,1,2.3933,26.1567Z"></path><path fill="#555" transform="translate(7 7)" d="M3.1832,28.9567c0-.8962,1.5171-1.0427,1.5,0A.7514.7514,0,0,1,3.1832,28.9567Z"></path><path fill="#555" transform="translate(7 7)" d="M4.1165,31.4893c0-.8963,1.5172-1.0427,1.5,0A.7514.7514,0,0,1,4.1165,31.4893Z"></path><path fill="#555" transform="translate(7 7)" d="M5.1826,34.0218c0-.8963,1.5172-1.0427,1.5,0A.7514.7514,0,0,1,5.1826,34.0218Z"></path><path fill="#555" transform="translate(7 7)" d="M6.3825,36.5543c0-.8962,1.5172-1.0427,1.5,0A.7514.7514,0,0,1,6.3825,36.5543Z"></path><path fill="#555" transform="translate(7 7)" d="M8.2482,38.5538c0-.8963,1.5182-1.0427,1.5,0A.7514.7514,0,0,1,8.2482,38.5538Z"></path><path fill="#555" transform="translate(7 7)" d="M9.8484,23.0911c0-.8962,1.5171-1.0427,1.5,0A.7514.7514,0,0,1,9.8484,23.0911Z"></path><path fill="#555" transform="translate(7 7)" d="M4.86,5.4162c0-.8963,1.5181-1.0427,1.5,0A.7514.7514,0,0,1,4.86,5.4162Z"></path><path fill="#555" transform="translate(7 7)" d="M3.1705,7.0622c0-.8962,1.5171-1.0427,1.5,0A.7514.7514,0,0,1,3.1705,7.0622Z"></path><path fill="#555" transform="translate(7 7)" d="M.6243,10.0614c0-.8962,1.5171-1.0427,1.5,0A.7514.7514,0,0,1,.6243,10.0614Z"></path><path fill="#555" transform="translate(7 7)" d="M-.1256,12.66c0-.8962,1.5172-1.0427,1.5,0A.7513.7513,0,0,1-.1256,12.66Z"></path><path fill="#555" transform="translate(7 7)" d="M35.6744,49.2189c0-.8982,1.5182-1.0447,1.5,0A.7514.7514,0,0,1,35.6744,49.2189Z"></path><path fill="#555" transform="translate(7 7)" d="M36.1411,46.8191c0-.8962,1.5172-1.0427,1.5,0A.7514.7514,0,0,1,36.1411,46.8191Z"></path><path fill="#555" transform="translate(7 7)" d="M37.9736,49.4844c0-.8962,1.5182-1.0427,1.5,0A.7514.7514,0,0,1,37.9736,49.4844Z"></path><path fill="#555" transform="translate(7 7)" d="M41.04,49.7519c0-.8982,1.5172-1.0446,1.4986,0A.7509.7509,0,0,1,41.04,49.7519Z"></path><path fill="#555" transform="translate(7 7)" d="M43.4389,50.5837c0-.8962,1.5172-1.0427,1.5,0A.7514.7514,0,0,1,43.4389,50.5837Z"></path><path fill="#555" transform="translate(7 7)" d="M46.649,50.8512c0-.8962,1.5172-1.0426,1.4986,0A.7508.7508,0,0,1,46.649,50.8512Z"></path><path fill="#555" transform="translate(7 7)" d="M38.9177,45.6183c0-.8963,1.5172-1.0427,1.5,0A.7513.7513,0,0,1,38.9177,45.6183Z"></path><path fill="#555" transform="translate(7 7)" d="M36.518,44.4194c0-.8963,1.5171-1.0427,1.5,0A.7514.7514,0,0,1,36.518,44.4194Z"></path><path fill="#555" transform="translate(7 7)" d="M39.44,43.3533c0-.8963,1.5172-1.0427,1.5,0A.7514.7514,0,0,1,39.44,43.3533Z"></path><path fill="#555" transform="translate(7 7)" d="M41.44,41.3538c0-.8962,1.5172-1.0427,1.5,0A.7514.7514,0,0,1,41.44,41.3538Z"></path><path fill="#555" transform="translate(7 7)" d="M42.1063,38.8213c0-.8963,1.5172-1.0427,1.5,0A.7514.7514,0,0,1,42.1063,38.8213Z"></path><path fill="#555" transform="translate(7 7)" d="M42.5056,36.0212c0-.8962,1.5182-1.0426,1.5,0A.7514.7514,0,0,1,42.5056,36.0212Z"></path><path fill="#555" transform="translate(7 7)" d="M43.04,33.4887c0-.8962,1.5172-1.0427,1.4987,0A.7509.7509,0,0,1,43.04,33.4887Z"></path><path fill="#555" transform="translate(7 7)" d="M43.4389,30.8234c0-.8962,1.5172-1.0427,1.5,0A.7514.7514,0,0,1,43.4389,30.8234Z"></path><path fill="#555" transform="translate(7 7)" d="M43.8392,28.1562c0-.8963,1.5172-1.0427,1.5,0A.7513.7513,0,0,1,43.8392,28.1562Z"></path><path fill="#555" transform="translate(7 7)" d="M41.7168,27.6231c0-.8962,1.5171-1.0427,1.5,0A.7513.7513,0,0,1,41.7168,27.6231Z"></path><path fill="#555" transform="translate(7 7)" d="M40.9172,30.4231c0-.8962,1.5171-1.0427,1.5,0A.7514.7514,0,0,1,40.9172,30.4231Z"></path><path fill="#555" transform="translate(7 7)" d="M40.5061,32.9557c0-.8963,1.5182-1.0427,1.5,0A.7514.7514,0,0,1,40.5061,32.9557Z"></path><path fill="#555" transform="translate(7 7)" d="M40.24,35.621c0-.8963,1.5182-1.0427,1.5,0A.7513.7513,0,0,1,40.24,35.621Z"></path><path fill="#555" transform="translate(7 7)" d="M39.4508,37.7552c0-.8982,1.5171-1.0447,1.5,0A.7514.7514,0,0,1,39.4508,37.7552Z"></path><path fill="#555" transform="translate(7 7)" d="M39.0505,40.5532c0-.8962,1.5181-1.0427,1.5,0A.7514.7514,0,0,1,39.0505,40.5532Z"></path><path fill="#555" transform="translate(7 7)" d="M45.0723,25.4245c0-.8963,1.5172-1.0427,1.5,0A.7514.7514,0,0,1,45.0723,25.4245Z"></path><path fill="#555" transform="translate(7 7)" d="M47.6283,24.8582c0-.8962,1.5171-1.0427,1.5,0A.7514.7514,0,0,1,47.6283,24.8582Z"></path><path fill="#555" transform="translate(7 7)" d="M50.2477,24.292c0-.8982,1.5171-1.0427,1.5,0A.7514.7514,0,0,1,50.2477,24.292Z"></path><path fill="#555" transform="translate(7 7)" d="M49.038,22.0914c0-.8963,1.5172-1.0427,1.4987,0A.7509.7509,0,0,1,49.038,22.0914Z"></path><path fill="#555" transform="translate(7 7)" d="M46.6158,22.892c0-.8963,1.5172-1.0427,1.4987,0A.7509.7509,0,0,1,46.6158,22.892Z"></path><path fill="#555" transform="translate(7 7)" d="M49.8376,19.8928c0-.8963,1.5172-1.0427,1.5,0A.7514.7514,0,0,1,49.8376,19.8928Z"></path><path fill="#555" transform="translate(7 7)" d="M49.5477,17.659c0-.8963,1.5181-1.0427,1.5,0A.7513.7513,0,0,1,49.5477,17.659Z"></path><path fill="#555" transform="translate(7 7)" d="M29.5765,53.6161c0-.8962,1.5171-1.0427,1.5,0A.7513.7513,0,0,1,29.5765,53.6161Z"></path><path fill="#555" transform="translate(7 7)" d="M31.9752,52.55c0-.8962,1.5182-1.0427,1.5,0A.7514.7514,0,0,1,31.9752,52.55Z"></path><path fill="#555" transform="translate(7 7)" d="M34.7079,51.9506c0-.8963,1.5181-1.0427,1.5,0A.7514.7514,0,0,1,34.7079,51.9506Z"></path><path fill="#555" transform="translate(7 7)" d="M37.174,51.8842c0-.8963,1.5172-1.0427,1.5,0A.7514.7514,0,0,1,37.174,51.8842Z"></path><path fill="#555" transform="translate(7 7)" d="M40.25,51.8842c0-.8963,1.5171-1.0427,1.4995,0A.7513.7513,0,0,1,40.25,51.8842Z"></path><path fill="#555" transform="translate(7 7)" d="M42.8063,52.7511c0-.8982,1.5172-1.0446,1.4986,0A.7509.7509,0,0,1,42.8063,52.7511Z"></path><path fill="#555" transform="translate(7 7)" d="M48.7481,53.95c0-.8962,1.5171-1.0427,1.5,0A.7514.7514,0,0,1,48.7481,53.95Z"></path><path fill="#555" transform="translate(7 7)" d="M49.4481,51.65c0-.8963,1.5171-1.0427,1.5,0A.7513.7513,0,0,1,49.4481,51.65Z"></path><path fill="#555" transform="translate(7 7)" d="M45.8485,53.05c0-.8963,1.5181-1.0427,1.5,0A.7514.7514,0,0,1,45.8485,53.05Z"></path><path fill="#555" transform="translate(7 7)" d="M43.15,55.35c0-.8962,1.5171-1.0427,1.4986,0A.7508.7508,0,0,1,43.15,55.35Z"></path><path fill="#555" transform="translate(7 7)" d="M40.55,56.5489c0-.8962,1.5181-1.0427,1.5,0A.7514.7514,0,0,1,40.55,56.5489Z"></path><path fill="#555" transform="translate(7 7)" d="M41.4063,58.4156c0-.8962,1.5172-1.0427,1.5,0A.7514.7514,0,0,1,41.4063,58.4156Z"></path><path fill="#555" transform="translate(7 7)" d="M34.8416,55.2173c0-.8982,1.5172-1.0447,1.5,0A.7514.7514,0,0,1,34.8416,55.2173Z"></path><path fill="#555" transform="translate(7 7)" d="M32.2525,55.2173c0-.8982,1.5172-1.0447,1.5,0A.7514.7514,0,0,1,32.2525,55.2173Z"></path><path fill="#555" transform="translate(7 7)" d="M32.6528,57.8025c0-.8962,1.5172-1.0427,1.5,0A.7514.7514,0,0,1,32.6528,57.8025Z"></path><path fill="#555" transform="translate(7 7)" d="M29.72,56.0159c0-.8963,1.5171-1.0427,1.5,0A.7514.7514,0,0,1,29.72,56.0159Z"></path><path fill="#555" transform="translate(7 7)" d="M34.1621,60.8017c0-.8962,1.5172-1.0427,1.5,0A.7514.7514,0,0,1,34.1621,60.8017Z"></path><path fill="#555" transform="translate(7 7)" d="M37.341,54.7838c0-.8982,1.5171-1.0447,1.5,0A.7514.7514,0,0,1,37.341,54.7838Z"></path><path fill="#555" transform="translate(7 7)" d="M-.1256,34.9054c0-.8962,1.5172-1.0427,1.5,0A.7514.7514,0,0,1-.1256,34.9054Z"></path><path fill="#555" transform="translate(7 7)" d="M-1.1293,32.3715c0-.8962,1.5172-1.0427,1.5,0A.7514.7514,0,0,1-1.1293,32.3715Z"></path><path fill="#555" transform="translate(7 7)" d="M1.07,37.4545c0-.8963,1.5182-1.0427,1.5,0A.7514.7514,0,0,1,1.07,37.4545Z"></path><path fill="#555" transform="translate(7 7)" d="M2.4705,39.5535c0-.8962,1.5171-1.0427,1.5,0A.7514.7514,0,0,1,2.4705,39.5535Z"></path><path fill="#555" transform="translate(7 7)" d="M4.27,41.6525c0-.8962,1.5172-1.0426,1.5,0A.7513.7513,0,0,1,4.27,41.6525Z"></path><path fill="#555" transform="translate(7 7)" d="M6.0691,43.2537c0-.8982,1.5182-1.0447,1.5,0A.7514.7514,0,0,1,6.0691,43.2537Z"></path><path fill="#555" transform="translate(7 7)" d="M8.0686,44.6517c0-.8962,1.5181-1.0427,1.5,0A.7513.7513,0,0,1,8.0686,44.6517Z"></path><path fill="#555" transform="translate(7 7)" d="M5.27,46.0518c0-.8963,1.5172-1.0427,1.5,0A.7514.7514,0,0,1,5.27,46.0518Z"></path><path fill="#555" transform="translate(7 7)" d="M3.27,44.0523c0-.8963,1.5171-1.0427,1.4995,0A.7513.7513,0,0,1,3.27,44.0523Z"></path><path fill="#555" transform="translate(7 7)" d="M1.7705,41.6525c0-.8962,1.5171-1.0426,1.5,0A.7513.7513,0,0,1,1.7705,41.6525Z"></path><path fill="#555" transform="translate(7 7)" d="M-.1256,39.47c0-.8962,1.5181-1.0427,1.5,0A.7514.7514,0,0,1-.1256,39.47Z"></path><path fill="#555" transform="translate(7 7)" d="M-1.1293,37.27c0-.8962,1.5181-1.0426,1.5,0A.7514.7514,0,0,1-1.1293,37.27Z"></path><path fill="#555" transform="translate(7 7)" d="M27.1767,55.2173c0-.8982,1.5172-1.0447,1.5,0A.7514.7514,0,0,1,27.1767,55.2173Z"></path><path fill="#555" transform="translate(7 7)" d="M31.1756,40.9535c0-.8962,1.5182-1.0427,1.5,0A.7514.7514,0,0,1,31.1756,40.9535Z"></path><path fill="#555" transform="translate(7 7)" d="M28.52,41.6193c0-.8962,1.5172-1.0426,1.5,0A.7513.7513,0,0,1,28.52,41.6193Z"></path><path fill="#555" transform="translate(7 7)" d="M26.1213,42.953c0-.8963,1.5172-1.0427,1.4987,0A.7509.7509,0,0,1,26.1213,42.953Z"></path><path fill="#555" transform="translate(7 7)" d="M23.8544,44.2866c0-.8982,1.5181-1.0446,1.5,0A.7514.7514,0,0,1,23.8544,44.2866Z"></path><path fill="#555" transform="translate(7 7)" d="M22.511,42.1524c0-.8962,1.5181-1.0427,1.5,0A.7513.7513,0,0,1,22.511,42.1524Z"></path><path fill="#555" transform="translate(7 7)" d="M26.5206,39.7546c0-.8982,1.5172-1.0446,1.5,0A.7514.7514,0,0,1,26.5206,39.7546Z"></path><path fill="#555" transform="translate(7 7)" d="M29.0532,39.3543c0-.8962,1.5181-1.0427,1.5,0A.7514.7514,0,0,1,29.0532,39.3543Z"></path><path fill="#555" transform="translate(7 7)" d="M31.4529,38.0207c0-.8962,1.5172-1.0427,1.5,0A.7514.7514,0,0,1,31.4529,38.0207Z"></path><path fill="#555" transform="translate(7 7)" d="M33.9854,37.62c0-.8962,1.5172-1.0427,1.5,0A.7513.7513,0,0,1,33.9854,37.62Z"></path><path fill="#555" transform="translate(7 7)" d="M24.2546,40.686c0-.8962,1.5172-1.0427,1.5,0A.7513.7513,0,0,1,24.2546,40.686Z"></path><path fill="#555" transform="translate(7 7)" d="M22.1214,45.8858c0-.8963,1.5182-1.0427,1.5,0A.7514.7514,0,0,1,22.1214,45.8858Z"></path><path fill="#555" transform="translate(7 7)" d="M20.3885,43.8863c0-.8962,1.5181-1.0427,1.5,0A.7514.7514,0,0,1,20.3885,43.8863Z"></path><path fill="#555" transform="translate(7 7)" d="M20.5223,47.2194c0-.8982,1.5171-1.0446,1.4995,0A.7514.7514,0,0,1,20.5223,47.2194Z"></path><path fill="#555" transform="translate(7 7)" d="M18.6458,45.4855c0-.8962,1.5172-1.0427,1.5,0A.7514.7514,0,0,1,18.6458,45.4855Z"></path><path fill="#555" transform="translate(7 7)" d="M30.6426,49.7519c0-.8982,1.5172-1.0446,1.5,0A.7514.7514,0,0,1,30.6426,49.7519Z"></path><path fill="#555" transform="translate(7 7)" d="M33.0423,49.2189c0-.8982,1.5172-1.0447,1.4986,0A.7509.7509,0,0,1,33.0423,49.2189Z"></path><path fill="#555" transform="translate(7 7)" d="M33.5754,40.4205c0-.8963,1.5172-1.0427,1.5,0A.7514.7514,0,0,1,33.5754,40.4205Z"></path><path fill="#555" transform="translate(7 7)" d="M37.0413,41.8869c0-.8963,1.5171-1.0427,1.5,0A.7514.7514,0,0,1,37.0413,41.8869Z"></path><path fill="#555" transform="translate(7 7)" d="M51.0473,15.0933c0-.8963,1.5181-1.0427,1.5,0A.7514.7514,0,0,1,51.0473,15.0933Z"></path><path fill="#555" transform="translate(7 7)" d="M35.8414,39.3543c0-.8962,1.5172-1.0427,1.5,0A.7514.7514,0,0,1,35.8414,39.3543Z"></path><path fill="#555" transform="translate(7 7)" d="M34.1192,43.0858c0-.8963,1.5172-1.0427,1.4986,0A.7508.7508,0,0,1,34.1192,43.0858Z"></path><path fill="#555" transform="translate(7 7)" d="M31.4529,43.7535c0-.8982,1.5172-1.0446,1.5,0A.7514.7514,0,0,1,31.4529,43.7535Z"></path><path fill="#555" transform="translate(7 7)" d="M29.0532,44.4194c0-.8963,1.5181-1.0427,1.5,0A.7514.7514,0,0,1,29.0532,44.4194Z"></path><path fill="#555" transform="translate(7 7)" d="M27.0439,45.6183c0-.8963,1.5172-1.0427,1.4987,0A.7508.7508,0,0,1,27.0439,45.6183Z"></path><path fill="#555" transform="translate(7 7)" d="M24.9215,47.0847c0-.8963,1.5171-1.0427,1.5,0A.7514.7514,0,0,1,24.9215,47.0847Z"></path><path fill="#555" transform="translate(7 7)" d="M22.922,48.5511c0-.8963,1.5172-1.0427,1.5,0A.7514.7514,0,0,1,22.922,48.5511Z"></path><path fill="#555" transform="translate(7 7)" d="M21.1783,50.4178c0-.8963,1.5172-1.0427,1.5,0A.7514.7514,0,0,1,21.1783,50.4178Z"></path><path fill="#555" transform="translate(7 7)" d="M19.19,52.0169c0-.8962,1.5172-1.0426,1.4986,0A.7508.7508,0,0,1,19.19,52.0169Z"></path><path fill="#555" transform="translate(7 7)" d="M18.9231,48.9514c0-.8963,1.5171-1.0427,1.5,0A.7514.7514,0,0,1,18.9231,48.9514Z"></path><path fill="#555" transform="translate(7 7)" d="M16.79,47.6177c0-.8962,1.5171-1.0427,1.5,0A.7513.7513,0,0,1,16.79,47.6177Z"></path><path fill="#555" transform="translate(7 7)" d="M16.78,50.0175c0-.8963,1.5172-1.0427,1.4986,0A.7508.7508,0,0,1,16.78,50.0175Z"></path><path fill="#555" transform="translate(7 7)" d="M2.9606,47.1511c0-.8963,1.5171-1.0427,1.5,0A.7513.7513,0,0,1,2.9606,47.1511Z"></path><path fill="#555" transform="translate(7 7)" d="M1.1612,45.2531c0-.8982,1.5172-1.0446,1.4987,0A.7509.7509,0,0,1,1.1612,45.2531Z"></path><path fill="#555" transform="translate(7 7)" d="M.1391,43.1521c0-.8962,1.5171-1.0426,1.5,0A.7513.7513,0,0,1,.1391,43.1521Z"></path><path fill="#555" transform="translate(7 7)" d="M48.915,15.6263c0-.8962,1.5172-1.0427,1.5,0A.7513.7513,0,0,1,48.915,15.6263Z"></path><path fill="#555" transform="translate(7 7)" d="M46.9048,16.8272c0-.8963,1.5172-1.0427,1.5,0A.7514.7514,0,0,1,46.9048,16.8272Z"></path><path fill="#555" transform="translate(7 7)" d="M44.7823,17.8933c0-.8962,1.5172-1.0427,1.5,0A.7514.7514,0,0,1,44.7823,17.8933Z"></path><path fill="#555" transform="translate(7 7)" d="M43.4389,19.6253c0-.8963,1.5172-1.0427,1.5,0A.7513.7513,0,0,1,43.4389,19.6253Z"></path><path fill="#555" transform="translate(7 7)" d="M41.1837,21.2264c0-.8982,1.5172-1.0447,1.4986,0A.7509.7509,0,0,1,41.1837,21.2264Z"></path><path fill="#555" transform="translate(7 7)" d="M40.1068,23.7589c0-.8982,1.5172-1.0446,1.5,0A.7514.7514,0,0,1,40.1068,23.7589Z"></path><path fill="#555" transform="translate(7 7)" d="M39.7066,26.1567c0-.8962,1.5181-1.0427,1.5,0A.7513.7513,0,0,1,39.7066,26.1567Z"></path><path fill="#555" transform="translate(7 7)" d="M39.1735,28.9567c0-.8962,1.5181-1.0427,1.5,0A.7514.7514,0,0,1,39.1735,28.9567Z"></path><path fill="#555" transform="translate(7 7)" d="M38.1074,31.7568c0-.8982,1.5171-1.0447,1.5,0A.7514.7514,0,0,1,38.1074,31.7568Z"></path><path fill="#555" transform="translate(7 7)" d="M37.7071,34.4221c0-.8963,1.5181-1.0427,1.5,0A.7514.7514,0,0,1,37.7071,34.4221Z"></path><path fill="#555" transform="translate(7 7)" d="M37.0413,36.8218c0-.8962,1.5171-1.0427,1.5,0A.7514.7514,0,0,1,37.0413,36.8218Z"></path><path fill="#555" transform="translate(7 7)" d="M34.785,35.2226c0-.8982,1.5172-1.0446,1.5,0A.7514.7514,0,0,1,34.785,35.2226Z"></path><path fill="#555" transform="translate(7 7)" d="M35.9742,32.8229c0-.8963,1.5181-1.0427,1.5,0A.7514.7514,0,0,1,35.9742,32.8229Z"></path><path fill="#555" transform="translate(7 7)" d="M35.4411,30.1556c0-.8962,1.5172-1.0427,1.5,0A.7513.7513,0,0,1,35.4411,30.1556Z"></path><path fill="#555" transform="translate(7 7)" d="M36.9075,28.1562c0-.8963,1.5172-1.0427,1.5,0A.7513.7513,0,0,1,36.9075,28.1562Z"></path><path fill="#555" transform="translate(7 7)" d="M37.1848,25.4909c0-.8963,1.5171-1.0427,1.4986,0A.7508.7508,0,0,1,37.1848,25.4909Z"></path><path fill="#555" transform="translate(7 7)" d="M38.1074,22.5581c0-.8963,1.5171-1.0427,1.5,0A.7514.7514,0,0,1,38.1074,22.5581Z"></path><path fill="#555" transform="translate(7 7)" d="M35.4411,21.4919c0-.8962,1.5172-1.0426,1.5,0A.7514.7514,0,0,1,35.4411,21.4919Z"></path><path fill="#555" transform="translate(7 7)" d="M32.7856,21.0917c0-.8963,1.5171-1.0427,1.5,0A.7514.7514,0,0,1,32.7856,21.0917Z"></path><path fill="#555" transform="translate(7 7)" d="M30.3858,21.76c0-.8982,1.5182-1.0447,1.5,0A.7514.7514,0,0,1,30.3858,21.76Z"></path><path fill="#555" transform="translate(7 7)" d="M28.1208,22.8256c0-.8963,1.5172-1.0427,1.4986,0A.7508.7508,0,0,1,28.1208,22.8256Z"></path><path fill="#555" transform="translate(7 7)" d="M26.2541,21.859c0-.8962,1.5172-1.0427,1.5,0A.7514.7514,0,0,1,26.2541,21.859Z"></path><path fill="#555" transform="translate(7 7)" d="M24.6549,56.6817c0-.8962,1.5172-1.0427,1.5,0A.7513.7513,0,0,1,24.6549,56.6817Z"></path><path fill="#555" transform="translate(7 7)" d="M21.5786,2.7977c0-.8981,1.5172-1.0426,1.5,0A.7514.7514,0,0,1,21.5786,2.7977Z"></path><path fill="#555" transform="translate(7 7)" d="M18.78,6.5624c0-.8963,1.5171-1.0427,1.5,0A.7514.7514,0,0,1,18.78,6.5624Z"></path><path fill="#555" transform="translate(7 7)" d="M10.7583,45.6515c0-.8963,1.5171-1.0427,1.5,0A.7513.7513,0,0,1,10.7583,45.6515Z"></path><path fill="#555" transform="translate(7 7)" d="M11.8576,47.6509c0-.8962,1.5181-1.0427,1.5,0A.7513.7513,0,0,1,11.8576,47.6509Z"></path><path fill="#555" transform="translate(7 7)" d="M14.3569,47.9516c0-.8962,1.5182-1.0427,1.5,0A.7514.7514,0,0,1,14.3569,47.9516Z"></path><path fill="#555" transform="translate(7 7)" d="M14.4575,49.9511c0-.8962,1.5171-1.0427,1.5,0A.7514.7514,0,0,1,14.4575,49.9511Z"></path><path fill="#555" transform="translate(7 7)" d="M12.0577,50.15c0-.8963,1.5182-1.0427,1.5,0A.7513.7513,0,0,1,12.0577,50.15Z"></path><path fill="#555" transform="translate(7 7)" d="M9.7585,51.05c0-.8962,1.5172-1.0427,1.5,0A.7514.7514,0,0,1,9.7585,51.05Z"></path><path fill="#555" transform="translate(7 7)" d="M7.3588,52.3508c0-.8962,1.5181-1.0426,1.5,0A.7514.7514,0,0,1,7.3588,52.3508Z"></path><path fill="#555" transform="translate(7 7)" d="M4.86,53.85c0-.8962,1.5181-1.0427,1.5,0A.7514.7514,0,0,1,4.86,53.85Z"></path><path fill="#555" transform="translate(7 7)" d="M2.86,55.45c0-.8962,1.5182-1.0427,1.5,0A.7514.7514,0,0,1,2.86,55.45Z"></path><path fill="#555" transform="translate(7 7)" d="M.2611,56.6485c0-.8962,1.5172-1.0427,1.5,0A.7513.7513,0,0,1,.2611,56.6485Z"></path><path fill="#555" transform="translate(7 7)" d="M-1.3607,55.2158c0-.8962,1.5172-1.0427,1.5,0A.7513.7513,0,0,1-1.3607,55.2158Z"></path><path fill="#555" transform="translate(7 7)" d="M35.9849,15.8938c0-.8962,1.5172-1.0427,1.5,0A.7514.7514,0,0,1,35.9849,15.8938Z"></path><path fill="#555" transform="translate(7 7)" d="M33.1751,15.6263c0-.8962,1.5182-1.0427,1.5,0A.7513.7513,0,0,1,33.1751,15.6263Z"></path><path fill="#555" transform="translate(7 7)" d="M30.6426,16.0266c0-.8962,1.5172-1.0427,1.5,0A.7514.7514,0,0,1,30.6426,16.0266Z"></path><path fill="#555" transform="translate(7 7)" d="M16.4569,52.45c0-.8962,1.5172-1.0427,1.5,0A.7514.7514,0,0,1,16.4569,52.45Z"></path><path fill="#555" transform="translate(7 7)" d="M14.0572,52.3508c0-.8962,1.5181-1.0426,1.5,0A.7514.7514,0,0,1,14.0572,52.3508Z"></path><path fill="#555" transform="translate(7 7)" d="M11.8576,53.05c0-.8963,1.5181-1.0427,1.5,0A.7514.7514,0,0,1,11.8576,53.05Z"></path><path fill="#555" transform="translate(7 7)" d="M9.4588,54.05c0-.8962,1.5172-1.0427,1.5,0A.7514.7514,0,0,1,9.4588,54.05Z"></path><path fill="#555" transform="translate(7 7)" d="M6.96,55.45c0-.8962,1.5172-1.0427,1.5,0A.7514.7514,0,0,1,6.96,55.45Z"></path><path fill="#555" transform="translate(7 7)" d="M4.56,57.0488c0-.8962,1.5182-1.0427,1.5,0A.7514.7514,0,0,1,4.56,57.0488Z"></path><path fill="#555" transform="translate(7 7)" d="M2.56,58.25c0-.8981,1.5181-1.0446,1.5,0A.7514.7514,0,0,1,2.56,58.25Z"></path><path fill="#555" transform="translate(7 7)" d="M.6614,59.5481c0-.8962,1.5171-1.0427,1.5,0A.7514.7514,0,0,1,.6614,59.5481Z"></path><path fill="#555" transform="translate(7 7)" d="M-1.2387,58.518c0-.8962,1.5172-1.0426,1.5,0A.7514.7514,0,0,1-1.2387,58.518Z"></path><path fill="#555" transform="translate(7 7)" d="M.061,61.5945c0-.8963,1.5181-1.0427,1.5,0A.7514.7514,0,0,1,.061,61.5945Z"></path><path fill="#555" transform="translate(7 7)" d="M1.8144,63.1468c0-.8963,1.5172-1.0427,1.5,0A.7513.7513,0,0,1,1.8144,63.1468Z"></path><path fill="#555" transform="translate(7 7)" d="M2.76,61.1473c0-.8962,1.5172-1.0427,1.5,0A.7513.7513,0,0,1,2.76,61.1473Z"></path><path fill="#555" transform="translate(7 7)" d="M4.96,59.4485c0-.8962,1.5172-1.0426,1.5,0A.7514.7514,0,0,1,4.96,59.4485Z"></path><path fill="#555" transform="translate(7 7)" d="M7.2592,58.25c0-.8981,1.5172-1.0446,1.5,0A.7514.7514,0,0,1,7.2592,58.25Z"></path><path fill="#555" transform="translate(7 7)" d="M5.3164,62.6469c0-.8962,1.5171-1.0427,1.4986,0A.7508.7508,0,0,1,5.3164,62.6469Z"></path><path fill="#555" transform="translate(7 7)" d="M9.5584,57.0488c0-.8962,1.5181-1.0427,1.5,0A.7514.7514,0,0,1,9.5584,57.0488Z"></path><path fill="#555" transform="translate(7 7)" d="M11.9581,55.75c0-.8982,1.5172-1.0446,1.5,0A.7514.7514,0,0,1,11.9581,55.75Z"></path><path fill="#555" transform="translate(7 7)" d="M14.7572,54.45c0-.8963,1.5172-1.0427,1.5,0A.7514.7514,0,0,1,14.7572,54.45Z"></path><path fill="#555" transform="translate(7 7)" d="M17.5563,54.7506c0-.8982,1.5181-1.0447,1.5,0A.7514.7514,0,0,1,17.5563,54.7506Z"></path><path fill="#555" transform="translate(7 7)" d="M19.956,54.45c0-.8963,1.5172-1.0427,1.5,0A.7514.7514,0,0,1,19.956,54.45Z"></path><path fill="#555" transform="translate(7 7)" d="M22.1556,52.95c0-.8963,1.5172-1.0427,1.4986,0A.7508.7508,0,0,1,22.1556,52.95Z"></path><path fill="#555" transform="translate(7 7)" d="M24.0545,51.2515c0-.8982,1.5182-1.0446,1.5,0A.7514.7514,0,0,1,24.0545,51.2515Z"></path><path fill="#555" transform="translate(7 7)" d="M25.9544,49.65c0-.8962,1.5172-1.0427,1.5,0A.7513.7513,0,0,1,25.9544,49.65Z"></path><path fill="#555" transform="translate(7 7)" d="M27.7537,48.1508c0-.8962,1.5172-1.0427,1.5,0A.7513.7513,0,0,1,27.7537,48.1508Z"></path><path fill="#555" transform="translate(7 7)" d="M29.8528,46.8523c0-.8962,1.5181-1.0427,1.5,0A.7514.7514,0,0,1,29.8528,46.8523Z"></path><path fill="#555" transform="translate(7 7)" d="M32.0524,46.3525c0-.8963,1.5181-1.0427,1.5,0A.7514.7514,0,0,1,32.0524,46.3525Z"></path><path fill="#555" transform="translate(7 7)" d="M34.1524,45.4523c0-.8962,1.5172-1.0427,1.4986,0A.7508.7508,0,0,1,34.1524,45.4523Z"></path><path fill="#555" transform="translate(7 7)" d="M9.5584,48.4515c0-.8962,1.5181-1.0427,1.5,0A.7514.7514,0,0,1,9.5584,48.4515Z"></path><path fill="#555" transform="translate(7 7)" d="M7.2592,49.7519c0-.8982,1.5172-1.0446,1.5,0A.7514.7514,0,0,1,7.2592,49.7519Z"></path><path fill="#555" transform="translate(7 7)" d="M4.96,51.05c0-.8962,1.5172-1.0427,1.5,0A.7514.7514,0,0,1,4.96,51.05Z"></path><path fill="#555" transform="translate(7 7)" d="M2.76,52.55c0-.8962,1.5172-1.0427,1.5,0A.7514.7514,0,0,1,2.76,52.55Z"></path><path fill="#555" transform="translate(7 7)" d="M.8108,54.0347c0-.8982,1.5172-1.0447,1.5,0A.7514.7514,0,0,1,.8108,54.0347Z"></path><path fill="#555" transform="translate(7 7)" d="M-1.2387,52.4515c0-.8982,1.5172-1.0446,1.5,0A.7514.7514,0,0,1-1.2387,52.4515Z"></path><path fill="#555" transform="translate(7 7)" d="M22.511,13.6269c0-.8963,1.5181-1.0427,1.5,0A.7513.7513,0,0,1,22.511,13.6269Z"></path><path fill="#555" transform="translate(7 7)" d="M20.6785,12.3616c0-.8963,1.5181-1.0427,1.5,0A.7514.7514,0,0,1,20.6785,12.3616Z"></path><path fill="#555" transform="translate(7 7)" d="M18.2123,12.1273c0-.8963,1.5182-1.0427,1.5,0A.7513.7513,0,0,1,18.2123,12.1273Z"></path><path fill="#555" transform="translate(7 7)" d="M15.7931,11.2291c0-.8982,1.5171-1.0447,1.5,0A.7514.7514,0,0,1,15.7931,11.2291Z"></path><path fill="#555" transform="translate(7 7)" d="M38.7742,16.96c0-.8963,1.5172-1.0427,1.4986,0A.7508.7508,0,0,1,38.7742,16.96Z"></path><path fill="#555" transform="translate(7 7)" d="M7.66,46.8523c0-.8962,1.5172-1.0427,1.5,0A.7514.7514,0,0,1,7.66,46.8523Z"></path><path fill="#555" transform="translate(7 7)" d="M5.16,48.2523c0-.8982,1.5171-1.0446,1.4986,0A.7509.7509,0,0,1,5.16,48.2523Z"></path><path fill="#555" transform="translate(7 7)" d="M2.9606,49.2521c0-.8982,1.5171-1.0447,1.5,0A.7514.7514,0,0,1,2.9606,49.2521Z"></path><path fill="#555" transform="translate(7 7)" d="M.8889,50.8512c0-.8962,1.5172-1.0426,1.5,0A.7514.7514,0,0,1,.8889,50.8512Z"></path><path fill="#555" transform="translate(7 7)" d="M-1.2387,49.3669c0-.8962,1.5172-1.0426,1.5,0A.7514.7514,0,0,1-1.2387,49.3669Z"></path><path fill="#555" transform="translate(7 7)" d="M32.2418,13.0938c0-.8962,1.5181-1.0427,1.5,0A.7514.7514,0,0,1,32.2418,13.0938Z"></path><path fill="#555" transform="translate(7 7)" d="M29.9758,13.4941c0-.8963,1.5181-1.0427,1.5,0A.7514.7514,0,0,1,29.9758,13.4941Z"></path><path fill="#555" transform="translate(7 7)" d="M27.3105,13.7616c0-.8982,1.5171-1.0446,1.4986,0A.7509.7509,0,0,1,27.3105,13.7616Z"></path><path fill="#555" transform="translate(7 7)" d="M24.9215,13.6269c0-.8963,1.5171-1.0427,1.5,0A.7513.7513,0,0,1,24.9215,13.6269Z"></path><path fill="#555" transform="translate(7 7)" d="M29.6536,11.2623c0-.8982,1.5172-1.0447,1.4986,0A.7509.7509,0,0,1,29.6536,11.2623Z"></path><path fill="#555" transform="translate(7 7)" d="M26.9541,10.7624c0-.8982,1.5172-1.0446,1.5,0A.7514.7514,0,0,1,26.9541,10.7624Z"></path><path fill="#555" transform="translate(7 7)" d="M17.5894,8.9621c0-.8962,1.5182-1.0427,1.5,0A.7514.7514,0,0,1,17.5894,8.9621Z"></path><path fill="#555" transform="translate(7 7)" d="M19.8554,9.6279c0-.8962,1.5182-1.0426,1.5,0A.7513.7513,0,0,1,19.8554,9.6279Z"></path><path fill="#555" transform="translate(7 7)" d="M22.2884,10.6277c0-.8963,1.5172-1.0427,1.5,0A.7513.7513,0,0,1,22.2884,10.6277Z"></path><path fill="#555" transform="translate(7 7)" d="M24.6549,11.1607c0-.8962,1.5172-1.0427,1.5,0A.7513.7513,0,0,1,24.6549,11.1607Z"></path><path fill="#555" transform="translate(7 7)" d="M54.3462,56.85c0-.8962,1.5181-1.0427,1.5,0A.7514.7514,0,0,1,54.3462,56.85Z"></path><path fill="#555" transform="translate(7 7)" d="M51.6477,60.9481c0-.8962,1.5172-1.0426,1.4986,0A.7508.7508,0,0,1,51.6477,60.9481Z"></path><path fill="#555" transform="translate(7 7)" d="M53.2469,59.0483c0-.8963,1.5171-1.0427,1.5,0A.7514.7514,0,0,1,53.2469,59.0483Z"></path><path fill="#555" transform="translate(7 7)" d="M61.195,60.5014c0-.8963,1.5181-1.0427,1.5,0A.7514.7514,0,0,1,61.195,60.5014Z"></path><path fill="#555" transform="translate(7 7)" d="M59.9453,62.9476c0-.8962,1.5171-1.0427,1.5,0A.7514.7514,0,0,1,59.9453,62.9476Z"></path><path fill="#555" transform="translate(7 7)" d="M62.3333,63.137c0-.8962,1.5172-1.0427,1.5,0A.7514.7514,0,0,1,62.3333,63.137Z"></path><path fill="#555" transform="translate(7 7)" d="M61.195,56.9982c0-.8963,1.5181-1.0427,1.5,0A.7514.7514,0,0,1,61.195,56.9982Z"></path><path fill="#555" transform="translate(7 7)" d="M59.4786,58.8491c0-.8962,1.5172-1.0427,1.5,0A.7514.7514,0,0,1,59.4786,58.8491Z"></path><path fill="#555" transform="translate(7 7)" d="M57.7788,60.6474c0-.8962,1.5172-1.0426,1.5,0A.7513.7513,0,0,1,57.7788,60.6474Z"></path><path fill="#555" transform="translate(7 7)" d="M55.2463,60.9481c0-.8962,1.5172-1.0426,1.5,0A.7514.7514,0,0,1,55.2463,60.9481Z"></path><path fill="#555" transform="translate(7 7)" d="M56.8562,62.6547c0-.8962,1.5172-1.0427,1.5,0A.7514.7514,0,0,1,56.8562,62.6547Z"></path><path fill="#555" transform="translate(7 7)" d="M59.7012,52.7511c0-.8982,1.5181-1.0446,1.5,0A.7514.7514,0,0,1,59.7012,52.7511Z"></path><path fill="#555" transform="translate(7 7)" d="M52.77,54.95c0-.8963,1.5172-1.0427,1.4986,0A.7508.7508,0,0,1,52.77,54.95Z"></path><path fill="#555" transform="translate(7 7)" d="M36.5385,60.501c0-.8962,1.5171-1.0427,1.5,0A.7513.7513,0,0,1,36.5385,60.501Z"></path><path fill="#555" transform="translate(7 7)" d="M35.2517,57.6482c0-.8962,1.5172-1.0426,1.5,0A.7513.7513,0,0,1,35.2517,57.6482Z"></path><path fill="#555" transform="translate(7 7)" d="M58.6458,56.2834c0-.8982,1.5172-1.0427,1.4986,0A.7509.7509,0,0,1,58.6458,56.2834Z"></path><path fill="#555" transform="translate(7 7)" d="M60.6564,54.8655c0-.8963,1.5171-1.0427,1.5,0A.7514.7514,0,0,1,60.6564,54.8655Z"></path><path fill="#555" transform="translate(7 7)" d="M56.6356,58.4488c0-.8962,1.5172-1.0427,1.5,0A.7514.7514,0,0,1,56.6356,58.4488Z"></path><path fill="#555" transform="translate(7 7)" d="M53.9469,62.7484c0-.8982,1.5171-1.0446,1.5,0A.7514.7514,0,0,1,53.9469,62.7484Z"></path><path fill="#555" transform="translate(7 7)" d="M59.6455,50.0507c0-.8963,1.5172-1.0427,1.4987,0A.7509.7509,0,0,1,59.6455,50.0507Z"></path><path fill="#555" transform="translate(7 7)" d="M57.5787,53.8836c0-.8962,1.5182-1.0427,1.5,0A.7514.7514,0,0,1,57.5787,53.8836Z"></path><path fill="#555" transform="translate(7 7)" d="M55.8458,55.0825c0-.8962,1.5181-1.0427,1.5,0A.7514.7514,0,0,1,55.8458,55.0825Z"></path><path fill="#555" transform="translate(7 7)" d="M57.2458,50.7517c0-.8982,1.5172-1.0447,1.5,0A.7514.7514,0,0,1,57.2458,50.7517Z"></path><path fill="#555" transform="translate(7 7)" d="M.6248,47.9513c0-.8963,1.5171-1.0427,1.4986,0A.7508.7508,0,0,1,.6248,47.9513Z"></path><path fill="#555" transform="translate(7 7)" d="M-1.1288,46.1364c0-.8962,1.5171-1.0427,1.4986,0A.7508.7508,0,0,1-1.1288,46.1364Z"></path><path fill="#555" transform="translate(7 7)" d="M.3167,7.5621c0-.8963,1.5182-1.0427,1.5,0A.7514.7514,0,0,1,.3167,7.5621Z"></path><path fill="#555" transform="translate(7 7)" d="M-.8755,4.08c0-.8962,1.5182-1.0426,1.5,0A.7514.7514,0,0,1-.8755,4.08Z"></path><path fill="#555" transform="translate(7 7)" d="M.37,18.0593c0-.8963,1.5182-1.0427,1.5,0A.7514.7514,0,0,1,.37,18.0593Z"></path><path fill="#555" transform="translate(7 7)" d="M.0707,20.8593c0-.8962,1.5182-1.0427,1.5,0A.7514.7514,0,0,1,.0707,20.8593Z"></path><path fill="#555" transform="translate(7 7)" d="M-.1256,23.2248c0-.8963,1.5181-1.0427,1.5,0A.7514.7514,0,0,1-.1256,23.2248Z"></path><path fill="#555" transform="translate(7 7)" d="M-.1256,25.858c0-.8963,1.5181-1.0427,1.5,0A.7514.7514,0,0,1-.1256,25.858Z"></path><path fill="#555" transform="translate(7 7)" d="M.37,28.0731c0-.8962,1.5172-1.0427,1.5,0A.7514.7514,0,0,1,.37,28.0731Z"></path><path fill="#555" transform="translate(7 7)" d="M1.07,30.8566c0-.8962,1.5182-1.0427,1.5,0A.7514.7514,0,0,1,1.07,30.8566Z"></path><path fill="#555" transform="translate(7 7)" d="M1.87,33.3559c0-.8962,1.5182-1.0426,1.5,0A.7514.7514,0,0,1,1.87,33.3559Z"></path><path fill="#555" transform="translate(7 7)" d="M2.77,35.5546c0-.8963,1.5172-1.0427,1.5,0A.7514.7514,0,0,1,2.77,35.5546Z"></path><path fill="#555" transform="translate(7 7)" d="M3.87,37.7552c0-.8982,1.5181-1.0447,1.5,0A.7514.7514,0,0,1,3.87,37.7552Z"></path><path fill="#555" transform="translate(7 7)" d="M5.6161,39.8542c0-.8962,1.5172-1.0427,1.5,0A.7514.7514,0,0,1,5.6161,39.8542Z"></path><path fill="#555" transform="translate(7 7)" d="M7.4154,41.3538c0-.8962,1.5172-1.0427,1.5,0A.7514.7514,0,0,1,7.4154,41.3538Z"></path><path fill="#555" transform="translate(7 7)" d="M10.1149,43.2537c0-.8982,1.5172-1.0447,1.5,0A.7514.7514,0,0,1,10.1149,43.2537Z"></path><path fill="#555" transform="translate(7 7)" d="M8.4689,62.9476c0-.8962,1.5171-1.0427,1.5,0A.7513.7513,0,0,1,8.4689,62.9476Z"></path><path fill="#555" transform="translate(7 7)" d="M7.1157,61.1473c0-.8962,1.5172-1.0427,1.5,0A.7513.7513,0,0,1,7.1157,61.1473Z"></path><path fill="#555" transform="translate(7 7)" d="M11.468,63.1468c0-.8963,1.5172-1.0427,1.5,0A.7513.7513,0,0,1,11.468,63.1468Z"></path><path fill="#555" transform="translate(7 7)" d="M37.7081,9.7471c.0625-.8943,1.5865-.9353,1.4957.1034A.7512.7512,0,0,1,37.7081,9.7471Z"></path><path fill="#555" transform="translate(7 7)" d="M39.84,11.8793c.0625-.8943,1.5875-.9334,1.4957.1054A.7513.7513,0,0,1,39.84,11.8793Z"></path><path fill="#555" transform="translate(7 7)" d="M61.8,17.86c0-.8962,1.5182-1.0427,1.5,0A.7514.7514,0,0,1,61.8,17.86Z"></path><path fill="#555" transform="translate(7 7)" d="M61.2545,20.5586c0-.8962,1.5171-1.0427,1.5,0A.7514.7514,0,0,1,61.2545,20.5586Z"></path><path fill="#555" transform="translate(7 7)" d="M61.2545,22.8588c0-.8963,1.5171-1.0427,1.5,0A.7514.7514,0,0,1,61.2545,22.8588Z"></path><path fill="#555" transform="translate(7 7)" d="M61.2545,25.7584c0-.8982,1.5171-1.0447,1.5,0A.7514.7514,0,0,1,61.2545,25.7584Z"></path><path fill="#555" transform="translate(7 7)" d="M61.7543,28.7576c0-.8982,1.5172-1.0447,1.5,0A.7514.7514,0,0,1,61.7543,28.7576Z"></path><path fill="#555" transform="translate(7 7)" d="M61.1549,33.7562c0-.8982,1.5172-1.0446,1.5,0A.7514.7514,0,0,1,61.1549,33.7562Z"></path><path fill="#555" transform="translate(7 7)" d="M60.1552,30.5559c0-.8962,1.5171-1.0427,1.5,0A.7514.7514,0,0,1,60.1552,30.5559Z"></path><path fill="#555" transform="translate(7 7)" d="M59.3556,27.258c0-.8982,1.5171-1.0447,1.4986,0A.7509.7509,0,0,1,59.3556,27.258Z"></path><path fill="#555" transform="translate(7 7)" d="M58.9553,24.0577c0-.8963,1.5172-1.0427,1.5,0A.7514.7514,0,0,1,58.9553,24.0577Z"></path><path fill="#555" transform="translate(7 7)" d="M59.1554,20.9589c0-.8963,1.5172-1.0427,1.5,0A.7514.7514,0,0,1,59.1554,20.9589Z"></path><path fill="#555" transform="translate(7 7)" d="M59.501,18.1589c0-.8963,1.5182-1.0427,1.5,0A.7513.7513,0,0,1,59.501,18.1589Z"></path><path fill="#555" transform="translate(7 7)" d="M54.2466,15.4936c0-.8963,1.5172-1.0427,1.5,0A.7514.7514,0,0,1,54.2466,15.4936Z"></path><path fill="#555" transform="translate(7 7)" d="M52.3467,17.06c0-.8962,1.5182-1.0426,1.5,0A.7514.7514,0,0,1,52.3467,17.06Z"></path><path fill="#555" transform="translate(7 7)" d="M52.5469,19.76c0-.8982,1.5181-1.0447,1.5,0A.7514.7514,0,0,1,52.5469,19.76Z"></path><path fill="#555" transform="translate(7 7)" d="M51.6477,22.5581c0-.8963,1.5172-1.0427,1.4986,0A.7508.7508,0,0,1,51.6477,22.5581Z"></path><path fill="#555" transform="translate(7 7)" d="M51.9474,26.1567c0-.8962,1.5172-1.0427,1.5,0A.7513.7513,0,0,1,51.9474,26.1567Z"></path><path fill="#555" transform="translate(7 7)" d="M46.3815,27.8906c0-.8962,1.5182-1.0427,1.5,0A.7514.7514,0,0,1,46.3815,27.8906Z"></path><path fill="#555" transform="translate(7 7)" d="M49.0478,27.2248c0-.8982,1.5181-1.0447,1.5,0A.7514.7514,0,0,1,49.0478,27.2248Z"></path><path fill="#555" transform="translate(7 7)" d="M52.3467,29.0563c0-.8962,1.5182-1.0427,1.5,0A.7514.7514,0,0,1,52.3467,29.0563Z"></path><path fill="#555" transform="translate(7 7)" d="M50.5035,30.4231c0-.8962,1.5181-1.0427,1.5,0A.7514.7514,0,0,1,50.5035,30.4231Z"></path><path fill="#555" transform="translate(7 7)" d="M47.8479,30.6887c0-.8963,1.5182-1.0427,1.5,0A.7513.7513,0,0,1,47.8479,30.6887Z"></path><path fill="#555" transform="translate(7 7)" d="M45.7157,30.9562c0-.8962,1.5172-1.0427,1.5,0A.7514.7514,0,0,1,45.7157,30.9562Z"></path><path fill="#555" transform="translate(7 7)" d="M45.5722,33.7562c0-.8982,1.5171-1.0446,1.5,0A.7514.7514,0,0,1,45.5722,33.7562Z"></path><path fill="#555" transform="translate(7 7)" d="M48.504,33.4887c0-.8962,1.5181-1.0427,1.5,0A.7514.7514,0,0,1,48.504,33.4887Z"></path><path fill="#555" transform="translate(7 7)" d="M51.0375,32.6882c0-.8963,1.5172-1.0427,1.4986,0A.7508.7508,0,0,1,51.0375,32.6882Z"></path><path fill="#555" transform="translate(7 7)" d="M50.6479,35.2226c0-.8982,1.5172-1.0446,1.4987,0A.7509.7509,0,0,1,50.6479,35.2226Z"></path><path fill="#555" transform="translate(7 7)" d="M49.1815,37.3549c0-.8963,1.5172-1.0427,1.4987,0A.7509.7509,0,0,1,49.1815,37.3549Z"></path><path fill="#555" transform="translate(7 7)" d="M47.7044,35.4882c0-.8963,1.5182-1.0427,1.5,0A.7514.7514,0,0,1,47.7044,35.4882Z"></path><path fill="#555" transform="translate(7 7)" d="M45.0391,36.154c0-.8962,1.5172-1.0427,1.5,0A.7513.7513,0,0,1,45.0391,36.154Z"></path><path fill="#555" transform="translate(7 7)" d="M46.772,38.421c0-.8963,1.5172-1.0427,1.4987,0A.7509.7509,0,0,1,46.772,38.421Z"></path><path fill="#555" transform="translate(7 7)" d="M44.5051,38.954c0-.8962,1.5181-1.0426,1.5,0A.7514.7514,0,0,1,44.5051,38.954Z"></path><path fill="#555" transform="translate(7 7)" d="M52.8466,31.6552c0-.8962,1.5181-1.0427,1.5,0A.7513.7513,0,0,1,52.8466,31.6552Z"></path><path fill="#555" transform="translate(7 7)" d="M53.447,34.3557c0-.8963,1.5172-1.0427,1.5,0A.7514.7514,0,0,1,53.447,34.3557Z"></path><path fill="#555" transform="translate(7 7)" d="M57.7457,16.1594c0-.8963,1.5171-1.0427,1.4995,0A.7513.7513,0,0,1,57.7457,16.1594Z"></path><path fill="#555" transform="translate(7 7)" d="M56.8455,18.36c0-.8963,1.5182-1.0427,1.5,0A.7514.7514,0,0,1,56.8455,18.36Z"></path><path fill="#555" transform="translate(7 7)" d="M56.8455,21.0585c0-.8963,1.5182-1.0427,1.5,0A.7514.7514,0,0,1,56.8455,21.0585Z"></path><path fill="#555" transform="translate(7 7)" d="M56.8455,23.6574c0-.8963,1.5182-1.0427,1.5,0A.7513.7513,0,0,1,56.8455,23.6574Z"></path><path fill="#555" transform="translate(7 7)" d="M57.2458,26.557c0-.8963,1.5172-1.0427,1.5,0A.7514.7514,0,0,1,57.2458,26.557Z"></path><path fill="#555" transform="translate(7 7)" d="M57.6461,29.2574c0-.8982,1.5171-1.0446,1.4986,0A.7509.7509,0,0,1,57.6461,29.2574Z"></path><path fill="#555" transform="translate(7 7)" d="M58.5452,32.1551c0-.8962,1.5182-1.0427,1.5,0A.7513.7513,0,0,1,58.5452,32.1551Z"></path><path fill="#555" transform="translate(7 7)" d="M59.3448,34.9551c0-.8962,1.5182-1.0427,1.5,0A.7514.7514,0,0,1,59.3448,34.9551Z"></path><path fill="#555" transform="translate(7 7)" d="M60.7448,37.9543c0-.8962,1.5172-1.0427,1.5,0A.7514.7514,0,0,1,60.7448,37.9543Z"></path><path fill="#555" transform="translate(7 7)" d="M62.1449,40.5532c0-.8962,1.5171-1.0427,1.4986,0A.7508.7508,0,0,1,62.1449,40.5532Z"></path><path fill="#555" transform="translate(7 7)" d="M54.5463,17.659c0-.8963,1.5182-1.0427,1.5,0A.7513.7513,0,0,1,54.5463,17.659Z"></path><path fill="#555" transform="translate(7 7)" d="M54.6469,20.26c0-.8982,1.5171-1.0447,1.4986,0A.7509.7509,0,0,1,54.6469,20.26Z"></path><path fill="#555" transform="translate(7 7)" d="M54.2466,22.5581c0-.8963,1.5172-1.0427,1.5,0A.7514.7514,0,0,1,54.2466,22.5581Z"></path><path fill="#555" transform="translate(7 7)" d="M54.3462,25.5573c0-.8963,1.5181-1.0427,1.5,0A.7514.7514,0,0,1,54.3462,25.5573Z"></path><path fill="#555" transform="translate(7 7)" d="M54.846,28.7576c0-.8982,1.5182-1.0447,1.5,0A.7514.7514,0,0,1,54.846,28.7576Z"></path><path fill="#555" transform="translate(7 7)" d="M55.7462,31.6552c0-.8962,1.5172-1.0427,1.5,0A.7513.7513,0,0,1,55.7462,31.6552Z"></path><path fill="#555" transform="translate(7 7)" d="M56.5458,34.4553c0-.8963,1.5181-1.0427,1.5,0A.7514.7514,0,0,1,56.5458,34.4553Z"></path><path fill="#555" transform="translate(7 7)" d="M57.5455,37.1538c0-.8963,1.5182-1.0427,1.5,0A.7513.7513,0,0,1,57.5455,37.1538Z"></path><path fill="#555" transform="translate(7 7)" d="M58.6458,39.7546c0-.8982,1.5172-1.0446,1.4986,0A.7509.7509,0,0,1,58.6458,39.7546Z"></path><path fill="#555" transform="translate(7 7)" d="M60.245,42.2539c0-.8982,1.5172-1.0446,1.5,0A.7514.7514,0,0,1,60.245,42.2539Z"></path><path fill="#555" transform="translate(7 7)" d="M60.4451,46.2529c0-.8982,1.5172-1.0447,1.5,0A.7514.7514,0,0,1,60.4451,46.2529Z"></path><path fill="#555" transform="translate(7 7)" d="M32.519,10.161c0-.8962,1.5172-1.0427,1.5,0A.7513.7513,0,0,1,32.519,10.161Z"></path><path fill="#555" transform="translate(7 7)" d="M20.2557,4.5629c0-.8962,1.5172-1.0427,1.5,0A.7514.7514,0,0,1,20.2557,4.5629Z"></path><path fill="#555" transform="translate(7 7)" d="M27.0537,7.6617c0-.8963,1.5181-1.0427,1.5,0A.7513.7513,0,0,1,27.0537,7.6617Z"></path><path fill="#555" transform="translate(7 7)" d="M22.3782,5.2307c0-.8982,1.5172-1.0447,1.5,0A.7514.7514,0,0,1,22.3782,5.2307Z"></path><path fill="#555" transform="translate(7 7)" d="M29.843,6.1621c0-.8963,1.5172-1.0427,1.5,0A.7513.7513,0,0,1,29.843,6.1621Z"></path><path fill="#555" transform="translate(7 7)" d="M23.2549.8647c0-.8963,1.5172-1.0427,1.5,0A.7514.7514,0,0,1,23.2549.8647Z"></path><path fill="#555" transform="translate(7 7)" d="M34.5185,12.961c0-.8962,1.5172-1.0427,1.5,0A.7514.7514,0,0,1,34.5185,12.961Z"></path><path fill="#555" transform="translate(7 7)" d="M32.3853,7.4957c0-.8962,1.5181-1.0427,1.5,0A.7514.7514,0,0,1,32.3853,7.4957Z"></path><path fill="#555" transform="translate(7 7)" d="M35.1746,7.896c0-.8963,1.5171-1.0427,1.5,0A.7514.7514,0,0,1,35.1746,7.896Z"></path><path fill="#555" transform="translate(7 7)" d="M30.4092.9643c0-.8963,1.5172-1.0427,1.5,0A.7514.7514,0,0,1,30.4092.9643Z"></path><path fill="#555" transform="translate(7 7)" d="M32.5522,1.8644c0-.8962,1.5182-1.0427,1.5,0A.7514.7514,0,0,1,32.5522,1.8644Z"></path><path fill="#555" transform="translate(7 7)" d="M34.4521,3.364c0-.8962,1.5172-1.0427,1.5,0A.7514.7514,0,0,1,34.4521,3.364Z"></path><path fill="#555" transform="translate(7 7)" d="M36.3744,5.3635c0-.8963,1.5172-1.0427,1.5,0A.7514.7514,0,0,1,36.3744,5.3635Z"></path><path fill="#555" transform="translate(7 7)" d="M37.7071,6.9626c0-.8962,1.5181-1.0426,1.5,0A.7514.7514,0,0,1,37.7071,6.9626Z"></path><path fill="#555" transform="translate(7 7)" d="M39.7066,8.429c0-.8962,1.5181-1.0426,1.5,0A.7514.7514,0,0,1,39.7066,8.429Z"></path><path fill="#555" transform="translate(7 7)" d="M41.5059,9.7627c0-.8982,1.5181-1.0447,1.5,0A.7514.7514,0,0,1,41.5059,9.7627Z"></path><path fill="#555" transform="translate(7 7)" d="M43.3062,11.1607c0-.8962,1.5171-1.0427,1.4986,0A.7508.7508,0,0,1,43.3062,11.1607Z"></path><path fill="#555" transform="translate(7 7)" d="M45.6054,12.262c0-.8982,1.5171-1.0446,1.5,0A.7514.7514,0,0,1,45.6054,12.262Z"></path><path fill="#555" transform="translate(7 7)" d="M47.5814,13.7616c0-.8982,1.5181-1.0446,1.5,0A.7514.7514,0,0,1,47.5814,13.7616Z"></path><path fill="#555" transform="translate(7 7)" d="M48.6485,11.6274c0-.8962,1.5172-1.0427,1.5,0A.7513.7513,0,0,1,48.6485,11.6274Z"></path><path fill="#555" transform="translate(7 7)" d="M50.1149,9.7627c0-.8982,1.5172-1.0447,1.4986,0A.7509.7509,0,0,1,50.1149,9.7627Z"></path><path fill="#555" transform="translate(7 7)" d="M45.0489,15.06c0-.8963,1.5181-1.0427,1.5,0A.7514.7514,0,0,1,45.0489,15.06Z"></path><path fill="#555" transform="translate(7 7)" d="M42.65,16.6593c0-.8963,1.5172-1.0427,1.4986,0A.7508.7508,0,0,1,42.65,16.6593Z"></path><path fill="#555" transform="translate(7 7)" d="M41.05,18.36c0-.8963,1.5182-1.0427,1.5,0A.7514.7514,0,0,1,41.05,18.36Z"></path><path fill="#555" transform="translate(7 7)" d="M19.6123,1.4641c0-.8962,1.5172-1.0427,1.5,0A.7514.7514,0,0,1,19.6123,1.4641Z"></path><path fill="#555" transform="translate(7 7)" d="M18.1127,3.5632c0-.8963,1.5172-1.0427,1.5,0A.7514.7514,0,0,1,18.1127,3.5632Z"></path><path fill="#555" transform="translate(7 7)" d="M16.6131,5.9629c0-.8962,1.5172-1.0427,1.5,0A.7514.7514,0,0,1,16.6131,5.9629Z"></path><path fill="#555" transform="translate(7 7)" d="M14.96,8.062c0-.8963,1.5171-1.0427,1.4986,0A.7508.7508,0,0,1,14.96,8.062Z"></path><path fill="#555" transform="translate(7 7)" d="M13.7135,10.161c0-.8962,1.5182-1.0427,1.5,0A.7513.7513,0,0,1,13.7135,10.161Z"></path><path fill="#555" transform="translate(7 7)" d="M12.66,12.3616c0-.8963,1.5182-1.0427,1.5,0A.7514.7514,0,0,1,12.66,12.3616Z"></path><path fill="#555" transform="translate(7 7)" d="M14.8568,13.4609c0-.8962,1.5181-1.0427,1.5,0A.7514.7514,0,0,1,14.8568,13.4609Z"></path><path fill="#555" transform="translate(7 7)" d="M14.2573,16.0266c0-.8962,1.5172-1.0427,1.5,0A.7514.7514,0,0,1,14.2573,16.0266Z"></path><path fill="#555" transform="translate(7 7)" d="M19.6563,14.56c0-.8962,1.5171-1.0427,1.4986,0A.7508.7508,0,0,1,19.6563,14.56Z"></path><path fill="#555" transform="translate(7 7)" d="M17.0769,14.527c0-.8962,1.5172-1.0427,1.5,0A.7514.7514,0,0,1,17.0769,14.527Z"></path><path fill="#555" transform="translate(7 7)" d="M28.2428,16.2941c0-.8982,1.5182-1.0427,1.5,0A.7514.7514,0,0,1,28.2428,16.2941Z"></path><path fill="#555" transform="translate(7 7)" d="M25.7211,16.96c0-.8963,1.5171-1.0427,1.5,0A.7513.7513,0,0,1,25.7211,16.96Z"></path><path fill="#555" transform="translate(7 7)" d="M23.4883,15.8606c0-.8962,1.5171-1.0426,1.5,0A.7513.7513,0,0,1,23.4883,15.8606Z"></path><path fill="#555" transform="translate(7 7)" d="M20.9118,16.8272c0-.8963,1.5172-1.0427,1.5,0A.7514.7514,0,0,1,20.9118,16.8272Z"></path><path fill="#555" transform="translate(7 7)" d="M18.5228,17.36c0-.8962,1.5172-1.0426,1.5,0A.7514.7514,0,0,1,18.5228,17.36Z"></path><path fill="#555" transform="translate(7 7)" d="M15.8565,17.2275c0-.8982,1.5182-1.0447,1.5,0A.7514.7514,0,0,1,15.8565,17.2275Z"></path><path fill="#555" transform="translate(7 7)" d="M12.1144,14.8609c0-.8962,1.5171-1.0427,1.5,0A.7514.7514,0,0,1,12.1144,14.8609Z"></path><path fill="#555" transform="translate(7 7)" d="M12.3145,17.659c0-.8963,1.5172-1.0427,1.4986,0A.7508.7508,0,0,1,12.3145,17.659Z"></path><path fill="#555" transform="translate(7 7)" d="M14.0133,19.36c0-.8962,1.5181-1.0427,1.5,0A.7514.7514,0,0,1,14.0133,19.36Z"></path><path fill="#555" transform="translate(7 7)" d="M16.2129,20.76c0-.8982,1.5181-1.0446,1.5,0A.7514.7514,0,0,1,16.2129,20.76Z"></path><path fill="#555" transform="translate(7 7)" d="M18.5121,19.4925c0-.8963,1.5181-1.0427,1.5,0A.7513.7513,0,0,1,18.5121,19.4925Z"></path><path fill="#555" transform="translate(7 7)" d="M21.0455,19.76c0-.8982,1.5172-1.0447,1.5,0A.7514.7514,0,0,1,21.0455,19.76Z"></path><path fill="#555" transform="translate(7 7)" d="M23.8446,18.2936c0-.8982,1.5172-1.0447,1.5,0A.7514.7514,0,0,1,23.8446,18.2936Z"></path><path fill="#555" transform="translate(7 7)" d="M38.7839,20.293c0-.8981,1.5172-1.0446,1.5,0A.7514.7514,0,0,1,38.7839,20.293Z"></path><path fill="#555" transform="translate(7 7)" d="M36.8382,19.0922c0-.8962,1.5172-1.0427,1.5,0A.7514.7514,0,0,1,36.8382,19.0922Z"></path><path fill="#555" transform="translate(7 7)" d="M34.5078,18.5591c0-.8962,1.5181-1.0427,1.5,0A.7514.7514,0,0,1,34.5078,18.5591Z"></path><path fill="#555" transform="translate(7 7)" d="M31.4529,18.5591c0-.8962,1.5172-1.0427,1.5,0A.7514.7514,0,0,1,31.4529,18.5591Z"></path><path fill="#555" transform="translate(7 7)" d="M29.0532,18.9594c0-.8962,1.5181-1.0427,1.5,0A.7514.7514,0,0,1,29.0532,18.9594Z"></path><path fill="#555" transform="translate(7 7)" d="M27.01,19.26c0-.8982,1.5181-1.0446,1.5,0A.7514.7514,0,0,1,27.01,19.26Z"></path><path fill="#555" transform="translate(7 7)" d="M24.7877,20.4258c0-.8962,1.5172-1.0427,1.5,0A.7514.7514,0,0,1,24.7877,20.4258Z"></path><path fill="#555" transform="translate(7 7)" d="M22.9113,21.4919c0-.8962,1.5171-1.0426,1.5,0A.7514.7514,0,0,1,22.9113,21.4919Z"></path><path fill="#555" transform="translate(7 7)" d="M20.7888,23.0911c0-.8962,1.5172-1.0427,1.5,0A.7514.7514,0,0,1,20.7888,23.0911Z"></path><path fill="#555" transform="translate(7 7)" d="M18.6126,22.6576c0-.8962,1.5172-1.0426,1.5,0A.7513.7513,0,0,1,18.6126,22.6576Z"></path><path fill="#555" transform="translate(7 7)" d="M42.2391,13.4941c0-.8963,1.5181-1.0427,1.5,0A.7514.7514,0,0,1,42.2391,13.4941Z"></path><path fill="#555" transform="translate(7 7)" d="M34.9188,10.2957c0-.8982,1.5171-1.0446,1.5,0A.7514.7514,0,0,1,34.9188,10.2957Z"></path><path fill="#555" transform="translate(7 7)" d="M40.1176,15.0933c0-.8963,1.5171-1.0427,1.4986,0A.7508.7508,0,0,1,40.1176,15.0933Z"></path><path fill="#555" transform="translate(7 7)" d="M37.5743,13.2285c0-.8982,1.5172-1.0446,1.5,0A.7514.7514,0,0,1,37.5743,13.2285Z"></path><path fill="#555" transform="translate(7 7)" d="M29.5765,8.5618c0-.8962,1.5171-1.0427,1.5,0A.7514.7514,0,0,1,29.5765,8.5618Z"></path><path fill="#555" transform="translate(7 7)" d="M24.2546,8.3959c0-.8963,1.5172-1.0427,1.5,0A.7514.7514,0,0,1,24.2546,8.3959Z"></path><path fill="#555" transform="translate(7 7)" d="M21.6557,7.6617c0-.8963,1.5172-1.0427,1.4987,0A.7508.7508,0,0,1,21.6557,7.6617Z"></path><path fill="#555" transform="translate(7 7)" d="M27.3534,5.0628c0-.8963,1.5182-1.0427,1.5,0A.7514.7514,0,0,1,27.3534,5.0628Z"></path><path fill="#555" transform="translate(7 7)" d="M16.9031.9643c0-.8963,1.5172-1.0427,1.5,0A.7514.7514,0,0,1,16.9031.9643Z"></path><path fill="#555" transform="translate(7 7)" d="M15.4572,2.9637c0-.8962,1.5172-1.0427,1.5,0A.7514.7514,0,0,1,15.4572,2.9637Z"></path><path fill="#555" transform="translate(7 7)" d="M24.7545,5.5626c0-.8962,1.5172-1.0427,1.5,0A.7514.7514,0,0,1,24.7545,5.5626Z"></path><path fill="#555" transform="translate(7 7)" d="M33.5754,5.4962c0-.8962,1.5172-1.0426,1.5,0A.7514.7514,0,0,1,33.5754,5.4962Z"></path><path fill="#555" transform="translate(7 7)" d="M31.1991,3.93c0-.8963,1.5171-1.0427,1.4986,0A.7508.7508,0,0,1,31.1991,3.93Z"></path><path fill="#555" transform="translate(7 7)" d="M13.2576,1.4641c0-.8962,1.5172-1.0427,1.5,0A.7514.7514,0,0,1,13.2576,1.4641Z"></path><path fill="#555" transform="translate(7 7)" d="M12.2579,3.6627c0-.8962,1.5171-1.0426,1.5,0A.7513.7513,0,0,1,12.2579,3.6627Z"></path><path fill="#555" transform="translate(7 7)" d="M10.7143,1.3645c0-.8962,1.5182-1.0426,1.5,0A.7514.7514,0,0,1,10.7143,1.3645Z"></path><path fill="#555" transform="translate(7 7)" d="M10.0583,3.8639c0-.8963,1.5181-1.0427,1.5,0A.7514.7514,0,0,1,10.0583,3.8639Z"></path><path fill="#555" transform="translate(7 7)" d="M13.6579,5.6622c0-.8962,1.5172-1.0427,1.4986,0A.7508.7508,0,0,1,13.6579,5.6622Z"></path><path fill="#555" transform="translate(7 7)" d="M12.0577,8.5618c0-.8962,1.5182-1.0427,1.5,0A.7514.7514,0,0,1,12.0577,8.5618Z"></path><path fill="#555" transform="translate(7 7)" d="M10.6655,11.1607c0-.8962,1.5172-1.0427,1.5,0A.7513.7513,0,0,1,10.6655,11.1607Z"></path><path fill="#555" transform="translate(7 7)" d="M9.8581,14.56c0-.8962,1.5182-1.0427,1.5,0A.7514.7514,0,0,1,9.8581,14.56Z"></path><path fill="#555" transform="translate(7 7)" d="M9.5584,17.659c0-.8963,1.5181-1.0427,1.5,0A.7513.7513,0,0,1,9.5584,17.659Z"></path><path fill="#555" transform="translate(7 7)" d="M11.9806,20.293c0-.8981,1.5182-1.0446,1.5,0A.7514.7514,0,0,1,11.9806,20.293Z"></path><path fill="#555" transform="translate(7 7)" d="M9.6121,20.76c0-.8982,1.5172-1.0446,1.5,0A.7514.7514,0,0,1,9.6121,20.76Z"></path><path fill="#555" transform="translate(7 7)" d="M13.7243,22.1578c0-.8963,1.5171-1.0427,1.5,0A.7513.7513,0,0,1,13.7243,22.1578Z"></path><path fill="#555" transform="translate(7 7)" d="M11.8576,24.0245c0-.8963,1.5181-1.0427,1.5,0A.7514.7514,0,0,1,11.8576,24.0245Z"></path><path fill="#555" transform="translate(7 7)" d="M9.4481,25.3581c0-.8963,1.5172-1.0427,1.5,0A.7514.7514,0,0,1,9.4481,25.3581Z"></path><path fill="#555" transform="translate(7 7)" d="M11.6477,26.3578c0-.8962,1.5172-1.0427,1.5,0A.7514.7514,0,0,1,11.6477,26.3578Z"></path><path fill="#555" transform="translate(7 7)" d="M10.7143,28.7576c0-.8982,1.5182-1.0447,1.5,0A.7514.7514,0,0,1,10.7143,28.7576Z"></path><path fill="#555" transform="translate(7 7)" d="M8.1154,27.957c0-.8962,1.5172-1.0427,1.5,0A.7514.7514,0,0,1,8.1154,27.957Z"></path><path fill="#555" transform="translate(7 7)" d="M5.3164,27.4571c0-.8962,1.5171-1.0427,1.4986,0A.7508.7508,0,0,1,5.3164,27.4571Z"></path><path fill="#555" transform="translate(7 7)" d="M6.116,30.056c0-.8962,1.5171-1.0426,1.5,0A.7514.7514,0,0,1,6.116,30.056Z"></path><path fill="#555" transform="translate(7 7)" d="M8.6153,30.4563c0-.8962,1.5172-1.0427,1.5,0A.7514.7514,0,0,1,8.6153,30.4563Z"></path><path fill="#555" transform="translate(7 7)" d="M9.7146,32.7565c0-.8982,1.5182-1.0446,1.5,0A.7514.7514,0,0,1,9.7146,32.7565Z"></path><path fill="#555" transform="translate(7 7)" d="M6.9156,32.655c0-.8963,1.5171-1.0427,1.5,0A.7513.7513,0,0,1,6.9156,32.655Z"></path><path fill="#555" transform="translate(7 7)" d="M8.6153,35.455c0-.8963,1.5172-1.0427,1.5,0A.7514.7514,0,0,1,8.6153,35.455Z"></path><path fill="#555" transform="translate(7 7)" d="M12.5137,42.7538c0-.8982,1.5181-1.0446,1.5,0A.7514.7514,0,0,1,12.5137,42.7538Z"></path><path fill="#555" transform="translate(7 7)" d="M12.9579,45.2531c0-.8982,1.5172-1.0446,1.5,0A.7514.7514,0,0,1,12.9579,45.2531Z"></path><path fill="#555" transform="translate(7 7)" d="M15.2571,45.2531c0-.8982,1.5171-1.0446,1.5,0A.7514.7514,0,0,1,15.2571,45.2531Z"></path><path fill="#555" transform="translate(7 7)" d="M17.4567,43.3533c0-.8963,1.5171-1.0427,1.5,0A.7514.7514,0,0,1,17.4567,43.3533Z"></path><path fill="#555" transform="translate(7 7)" d="M19.4561,41.553c0-.8963,1.5172-1.0427,1.5,0A.7514.7514,0,0,1,19.4561,41.553Z"></path><path fill="#555" transform="translate(7 7)" d="M21.2555,39.9538c0-.8963,1.5171-1.0427,1.5,0A.7514.7514,0,0,1,21.2555,39.9538Z"></path><path fill="#555" transform="translate(7 7)" d="M23.1553,38.3546c0-.8962,1.5172-1.0427,1.4987,0A.7509.7509,0,0,1,23.1553,38.3546Z"></path><path fill="#555" transform="translate(7 7)" d="M25.1548,36.4547c0-.8962,1.5172-1.0427,1.4986,0A.7508.7508,0,0,1,25.1548,36.4547Z"></path><path fill="#555" transform="translate(7 7)" d="M26.8536,34.5548c0-.8962,1.5181-1.0426,1.5,0A.7514.7514,0,0,1,26.8536,34.5548Z"></path><path fill="#555" transform="translate(7 7)" d="M28.7534,32.9557c0-.8963,1.5172-1.0427,1.5,0A.7514.7514,0,0,1,28.7534,32.9557Z"></path><path fill="#555" transform="translate(7 7)" d="M31.1532,32.0555c0-.8962,1.5172-1.0427,1.4986,0A.7508.7508,0,0,1,31.1532,32.0555Z"></path><path fill="#555" transform="translate(7 7)" d="M33.8517,32.2566c0-.8982,1.5181-1.0446,1.5,0A.7514.7514,0,0,1,33.8517,32.2566Z"></path><path fill="#555" transform="translate(7 7)" d="M32.0524,35.0547c0-.8962,1.5181-1.0427,1.5,0A.7514.7514,0,0,1,32.0524,35.0547Z"></path><path fill="#555" transform="translate(7 7)" d="M29.7532,36.0544c0-.8962,1.5171-1.0427,1.5,0A.7514.7514,0,0,1,29.7532,36.0544Z"></path><path fill="#555" transform="translate(7 7)" d="M27.6541,37.3549c0-.8963,1.5172-1.0427,1.4986,0A.7508.7508,0,0,1,27.6541,37.3549Z"></path><path fill="#555" transform="translate(7 7)" d="M14.2466,25.0906c0-.8963,1.5181-1.0427,1.5,0A.7514.7514,0,0,1,14.2466,25.0906Z"></path><path fill="#555" transform="translate(7 7)" d="M18.9123,24.8582c0-.8962,1.5172-1.0427,1.5,0A.7514.7514,0,0,1,18.9123,24.8582Z"></path><path fill="#555" transform="translate(7 7)" d="M16.7127,26.2582c0-.8982,1.5182-1.0446,1.5,0A.7514.7514,0,0,1,16.7127,26.2582Z"></path><path fill="#555" transform="translate(7 7)" d="M15.9131,29.2574c0-.8982,1.5172-1.0446,1.5,0A.7514.7514,0,0,1,15.9131,29.2574Z"></path><path fill="#555" transform="translate(7 7)" d="M15.3137,31.5556c0-.8962,1.5172-1.0426,1.4986,0A.7508.7508,0,0,1,15.3137,31.5556Z"></path><path fill="#555" transform="translate(7 7)" d="M13.5134,33.7562c0-.8982,1.5181-1.0446,1.5,0A.7514.7514,0,0,1,13.5134,33.7562Z"></path><path fill="#555" transform="translate(7 7)" d="M12.9139,36.9546c0-.8963,1.5172-1.0427,1.5,0A.7514.7514,0,0,1,12.9139,36.9546Z"></path><path fill="#555" transform="translate(7 7)" d="M15.013,35.7557c0-.8982,1.5181-1.0447,1.5,0A.7514.7514,0,0,1,15.013,35.7557Z"></path><path fill="#555" transform="translate(7 7)" d="M16.6131,33.7562c0-.8982,1.5172-1.0446,1.5,0A.7514.7514,0,0,1,16.6131,33.7562Z"></path><path fill="#555" transform="translate(7 7)" d="M17.7125,31.6552c0-.8962,1.5181-1.0427,1.5,0A.7513.7513,0,0,1,17.7125,31.6552Z"></path><path fill="#555" transform="translate(7 7)" d="M20.4119,30.5559c0-.8962,1.5172-1.0427,1.5,0A.7514.7514,0,0,1,20.4119,30.5559Z"></path><path fill="#555" transform="translate(7 7)" d="M22.7551,29.357c0-.8962,1.5171-1.0427,1.5,0A.7513.7513,0,0,1,22.7551,29.357Z"></path><path fill="#555" transform="translate(7 7)" d="M24.0545,26.8577c0-.8963,1.5182-1.0427,1.5,0A.7514.7514,0,0,1,24.0545,26.8577Z"></path><path fill="#555" transform="translate(7 7)" d="M25.9544,24.8582c0-.8962,1.5172-1.0427,1.5,0A.7514.7514,0,0,1,25.9544,24.8582Z"></path><path fill="#555" transform="translate(7 7)" d="M35.0516,24.3584c0-.8963,1.5181-1.0427,1.5,0A.7514.7514,0,0,1,35.0516,24.3584Z"></path><path fill="#555" transform="translate(7 7)" d="M32.519,24.0245c0-.8963,1.5172-1.0427,1.5,0A.7514.7514,0,0,1,32.519,24.0245Z"></path><path fill="#555" transform="translate(7 7)" d="M34.5517,27.258c0-.8982,1.5181-1.0447,1.5,0A.7514.7514,0,0,1,34.5517,27.258Z"></path><path fill="#555" transform="translate(7 7)" d="M30.5088,24.825c0-.8962,1.5182-1.0427,1.5,0A.7514.7514,0,0,1,30.5088,24.825Z"></path><path fill="#555" transform="translate(7 7)" d="M31.8522,26.9573c0-.8963,1.5182-1.0427,1.5,0A.7514.7514,0,0,1,31.8522,26.9573Z"></path><path fill="#555" transform="translate(7 7)" d="M33.1526,29.2574c0-.8982,1.5172-1.0446,1.4987,0A.7509.7509,0,0,1,33.1526,29.2574Z"></path><path fill="#555" transform="translate(7 7)" d="M30.4532,29.5562c0-.8963,1.5171-1.0427,1.5,0A.7514.7514,0,0,1,30.4532,29.5562Z"></path><path fill="#555" transform="translate(7 7)" d="M28.0534,30.4563c0-.8962,1.5182-1.0427,1.5,0A.7514.7514,0,0,1,28.0534,30.4563Z"></path><path fill="#555" transform="translate(7 7)" d="M25.9544,31.9559c0-.8962,1.5172-1.0427,1.5,0A.7514.7514,0,0,1,25.9544,31.9559Z"></path><path fill="#555" transform="translate(7 7)" d="M24.1551,33.5551c0-.8962,1.5171-1.0427,1.4986,0A.7508.7508,0,0,1,24.1551,33.5551Z"></path><path fill="#555" transform="translate(7 7)" d="M22.4553,35.3554c0-.8962,1.5172-1.0427,1.5,0A.7514.7514,0,0,1,22.4553,35.3554Z"></path><path fill="#555" transform="translate(7 7)" d="M20.8552,37.2553c0-.8982,1.5181-1.0447,1.5,0A.7514.7514,0,0,1,20.8552,37.2553Z"></path><path fill="#555" transform="translate(7 7)" d="M18.6565,38.7549c0-.8982,1.5172-1.0447,1.4987,0A.7509.7509,0,0,1,18.6565,38.7549Z"></path><path fill="#555" transform="translate(7 7)" d="M17.0564,40.8539c0-.8962,1.5181-1.0427,1.5,0A.7514.7514,0,0,1,17.0564,40.8539Z"></path><path fill="#555" transform="translate(7 7)" d="M14.8568,42.2539c0-.8982,1.5181-1.0446,1.5,0A.7514.7514,0,0,1,14.8568,42.2539Z"></path><path fill="#555" transform="translate(7 7)" d="M13.0575,39.9538c0-.8963,1.5181-1.0427,1.5,0A.7514.7514,0,0,1,13.0575,39.9538Z"></path><path fill="#555" transform="translate(7 7)" d="M15.2571,38.8545c0-.8963,1.5171-1.0427,1.5,0A.7514.7514,0,0,1,15.2571,38.8545Z"></path><path fill="#555" transform="translate(7 7)" d="M17.0564,37.1538c0-.8963,1.5181-1.0427,1.5,0A.7513.7513,0,0,1,17.0564,37.1538Z"></path><path fill="#555" transform="translate(7 7)" d="M18.7561,35.1543c0-.8963,1.5172-1.0427,1.5,0A.7513.7513,0,0,1,18.7561,35.1543Z"></path><path fill="#555" transform="translate(7 7)" d="M20.2557,33.4555c0-.8962,1.5172-1.0427,1.5,0A.7514.7514,0,0,1,20.2557,33.4555Z"></path><path fill="#555" transform="translate(7 7)" d="M22.4553,31.8563c0-.8962,1.5172-1.0426,1.5,0A.7514.7514,0,0,1,22.4553,31.8563Z"></path><path fill="#555" transform="translate(7 7)" d="M25.1548,30.056c0-.8962,1.5172-1.0426,1.4986,0A.7508.7508,0,0,1,25.1548,30.056Z"></path><path fill="#555" transform="translate(7 7)" d="M29.1537,27.3576c0-.8963,1.5172-1.0427,1.4986,0A.7508.7508,0,0,1,29.1537,27.3576Z"></path><path fill="#555" transform="translate(7 7)" d="M26.5538,27.5567c0-.8962,1.5182-1.0427,1.5,0A.7514.7514,0,0,1,26.5538,27.5567Z"></path><path fill="#555" transform="translate(7 7)" d="M28.3073,25.2585c0-.8982,1.5171-1.0446,1.5,0A.7514.7514,0,0,1,28.3073,25.2585Z"></path><path fill="#555" transform="translate(7 7)" d="M20.5115,27.5567c0-.8962,1.5182-1.0427,1.5,0A.7514.7514,0,0,1,20.5115,27.5567Z"></path><path fill="#555" transform="translate(7 7)" d="M22.2113,25.4577c0-.8963,1.5181-1.0427,1.4995,0A.7513.7513,0,0,1,22.2113,25.4577Z"></path><path fill="#555" transform="translate(7 7)" d="M24.1551,23.5578c0-.8962,1.5171-1.0427,1.4986,0A.7508.7508,0,0,1,24.1551,23.5578Z"></path><path fill="#555" transform="translate(7 7)" d="M18.3129,28.5565c0-.8963,1.5172-1.0427,1.4986,0A.7508.7508,0,0,1,18.3129,28.5565Z"></path><path fill="#555" transform="translate(7 7)" d="M13.7135,27.49c0-.8962,1.5182-1.0427,1.5,0A.7514.7514,0,0,1,13.7135,27.49Z"></path><path fill="#555" transform="translate(7 7)" d="M12.7909,29.7573c0-.8982,1.5172-1.0446,1.5,0A.7514.7514,0,0,1,12.7909,29.7573Z"></path><path fill="#555" transform="translate(7 7)" d="M11.8478,31.7568c0-.8982,1.5172-1.0447,1.5,0A.7514.7514,0,0,1,11.8478,31.7568Z"></path><path fill="#555" transform="translate(7 7)" d="M11.181,34.6876c0-.8962,1.5172-1.0427,1.5,0A.7513.7513,0,0,1,11.181,34.6876Z"></path><path fill="#555" transform="translate(7 7)" d="M10.3814,37.3549c0-.8963,1.5172-1.0427,1.5,0A.7514.7514,0,0,1,10.3814,37.3549Z"></path><path fill="#555" transform="translate(7 7)" d="M10.2477,39.8874c0-.8963,1.5181-1.0427,1.5,0A.7514.7514,0,0,1,10.2477,39.8874Z"></path><path fill="#555" transform="translate(7 7)" d="M16.2129,23.6574c0-.8963,1.5181-1.0427,1.5,0A.7513.7513,0,0,1,16.2129,23.6574Z"></path><path fill="#555" transform="translate(7 7)" d="M10.8676,61.0477c0-.8962,1.5182-1.0427,1.5,0A.7514.7514,0,0,1,10.8676,61.0477Z"></path><path fill="#555" transform="translate(7 7)" d="M14.4672,59.4485c0-.8962,1.5172-1.0426,1.5,0A.7514.7514,0,0,1,14.4672,59.4485Z"></path><path fill="#555" transform="translate(7 7)" d="M18.5657,57.8494c0-.8963,1.5182-1.0427,1.5,0A.7514.7514,0,0,1,18.5657,57.8494Z"></path><path fill="#555" transform="translate(7 7)" d="M16.2666,57.35c0-.8962,1.5171-1.0427,1.5,0A.7514.7514,0,0,1,16.2666,57.35Z"></path><path fill="#555" transform="translate(7 7)" d="M13.8668,56.85c0-.8962,1.5182-1.0427,1.5,0A.7514.7514,0,0,1,13.8668,56.85Z"></path><path fill="#555" transform="translate(7 7)" d="M11.7678,58.5484c0-.8962,1.5171-1.0427,1.5,0A.7514.7514,0,0,1,11.7678,58.5484Z"></path><path fill="#555" transform="translate(7 7)" d="M9.1689,59.7492c0-.8982,1.5171-1.0446,1.5,0A.7514.7514,0,0,1,9.1689,59.7492Z"></path><path fill="#555" transform="translate(7 7)" d="M20.8649,57.25c0-.8982,1.5182-1.0446,1.5,0A.7514.7514,0,0,1,20.8649,57.25Z"></path><path fill="#555" transform="translate(7 7)" d="M22.3645,55.5492c0-.8962,1.5182-1.0427,1.5,0A.7514.7514,0,0,1,22.3645,55.5492Z"></path><path fill="#555" transform="translate(7 7)" d="M24.4109,54.1492c0-.8963,1.5171-1.0427,1.5,0A.7513.7513,0,0,1,24.4109,54.1492Z"></path><path fill="#555" transform="translate(7 7)" d="M26.6105,52.45c0-.8962,1.5171-1.0427,1.5,0A.7514.7514,0,0,1,26.6105,52.45Z"></path><path fill="#555" transform="translate(7 7)" d="M28.3532,51.2515c0-.8982,1.5181-1.0446,1.5,0A.7514.7514,0,0,1,28.3532,51.2515Z"></path><path fill="#555" transform="translate(7 7)" d="M11.468,63.1468c0-.8963,1.5172-1.0427,1.5,0A.7513.7513,0,0,1,11.468,63.1468Z"></path><path fill="#555" transform="translate(7 7)" d="M33.3987,63.2014c0-.8962,1.5171-1.0426,1.5,0A.7514.7514,0,0,1,33.3987,63.2014Z"></path><path fill="#555" transform="translate(7 7)" d="M29.9094,59.6477c0-.8962,1.5171-1.0427,1.5,0A.7513.7513,0,0,1,29.9094,59.6477Z"></path><path fill="#555" transform="translate(7 7)" d="M37.3488,63.1019c0-.8982,1.5172-1.0447,1.4986,0A.7509.7509,0,0,1,37.3488,63.1019Z"></path><path fill="#555" transform="translate(7 7)" d="M31.5525,61.6472c0-.8963,1.5181-1.0427,1.5,0A.7513.7513,0,0,1,31.5525,61.6472Z"></path><path fill="#555" transform="translate(7 7)" d="M28.4537,57.8494c0-.8963,1.5172-1.0427,1.5,0A.7514.7514,0,0,1,28.4537,57.8494Z"></path><path fill="#555" transform="translate(7 7)" d="M26.054,58.9487c0-.8963,1.5181-1.0427,1.5,0A.7514.7514,0,0,1,26.054,58.9487Z"></path><path fill="#555" transform="translate(7 7)" d="M23.0548,59.0483c0-.8963,1.5181-1.0427,1.5,0A.7514.7514,0,0,1,23.0548,59.0483Z"></path><path fill="#555" transform="translate(7 7)" d="M20.3123,60.2491c0-.8982,1.5172-1.0446,1.4987,0A.7509.7509,0,0,1,20.3123,60.2491Z"></path><path fill="#555" transform="translate(7 7)" d="M18.556,62.4477c0-.8962,1.5181-1.0427,1.5,0A.7514.7514,0,0,1,18.556,62.4477Z"></path><path fill="#555" transform="translate(7 7)" d="M17.3561,60.1476c0-.8963,1.5182-1.0427,1.5,0A.7513.7513,0,0,1,17.3561,60.1476Z"></path><path fill="#555" transform="translate(7 7)" d="M13.6579,61.448c0-.8962,1.5172-1.0427,1.4986,0A.7508.7508,0,0,1,13.6579,61.448Z"></path><path fill="#555" transform="translate(7 7)" d="M15.4689,63.1819c0-.8962,1.5182-1.0427,1.5,0A.7514.7514,0,0,1,15.4689,63.1819Z"></path><path fill="#555" transform="translate(7 7)" d="M50.0475,62.9476c0-.8962,1.5182-1.0427,1.5,0A.7514.7514,0,0,1,50.0475,62.9476Z"></path><path fill="#555" transform="translate(7 7)" d="M49.5037,59.2494c0-.8982,1.5182-1.0447,1.5,0A.7514.7514,0,0,1,49.5037,59.2494Z"></path><path fill="#555" transform="translate(7 7)" d="M48.2482,61.3484c0-.8962,1.5172-1.0427,1.5,0A.7514.7514,0,0,1,48.2482,61.3484Z"></path><path fill="#555" transform="translate(7 7)" d="M47.4486,57.25c0-.8982,1.5172-1.0446,1.5,0A.7514.7514,0,0,1,47.4486,57.25Z"></path><path fill="#555" transform="translate(7 7)" d="M45.949,55.35c0-.8962,1.5172-1.0427,1.5,0A.7514.7514,0,0,1,45.949,55.35Z"></path><path fill="#555" transform="translate(7 7)" d="M45.7049,62.7484c0-.8982,1.5182-1.0446,1.5,0A.7514.7514,0,0,1,45.7049,62.7484Z"></path><path fill="#555" transform="translate(7 7)" d="M54.3794,43.7535c0-.8982,1.5181-1.0446,1.5,0A.7514.7514,0,0,1,54.3794,43.7535Z"></path><path fill="#555" transform="translate(7 7)" d="M51.3138,42.2871c0-.8982,1.5181-1.0446,1.5,0A.7514.7514,0,0,1,51.3138,42.2871Z"></path><path fill="#555" transform="translate(7 7)" d="M49.1815,43.2205c0-.8982,1.5172-1.0447,1.4987,0A.7509.7509,0,0,1,49.1815,43.2205Z"></path><path fill="#555" transform="translate(7 7)" d="M44.65,45.0852c0-.8962,1.5171-1.0427,1.4986,0A.7508.7508,0,0,1,44.65,45.0852Z"></path><path fill="#555" transform="translate(7 7)" d="M46.3815,43.7535c0-.8982,1.5182-1.0446,1.5,0A.7514.7514,0,0,1,46.3815,43.7535Z"></path><path fill="#555" transform="translate(7 7)" d="M43.0494,47.3522c0-.8963,1.5182-1.0427,1.5,0A.7514.7514,0,0,1,43.0494,47.3522Z"></path><path fill="#555" transform="translate(7 7)" d="M51.2474,50.3514c0-.8963,1.5172-1.0427,1.5,0A.7514.7514,0,0,1,51.2474,50.3514Z"></path><path fill="#555" transform="translate(7 7)" d="M53.6032,46.5516c0-.8962,1.5172-1.0427,1.5,0A.7514.7514,0,0,1,53.6032,46.5516Z"></path><path fill="#555" transform="translate(7 7)" d="M50.7475,47.7525c0-.8982,1.5172-1.0447,1.5,0A.7514.7514,0,0,1,50.7475,47.7525Z"></path><path fill="#555" transform="translate(7 7)" d="M48.3478,48.9514c0-.8963,1.5181-1.0427,1.5,0A.7514.7514,0,0,1,48.3478,48.9514Z"></path><path fill="#555" transform="translate(7 7)" d="M46.4489,47.0515c0-.8963,1.5172-1.0427,1.5,0A.7514.7514,0,0,1,46.4489,47.0515Z"></path><path fill="#555" transform="translate(7 7)" d="M44.6056,48.6507c0-.8963,1.5172-1.0427,1.5,0A.7513.7513,0,0,1,44.6056,48.6507Z"></path><path fill="#555" transform="translate(7 7)" d="M48.6612,45.753c0-.8982,1.5171-1.0446,1.4986,0A.7509.7509,0,0,1,48.6612,45.753Z"></path><path fill="#555" transform="translate(7 7)" d="M51.4475,45.052c0-.8962,1.5172-1.0427,1.5,0A.7514.7514,0,0,1,51.4475,45.052Z"></path><path fill="#555" transform="translate(7 7)" d="M48.5147,40.1529c0-.8962,1.5172-1.0426,1.5,0A.7513.7513,0,0,1,48.5147,40.1529Z"></path><path fill="#555" transform="translate(7 7)" d="M46.772,40.9535c0-.8962,1.5172-1.0427,1.4987,0A.7509.7509,0,0,1,46.772,40.9535Z"></path><path fill="#555" transform="translate(7 7)" d="M44.1058,41.4866c0-.8963,1.5171-1.0427,1.5,0A.7514.7514,0,0,1,44.1058,41.4866Z"></path><path fill="#555" transform="translate(7 7)" d="M42.3826,43.3533c0-.8963,1.5181-1.0427,1.5,0A.7514.7514,0,0,1,42.3826,43.3533Z"></path><path fill="#555" transform="translate(7 7)" d="M41.45,45.3527c0-.8962,1.5172-1.0427,1.5,0A.7514.7514,0,0,1,41.45,45.3527Z"></path><path fill="#555" transform="translate(7 7)" d="M40.25,47.7525c0-.8982,1.5171-1.0447,1.4995,0A.7514.7514,0,0,1,40.25,47.7525Z"></path><path fill="#555" transform="translate(7 7)" d="M57.0359,42.02c0-.8962,1.5172-1.0427,1.4986,0A.7508.7508,0,0,1,57.0359,42.02Z"></path><path fill="#555" transform="translate(7 7)" d="M53.98,40.9535c0-.8962,1.5171-1.0427,1.5,0A.7514.7514,0,0,1,53.98,40.9535Z"></path><path fill="#555" transform="translate(7 7)" d="M51.4368,39.2216c0-.8982,1.5172-1.0447,1.5,0A.7514.7514,0,0,1,51.4368,39.2216Z"></path><path fill="#555" transform="translate(7 7)" d="M52.9032,36.9546c0-.8963,1.5172-1.0427,1.5,0A.7514.7514,0,0,1,52.9032,36.9546Z"></path><path fill="#555" transform="translate(7 7)" d="M55.57,36.2887c0-.8981,1.5171-1.0446,1.5,0A.7514.7514,0,0,1,55.57,36.2887Z"></path><path fill="#555" transform="translate(7 7)" d="M55.3029,38.5538c0-.8963,1.5172-1.0427,1.4987,0A.7509.7509,0,0,1,55.3029,38.5538Z"></path><path fill="#555" transform="translate(7 7)" d="M59.0685,44.3862c0-.8963,1.5172-1.0427,1.5,0A.7514.7514,0,0,1,59.0685,44.3862Z"></path><path fill="#555" transform="translate(7 7)" d="M62.1449,43.8522c0-.8982,1.5171-1.0446,1.4986,0A.7509.7509,0,0,1,62.1449,43.8522Z"></path><path fill="#555" transform="translate(7 7)" d="M56.0459,46.2529c0-.8982,1.5182-1.0447,1.5,0A.7514.7514,0,0,1,56.0459,46.2529Z"></path><path fill="#555" transform="translate(7 7)" d="M56.9129,44.2866c0-.8982,1.5171-1.0446,1.5,0A.7514.7514,0,0,1,56.9129,44.2866Z"></path><path fill="#555" transform="translate(7 7)" d="M58.512,47.4518c0-.8963,1.5172-1.0427,1.5,0A.7514.7514,0,0,1,58.512,47.4518Z"></path><path fill="#555" transform="translate(7 7)" d="M53.6471,49.3516c0-.8962,1.5172-1.0426,1.4987,0A.7509.7509,0,0,1,53.6471,49.3516Z"></path><path fill="#555" transform="translate(7 7)" d="M51.347,57.6482c0-.8962,1.5181-1.0426,1.5,0A.7513.7513,0,0,1,51.347,57.6482Z"></path><path fill="#555" transform="translate(7 7)" d="M49.6482,55.75c0-.8982,1.5172-1.0446,1.4986,0A.7509.7509,0,0,1,49.6482,55.75Z"></path><path fill="#555" transform="translate(7 7)" d="M56.3017,48.6507c0-.8963,1.5182-1.0427,1.5,0A.7513.7513,0,0,1,56.3017,48.6507Z"></path><path fill="#555" transform="translate(7 7)" d="M43.3062,60.5479c0-.8963,1.5171-1.0427,1.4986,0A.7508.7508,0,0,1,43.3062,60.5479Z"></path><path fill="#555" transform="translate(7 7)" d="M54.9466,51.7514c0-.8982,1.5172-1.0446,1.5,0A.7514.7514,0,0,1,54.9466,51.7514Z"></path><path fill="#555" transform="translate(7 7)" d="M52.1144,52.6828c0-.8963,1.5171-1.0427,1.4986,0A.7508.7508,0,0,1,52.1144,52.6828Z"></path><path fill="#555" transform="translate(7 7)" d="M25.354,63.0472c0-.8963,1.5181-1.0427,1.5,0A.7514.7514,0,0,1,25.354,63.0472Z"></path><path fill="#555" transform="translate(7 7)" d="M21.4585,63.2014c0-.8962,1.5172-1.0426,1.4986,0A.7508.7508,0,0,1,21.4585,63.2014Z"></path><path fill="#555" transform="translate(7 7)" d="M23.9549,61.448c0-.8962,1.5172-1.0427,1.5,0A.7514.7514,0,0,1,23.9549,61.448Z"></path><path fill="#555" transform="translate(7 7)" d="M26.8536,61.1473c0-.8962,1.5181-1.0427,1.5,0A.7513.7513,0,0,1,26.8536,61.1473Z"></path><path fill="#555" transform="translate(7 7)" d="M29.0532,62.6469c0-.8962,1.5181-1.0427,1.5,0A.7513.7513,0,0,1,29.0532,62.6469Z"></path><path fill="#555" transform="translate(7 7)" d="M46.1052,59.5481c0-.8962,1.5172-1.0427,1.5,0A.7514.7514,0,0,1,46.1052,59.5481Z"></path><path fill="#555" transform="translate(7 7)" d="M41.5069,62.932c.0624-.8943,1.5864-.9334,1.4956.1054A.7512.7512,0,0,1,41.5069,62.932Z"></path><path fill="#555" transform="translate(7 7)" d="M39.7075,60.8115c.0625-.8943,1.5865-.9334,1.4957.1054A.7512.7512,0,0,1,39.7075,60.8115Z"></path><path fill="#555" transform="translate(7 7)" d="M39.9506,54.35c0-.8962,1.5172-1.0427,1.5,0A.7514.7514,0,0,1,39.9506,54.35Z"></path><path fill="#555" transform="translate(7 7)" d="M38.4042,58.0017c0-.8963,1.5171-1.0427,1.5,0A.7513.7513,0,0,1,38.4042,58.0017Z"></path><path fill="#555" transform="translate(7 7)" d="M44.3957,57.6482c0-.8962,1.5172-1.0426,1.5,0A.7513.7513,0,0,1,44.3957,57.6482Z"></path><path fill="#555" transform="translate(7 7)" d="M62.886,6.5624c0-.8963,1.5182-1.0427,1.5,0A.7514.7514,0,0,1,62.886,6.5624Z"></path><path fill="#555" transform="translate(7 7)" d="M55.9463,3.2644c0-.8982,1.5172-1.0446,1.5,0A.7514.7514,0,0,1,55.9463,3.2644Z"></path><path fill="#555" transform="translate(7 7)" d="M59.545,5.463c0-.8962,1.5181-1.0426,1.5,0A.7514.7514,0,0,1,59.545,5.463Z"></path><path fill="#555" transform="translate(7 7)" d="M59.2452,3.4636c0-.8963,1.5172-1.0427,1.5,0A.7514.7514,0,0,1,59.2452,3.4636Z"></path><path fill="#555" transform="translate(7 7)" d="M55.0491,7.8726c.0635-.8943,1.5875-.9334,1.4967.1054A.7518.7518,0,0,1,55.0491,7.8726Z"></path><path fill="#555" transform="translate(7 7)" d="M56.4491,5.4728c.0625-.8943,1.5865-.9333,1.4957.1055A.7512.7512,0,0,1,56.4491,5.4728Z"></path><path fill="#555" transform="translate(7 7)" d="M47.5052,2.7489c.0625-.8943,1.5865-.9353,1.4957.1035A.7512.7512,0,0,1,47.5052,2.7489Z"></path><path fill="#555" transform="translate(7 7)" d="M53.45,5.6739c.0625-.8943,1.5865-.9353,1.4957.1055A.7513.7513,0,0,1,53.45,5.6739Z"></path><path fill="#555" transform="translate(7 7)" d="M62.4543,15.06c0-.8963,1.5172-1.0427,1.5,0A.7514.7514,0,0,1,62.4543,15.06Z"></path><path fill="#555" transform="translate(7 7)" d="M59.8017,14.66c0-.8962,1.5172-1.0427,1.4987,0A.7508.7508,0,0,1,59.8017,14.66Z"></path><path fill="#555" transform="translate(7 7)" d="M61.2008,12.5607c0-.8962,1.5181-1.0426,1.5,0A.7514.7514,0,0,1,61.2008,12.5607Z"></path><path fill="#555" transform="translate(7 7)" d="M61.8,9.8623c0-.8963,1.5182-1.0427,1.5,0A.7514.7514,0,0,1,61.8,9.8623Z"></path><path fill="#555" transform="translate(7 7)" d="M55.546,11.6606c0-.8962,1.5182-1.0427,1.5,0A.7513.7513,0,0,1,55.546,11.6606Z"></path><path fill="#555" transform="translate(7 7)" d="M58.5452,12.3616c0-.8963,1.5182-1.0427,1.5,0A.7514.7514,0,0,1,58.5452,12.3616Z"></path><path fill="#555" transform="translate(7 7)" d="M59.2452,9.7627c0-.8982,1.5172-1.0447,1.5,0A.7514.7514,0,0,1,59.2452,9.7627Z"></path><path fill="#555" transform="translate(7 7)" d="M58.0014,7.8628c0-.8963,1.5182-1.0427,1.5,0A.7514.7514,0,0,1,58.0014,7.8628Z"></path><path fill="#555" transform="translate(7 7)" d="M56.5458,13.9608c0-.8963,1.5181-1.0427,1.5,0A.7514.7514,0,0,1,56.5458,13.9608Z"></path><path fill="#555" transform="translate(7 7)" d="M61.7045,2.5928c0-.8962,1.5171-1.0427,1.5,0A.7514.7514,0,0,1,61.7045,2.5928Z"></path><path fill="#555" transform="translate(7 7)" d="M59.4015,1.265c0-.8982,1.5171-1.0447,1.5,0A.7514.7514,0,0,1,59.4015,1.265Z"></path><path fill="#555" transform="translate(7 7)" d="M56.2461.9643c0-.8963,1.5171-1.0427,1.5,0A.7514.7514,0,0,1,56.2461.9643Z"></path><path fill="#555" transform="translate(7 7)" d="M52.9032,1.1634c0-.8962,1.5172-1.0427,1.5,0A.7513.7513,0,0,1,52.9032,1.1634Z"></path><path fill="#555" transform="translate(7 7)" d="M60.6013,7.6168c0-.8982,1.5172-1.0447,1.5,0A.7514.7514,0,0,1,60.6013,7.6168Z"></path><path fill="#555" transform="translate(7 7)" d="M56.4462,9.7627c0-.8982,1.5172-1.0447,1.5,0A.7514.7514,0,0,1,56.4462,9.7627Z"></path><path fill="#555" transform="translate(7 7)" d="M50.9037,6.4628c0-.8963,1.5172-1.0427,1.5,0A.7514.7514,0,0,1,50.9037,6.4628Z"></path><path fill="#555" transform="translate(7 7)" d="M53.5563,10.4617c0-.8962,1.5182-1.0427,1.5,0A.7514.7514,0,0,1,53.5563,10.4617Z"></path><path fill="#555" transform="translate(7 7)" d="M52.2471,8.6946c0-.8962,1.5172-1.0427,1.5,0A.7513.7513,0,0,1,52.2471,8.6946Z"></path><path fill="#555" transform="translate(7 7)" d="M51.181,12.8283c0-.8963,1.5172-1.0427,1.4986,0A.7508.7508,0,0,1,51.181,12.8283Z"></path><path fill="#555" transform="translate(7 7)" d="M46.7818,10.161c0-.8962,1.5172-1.0427,1.5,0A.7513.7513,0,0,1,46.7818,10.161Z"></path><path fill="#555" transform="translate(7 7)" d="M44.65,8.8293c0-.8962,1.5171-1.0427,1.4986,0A.7508.7508,0,0,1,44.65,8.8293Z"></path><path fill="#555" transform="translate(7 7)" d="M42.25,7.23c0-.8982,1.5172-1.0447,1.5,0A.7514.7514,0,0,1,42.25,7.23Z"></path><path fill="#555" transform="translate(7 7)" d="M39.5738,5.096c0-.8963,1.5171-1.0427,1.5,0A.7514.7514,0,0,1,39.5738,5.096Z"></path><path fill="#555" transform="translate(7 7)" d="M37.0413,2.6962c0-.8962,1.5171-1.0427,1.5,0A.7513.7513,0,0,1,37.0413,2.6962Z"></path><path fill="#555" transform="translate(7 7)" d="M35.2517.9643c0-.8963,1.5172-1.0427,1.5,0A.7514.7514,0,0,1,35.2517.9643Z"></path><path fill="#555" transform="translate(7 7)" d="M53.8365,13.3613c0-.8962,1.5172-1.0427,1.5,0A.7514.7514,0,0,1,53.8365,13.3613Z"></path><path fill="#555" transform="translate(7 7)" d="M48.2482,7.7632c0-.8982,1.5172-1.0446,1.5,0A.7514.7514,0,0,1,48.2482,7.7632Z"></path><path fill="#555" transform="translate(7 7)" d="M45.5819,6.5624c0-.8963,1.5182-1.0427,1.5,0A.7514.7514,0,0,1,45.5819,6.5624Z"></path><path fill="#555" transform="translate(7 7)" d="M43.1724,4.9632c0-.8963,1.5172-1.0427,1.5,0A.7514.7514,0,0,1,43.1724,4.9632Z"></path><path fill="#555" transform="translate(7 7)" d="M41.3038,2.911c0-.8982,1.5172-1.0446,1.5,0A.7514.7514,0,0,1,41.3038,2.911Z"></path><path fill="#555" transform="translate(7 7)" d="M39.2038.9115c0-.8982,1.5181-1.0446,1.5,0A.7514.7514,0,0,1,39.2038.9115Z"></path><path fill="#555" transform="translate(7 7)" d="M44.9054,3.4167c0-.8962,1.5171-1.0427,1.4995,0A.7513.7513,0,0,1,44.9054,3.4167Z"></path><path fill="#555" transform="translate(7 7)" d="M47.9016,5.4162c0-.8963,1.5182-1.0427,1.5,0A.7514.7514,0,0,1,47.9016,5.4162Z"></path><path fill="#555" transform="translate(7 7)" d="M43.31,1.0638c0-.8962,1.5171-1.0427,1.5,0A.7514.7514,0,0,1,43.31,1.0638Z"></path><path fill="#555" transform="translate(7 7)" d="M53.0467,3.1629c0-.8963,1.5182-1.0427,1.5,0A.7513.7513,0,0,1,53.0467,3.1629Z"></path><path fill="#555" transform="translate(7 7)" d="M50.357,3.8639c0-.8963,1.5182-1.0427,1.5,0A.7514.7514,0,0,1,50.357,3.8639Z"></path><path fill="#555" transform="translate(7 7)" d="M48.504.9643c0-.8963,1.5181-1.0427,1.5,0A.7514.7514,0,0,1,48.504.9643Z"></path><path fill="#555" transform="translate(7 7)" d="M62.886.6486c0-.8962,1.5172-1.0427,1.5,0A.7513.7513,0,0,1,62.886.6486Z"></path><path fill="#555" transform="translate(7 7)" d="M63.89,12.66c0-.8962,1.5172-1.0427,1.5,0A.7513.7513,0,0,1,63.89,12.66Z"></path><path fill="#555" transform="translate(7 7)" d="M63.89,34.9054c0-.8962,1.5172-1.0427,1.5,0A.7514.7514,0,0,1,63.89,34.9054Z"></path><path fill="#555" transform="translate(7 7)" d="M62.886,32.3715c0-.8962,1.5172-1.0427,1.5,0A.7514.7514,0,0,1,62.886,32.3715Z"></path><path fill="#555" transform="translate(7 7)" d="M63.89,39.47c0-.8962,1.5182-1.0427,1.5,0A.7514.7514,0,0,1,63.89,39.47Z"></path><path fill="#555" transform="translate(7 7)" d="M62.886,37.27c0-.8962,1.5182-1.0426,1.5,0A.7514.7514,0,0,1,62.886,37.27Z"></path><path fill="#555" transform="translate(7 7)" d="M62.6546,55.2158c0-.8962,1.5172-1.0427,1.5,0A.7513.7513,0,0,1,62.6546,55.2158Z"></path><path fill="#555" transform="translate(7 7)" d="M62.7767,58.518c0-.8962,1.5171-1.0426,1.5,0A.7514.7514,0,0,1,62.7767,58.518Z"></path><path fill="#555" transform="translate(7 7)" d="M62.7767,52.4515c0-.8982,1.5171-1.0446,1.5,0A.7514.7514,0,0,1,62.7767,52.4515Z"></path><path fill="#555" transform="translate(7 7)" d="M62.7767,49.3669c0-.8962,1.5171-1.0426,1.5,0A.7514.7514,0,0,1,62.7767,49.3669Z"></path><path fill="#555" transform="translate(7 7)" d="M62.8865,46.1364c0-.8962,1.5172-1.0427,1.4986,0A.7508.7508,0,0,1,62.8865,46.1364Z"></path><path fill="#555" transform="translate(7 7)" d="M63.14,4.08c0-.8962,1.5181-1.0426,1.5,0A.7514.7514,0,0,1,63.14,4.08Z"></path><path fill="#555" transform="translate(7 7)" d="M63.89,23.2248c0-.8963,1.5182-1.0427,1.5,0A.7514.7514,0,0,1,63.89,23.2248Z"></path><path fill="#555" transform="translate(7 7)" d="M63.89,25.858c0-.8963,1.5182-1.0427,1.5,0A.7514.7514,0,0,1,63.89,25.858Z"></path><path fill="#555" transform="translate(7 7)" d="M-1.1293,6.5624c0-.8963,1.5181-1.0427,1.5,0A.7514.7514,0,0,1-1.1293,6.5624Z"></path></svg>