<svg xmlns="http://www.w3.org/2000/svg" viewBox="0 0 31 31" height="31" width="31"><title>outdoors.svg</title><rect fill="none" x="0" y="0" width="31" height="31"></rect><rect x="2" y="2" rx="13" ry="13" width="26" height="26" stroke="rgba(79,196,88,0.2)" style="stroke-linejoin:round;stroke-miterlimit:4;" fill="rgba(79,196,88,0.2)" stroke-width="5"></rect><rect x="2" y="2" width="26" height="26" rx="13" ry="13" fill="#3f6e57"></rect><path fill="#fff" transform="translate(6 6)" d="M9.20014 11.1925V12.8831L10.1734 12.0378L10.5319 12.4076L9.20014 13.6755V16H7.97079C7.97079 11.7736 8.32935 12.8831 6.8951 10.6114C3.30948 11.8265 1.56789 6.80768 4.43639 5.11714C4.48761 4.37753 5.15351 3.84924 5.87064 3.84924C6.94632 1.36625 10.3271 1.36625 11.3515 3.95489C12.4784 3.16245 13.9127 4.3247 13.4517 5.64544C15.142 7.49447 13.8102 11.1397 11.0442 10.7699C10.6344 11.351 9.86604 11.5623 9.20014 11.1925ZM7.97079 11.2982V10.0303C7.76589 10.1359 7.561 10.2944 7.40733 10.3473L7.97079 11.2982Z"></path></svg>