<svg xmlns="http://www.w3.org/2000/svg" viewBox="0 0 24 24" height="24" width="24"><title>restaurant-pizza-11.svg</title><rect fill="none" x="0" y="0" width="24" height="24"></rect><rect x="2" y="2" rx="9.5" ry="9.5" width="19" height="19" stroke="rgba(252,18,237,0.2)" style="stroke-linejoin:round;stroke-miterlimit:4;" fill="rgba(252,18,237,0.2)" stroke-width="5"></rect><rect x="2" y="2" width="19" height="19" rx="9.5" ry="9.5" fill="#593f6e"></rect><path fill="#ffffff" transform="translate(6 6)" d="M1.9366,6.5067,1.0224,6.1A10.038,10.038,0,0,1,6.1,1.0224l.4064.9144h0a9.0333,9.0333,0,0,0-4.57,4.57ZM9.62,9.9471,2.897,6.9594A8.03,8.03,0,0,1,6.9594,2.897h0l.391.88a.7476.7476,0,0,0-.6288.7318.7578.7578,0,0,0,.7578.7578.7424.7424,0,0,0,.4578-.1694l2.01,4.5223A.2482.2482,0,0,1,9.62,9.9471ZM6.2524,6.4955a.75.75,0,1,0-.75.75A.75.75,0,0,0,6.2524,6.4955Zm1.9841,1.006a.74.74,0,1,0-.74.74A.74.74,0,0,0,8.2365,7.5015Z"></path></svg>