<svg xmlns="http://www.w3.org/2000/svg" viewBox="0 0 24 24" height="24" width="24"><title>restaurant-11.svg</title><rect fill="none" x="0" y="0" width="24" height="24"></rect><rect x="2" y="2" rx="9.5" ry="9.5" width="19" height="19" stroke="rgba(252,18,237,0.2)" style="stroke-linejoin:round;stroke-miterlimit:4;" fill="rgba(252,18,237,0.2)" stroke-width="5"></rect><rect x="2" y="2" width="19" height="19" rx="9.5" ry="9.5" fill="#593f6e"></rect><path fill="#ffffff" transform="translate(6 6)" d="M2.25,0l-0.5,3.5C1.6793,3.995,2.9908,4.9001,3,5.5V11h1V5.5c0-0.6,1.3207-1.505,1.25-2L4.75,0h-0.5
	L4.5,2.75l-0.75,0.5V0h-0.5v3.25L2.5,2.75L2.75,0H2.25z M9,0C7.5,0,7.0064,1.7242,7,3v3h1v5h1V0z"></path></svg>