<svg xmlns="http://www.w3.org/2000/svg" viewBox="0 0 28 28" height="28" width="28"><title>suitcase-15.svg</title><rect fill="none" x="0" y="0" width="28" height="28"></rect><rect x="2" y="2" rx="11.5" ry="11.5" width="23" height="23" stroke="rgba(252,18,237,0.2)" style="stroke-linejoin:round;stroke-miterlimit:4;" fill="rgba(252,18,237,0.2)" stroke-width="5"></rect><rect x="2" y="2" width="23" height="23" rx="11.5" ry="11.5" fill="#593f6e"></rect><path fill="#fff" transform="translate(6 6)" d="M11,4V2c0-1-1-1-1-1H5.0497
	c0,0-1.1039,0.0015-1.0497,1v2H2c0,0-1,0-1,1v7c0,1,1,1,1,1h11c0,0,1,0,1-1V5c0-1-1-1-1-1H11z M5.5,2.5h4V4h-4V2.5z"></path></svg>